<svg width="797" height="539" viewBox="0 0 797 539" fill="none" xmlns="http://www.w3.org/2000/svg">
<g style="mix-blend-mode:luminosity">
<path d="M788.547 170.422C781.216 167.179 777.866 169.887 775.206 167.179C772.545 164.471 782.536 157.596 762.534 150.672C762.534 150.672 761.193 135.77 733.86 135.235C706.526 134.699 713.857 150.137 706.526 153.866C699.195 157.596 697.185 151.742 689.854 155.488C682.523 159.233 685.792 166.66 679.862 167.73C674.379 168.703 667.252 163.936 660.469 165.914C658.206 159.887 655.071 154.092 651.127 148.645C626.373 114.706 572.396 99.0579 530.136 89.507C395.64 59.1354 363.108 133.71 279.746 174.784C196.384 215.858 98.4013 178.027 50.8008 207.523C3.2003 237.019 -12.6801 310.297 10.5516 344.09C33.7832 377.883 85.1609 388.893 93.1011 405.092C101.041 421.292 98.5637 426.594 98.5637 426.594H722C726.874 426.594 739.749 405.757 742.308 401.703C756.685 378.661 758.432 355.797 733.19 338.09C708.821 320.999 666.683 310.248 663.718 278.482C660.753 246.716 670.947 210.604 664.063 178.384H793.827C793.827 178.384 795.878 173.617 788.547 170.422ZM275.482 355.133H106.788C106.788 355.133 111.459 352.473 115.459 350.268C119.46 348.063 126.121 350.268 129.451 350.268C132.782 350.268 132.782 347.025 140.133 343.36C147.484 339.695 155.465 345.484 161.456 344.414C167.446 343.344 164.136 335.901 171.467 332.172C178.798 328.442 180.809 334.296 188.14 330.55C195.471 326.804 188.14 311.367 215.473 311.902C242.807 312.437 244.147 327.356 244.147 327.356C264.15 334.263 254.139 341.187 256.819 343.847C259.5 346.506 262.81 343.847 270.161 347.09C277.512 350.333 275.482 355.133 275.482 355.133ZM549.083 118.014H440.824C440.824 118.014 443.809 116.392 446.388 114.949C448.967 113.506 453.232 114.949 455.364 114.949C457.497 114.949 457.517 112.89 462.208 110.506C466.899 108.122 472.057 111.868 475.915 111.187C479.774 110.506 477.621 105.722 482.333 103.323C487.044 100.923 488.323 104.685 493.035 102.301C497.746 99.9173 493.035 89.9934 510.58 90.3339C528.126 90.6745 528.979 100.242 528.979 100.242C541.813 104.685 535.396 109.128 537.102 110.847C538.807 112.565 540.96 110.847 545.671 112.89C550.383 114.933 549.083 118.014 549.083 118.014Z" fill="#98A1AB"/>
<path d="M349.908 35.2012C342.557 31.9581 339.227 34.666 336.566 31.9581C333.906 29.2501 343.897 22.3747 323.895 15.4507C323.895 15.4507 322.554 0.548689 295.22 0.0135787C267.887 -0.521532 275.218 14.9156 267.887 18.6452C260.556 22.3747 258.545 16.5209 251.214 20.2667C243.883 24.0125 247.153 31.4392 241.203 32.5094C235.253 33.5796 227.211 27.6447 219.88 31.4392C212.549 35.2336 212.529 38.3632 209.198 38.3632C205.868 38.3632 199.207 36.2389 195.207 38.3632C191.206 40.4874 186.535 43.2278 186.535 43.2278H355.229C355.229 43.2278 357.239 38.4443 349.908 35.2012Z" fill="#98A1AB"/>
<g opacity="0.7">
<path d="M788.547 170.422C781.216 167.179 777.866 169.887 775.206 167.179C772.545 164.471 782.536 157.596 762.534 150.672C762.534 150.672 761.193 135.77 733.86 135.235C706.526 134.699 713.857 150.137 706.526 153.866C699.195 157.596 697.185 151.742 689.854 155.488C682.523 159.233 685.792 166.66 679.862 167.73C674.379 168.703 667.252 163.936 660.469 165.914C658.206 159.887 655.071 154.092 651.127 148.645C626.373 114.706 572.396 99.0579 530.136 89.507C395.64 59.1354 363.108 133.71 279.746 174.784C196.384 215.858 98.4013 178.027 50.8008 207.523C3.2003 237.019 -12.6801 310.297 10.5516 344.09C33.7832 377.883 85.1609 388.893 93.1011 405.092C101.041 421.292 98.5637 426.594 98.5637 426.594H722C726.874 426.594 739.749 405.757 742.308 401.703C756.685 378.661 758.432 355.797 733.19 338.09C708.821 320.999 666.683 310.248 663.718 278.482C660.753 246.716 670.947 210.604 664.063 178.384H793.827C793.827 178.384 795.878 173.617 788.547 170.422ZM275.482 355.133H106.788C106.788 355.133 111.459 352.473 115.459 350.268C119.46 348.063 126.121 350.268 129.451 350.268C132.782 350.268 132.782 347.025 140.133 343.36C147.484 339.695 155.465 345.484 161.456 344.414C167.446 343.344 164.136 335.901 171.467 332.172C178.798 328.442 180.809 334.296 188.14 330.55C195.471 326.804 188.14 311.367 215.473 311.902C242.807 312.437 244.147 327.356 244.147 327.356C264.15 334.263 254.139 341.187 256.819 343.847C259.5 346.506 262.81 343.847 270.161 347.09C277.512 350.333 275.482 355.133 275.482 355.133ZM549.083 118.014H440.824C440.824 118.014 443.809 116.392 446.388 114.949C448.967 113.506 453.232 114.949 455.364 114.949C457.497 114.949 457.517 112.89 462.208 110.506C466.899 108.122 472.057 111.868 475.915 111.187C479.774 110.506 477.621 105.722 482.333 103.323C487.044 100.923 488.323 104.685 493.035 102.301C497.746 99.9173 493.035 89.9934 510.58 90.3339C528.126 90.6745 528.979 100.242 528.979 100.242C541.813 104.685 535.396 109.128 537.102 110.847C538.807 112.565 540.96 110.847 545.671 112.89C550.383 114.933 549.083 118.014 549.083 118.014Z" fill="white"/>
<path d="M349.908 35.2012C342.557 31.9581 339.227 34.666 336.566 31.9581C333.906 29.2501 343.897 22.3747 323.895 15.4507C323.895 15.4507 322.554 0.548689 295.22 0.0135787C267.887 -0.521532 275.218 14.9156 267.887 18.6452C260.556 22.3747 258.545 16.5209 251.214 20.2667C243.883 24.0125 247.153 31.4392 241.203 32.5094C235.253 33.5796 227.211 27.6447 219.88 31.4392C212.549 35.2336 212.529 38.3632 209.198 38.3632C205.868 38.3632 199.207 36.2389 195.207 38.3632C191.206 40.4874 186.535 43.2278 186.535 43.2278H355.229C355.229 43.2278 357.239 38.4442 349.908 35.2012Z" fill="white"/>
</g>
<path d="M776.18 321.923L796 364.326H782.496L768.991 331.263L776.18 321.923Z" fill="white" stroke="#2E353A" stroke-width="0.887535" stroke-linecap="round" stroke-linejoin="round"/>
<path d="M786.984 426.627H608.462V353.787L774.21 333.566L786.984 361.684V426.627Z" fill="#2E353A"/>
<path d="M633.054 206.194H400.21V426.627H633.054V206.194Z" fill="#2E353A"/>
<path d="M385.873 224.014L375.963 213.766L517.931 126.251L657.301 212.177L647.411 222.425L517.931 142.596L385.873 224.014Z" fill="#2E353A"/>
<path d="M590.449 206.194H357.605V426.627H590.449V206.194Z" fill="white" stroke="#2E353A" stroke-width="0.887535" stroke-linecap="round" stroke-linejoin="round"/>
<path d="M474.027 134.423L357.605 206.193H590.449L474.027 134.423Z" fill="white" stroke="#2E353A" stroke-width="0.887535" stroke-linejoin="round"/>
<g style="mix-blend-mode:multiply">
<path d="M474.027 134.423L357.605 206.193V222.538L384.126 206.193L474.027 150.769L563.948 206.193L590.449 222.538V206.193L474.027 134.423Z" fill="#80BBFF"/>
</g>
<path d="M768.991 353.787H590.449V426.627H768.991V353.787Z" fill="white" stroke="#2E353A" stroke-width="0.887535" stroke-linecap="round" stroke-linejoin="round"/>
<path d="M750.999 353.787H608.462V426.627H750.999V353.787Z" fill="#80BBFF" stroke="#2E353A" stroke-width="0.887535" stroke-linecap="round" stroke-linejoin="round"/>
<g style="mix-blend-mode:multiply">
<path d="M768.991 353.787H590.449V369.403H768.991V353.787Z" fill="#80BBFF"/>
</g>
<path d="M608.462 375.11H750.979" stroke="#2E353A" stroke-width="0.887535" stroke-linecap="round" stroke-linejoin="round"/>
<path d="M608.462 385.893H750.979" stroke="#2E353A" stroke-width="0.887535" stroke-linecap="round" stroke-linejoin="round"/>
<path d="M608.462 396.677H750.979" stroke="#2E353A" stroke-width="0.887535" stroke-linecap="round" stroke-linejoin="round"/>
<path d="M608.462 407.46H750.979" stroke="#2E353A" stroke-width="0.887535" stroke-linecap="round" stroke-linejoin="round"/>
<path d="M608.462 418.243H750.979" stroke="#2E353A" stroke-width="0.887535" stroke-linecap="round" stroke-linejoin="round"/>
<path d="M423.624 345.16H376.816V426.627H423.624V345.16Z" fill="#2E353A"/>
<path d="M495.025 345.16H448.216V401.704H495.025V345.16Z" fill="white" stroke="#2E353A" stroke-width="0.887535" stroke-linecap="round" stroke-linejoin="round"/>
<path d="M495.025 371.04H448.216V375.84H495.025V371.04Z" fill="#2E353A"/>
<path d="M474.636 345.16H468.625V401.704H474.636V345.16Z" fill="#2E353A"/>
<path d="M580.843 345.16H534.035V401.704H580.843V345.16Z" fill="white" stroke="#2E353A" stroke-width="0.887535" stroke-linecap="round" stroke-linejoin="round"/>
<path d="M580.843 371.04H534.035V375.84H580.843V371.04Z" fill="#2E353A"/>
<path d="M560.455 345.16H554.444V401.704H560.455V345.16Z" fill="#2E353A"/>
<path d="M520.531 345.16H511.555V426.627H520.531V345.16Z" fill="white" stroke="#2E353A" stroke-width="0.887535" stroke-linecap="round" stroke-linejoin="round"/>
<path d="M442.063 345.16H433.087V426.627H442.063V345.16Z" fill="white" stroke="#2E353A" stroke-width="0.887535" stroke-linecap="round" stroke-linejoin="round"/>
<path d="M580.843 348.517H368.408V359.057H580.843V348.517Z" fill="#2E353A"/>
<path d="M580.843 343.247H368.408V353.787H580.843V343.247Z" fill="#80BBFF" stroke="#2E353A" stroke-width="0.887535" stroke-linecap="round" stroke-linejoin="round"/>
<path d="M341.968 224.014L332.058 213.766L474.027 126.251L613.396 212.177L603.506 222.425L474.027 142.596L341.968 224.014Z" fill="white" stroke="#2E353A" stroke-width="0.887535" stroke-linejoin="round"/>
<path d="M768.992 364.326H572.7L590.713 321.923H776.18L768.992 364.326Z" fill="#2E353A"/>
<path d="M613.396 212.177H653.605L517.932 126.251H474.027L613.396 212.177Z" fill="#2E353A"/>
<path d="M603.507 222.425H647.411L657.301 212.177H613.397L603.507 222.425Z" fill="#2E353A"/>
<path d="M402.017 238.787H376.816V271.38H402.017V238.787Z" fill="white" stroke="#2E353A" stroke-width="0.887535" stroke-linecap="round" stroke-linejoin="round"/>
<path d="M402.017 255.083H376.816V271.38H402.017V255.083Z" fill="#2E353A"/>
<path d="M402.017 253.267H376.816V256.899H402.017V253.267Z" fill="white" stroke="#2E353A" stroke-width="0.887535" stroke-linecap="round" stroke-linejoin="round"/>
<path d="M402.017 285.747H376.816V318.34H402.017V285.747Z" fill="white" stroke="#2E353A" stroke-width="0.887535" stroke-linecap="round" stroke-linejoin="round"/>
<path d="M402.017 301.881H376.816V318.323H402.017V301.881Z" fill="#2E353A"/>
<path d="M572.436 238.787H547.235V271.38H572.436V238.787Z" fill="white" stroke="#2E353A" stroke-width="0.887535" stroke-linecap="round" stroke-linejoin="round"/>
<path d="M572.436 255.083H547.235V271.38H572.436V255.083Z" fill="#2E353A"/>
<path d="M572.436 285.747H547.235V318.34H572.436V285.747Z" fill="white" stroke="#2E353A" stroke-width="0.887535" stroke-linecap="round" stroke-linejoin="round"/>
<path d="M572.436 300.065H547.235V318.324H572.436V300.065Z" fill="#2E353A"/>
<path d="M484.221 238.787H459.02V271.38H484.221V238.787Z" fill="white" stroke="#2E353A" stroke-width="0.887535" stroke-linecap="round" stroke-linejoin="round"/>
<path d="M484.221 255.083H459.02V271.38H484.221V255.083Z" fill="#2E353A"/>
<path d="M484.221 285.747H459.02V318.34H484.221V285.747Z" fill="white" stroke="#2E353A" stroke-width="0.887535" stroke-linecap="round" stroke-linejoin="round"/>
<path d="M484.221 300.065H459.02V318.324H484.221V300.065Z" fill="#2E353A"/>
<path d="M484.221 253.267H459.02V256.899H484.221V253.267Z" fill="white" stroke="#2E353A" stroke-width="0.887535" stroke-linecap="round" stroke-linejoin="round"/>
<path d="M572.436 253.267H547.235V256.899H572.436V253.267Z" fill="white" stroke="#2E353A" stroke-width="0.887535" stroke-linecap="round" stroke-linejoin="round"/>
<path d="M402.017 298.249H376.816V301.881H402.017V298.249Z" fill="white" stroke="#2E353A" stroke-width="0.887535" stroke-linecap="round" stroke-linejoin="round"/>
<path d="M484.221 298.249H459.02V301.881H484.221V298.249Z" fill="white" stroke="#2E353A" stroke-width="0.887535" stroke-linecap="round" stroke-linejoin="round"/>
<path d="M572.436 298.249H547.235V301.881H572.436V298.249Z" fill="white" stroke="#2E353A" stroke-width="0.887535" stroke-linecap="round" stroke-linejoin="round"/>
<path d="M378.135 216.02V224.014" stroke="#2E353A" stroke-width="0.887535" stroke-linecap="round" stroke-linejoin="round"/>
<path d="M396.148 216.02V224.014" stroke="#2E353A" stroke-width="0.887535" stroke-linecap="round" stroke-linejoin="round"/>
<path d="M385.872 224.014V232.008" stroke="#2E353A" stroke-width="0.887535" stroke-linecap="round" stroke-linejoin="round"/>
<path d="M406.444 224.014V232.008" stroke="#2E353A" stroke-width="0.887535" stroke-linecap="round" stroke-linejoin="round"/>
<path d="M370.155 224.014H411.297" stroke="#2E353A" stroke-width="0.887535" stroke-linecap="round" stroke-linejoin="round"/>
<path d="M378.135 322.799V330.793" stroke="#2E353A" stroke-width="0.887535" stroke-linecap="round" stroke-linejoin="round"/>
<path d="M396.148 322.799V330.793" stroke="#2E353A" stroke-width="0.887535" stroke-linecap="round" stroke-linejoin="round"/>
<path d="M385.872 330.793V338.788" stroke="#2E353A" stroke-width="0.887535" stroke-linecap="round" stroke-linejoin="round"/>
<path d="M406.444 330.793V338.788" stroke="#2E353A" stroke-width="0.887535" stroke-linecap="round" stroke-linejoin="round"/>
<path d="M370.155 330.793H411.297" stroke="#2E353A" stroke-width="0.887535" stroke-linecap="round" stroke-linejoin="round"/>
<path d="M414.628 247.073V255.083" stroke="#2E353A" stroke-width="0.887535" stroke-linecap="round" stroke-linejoin="round"/>
<path d="M432.64 247.073V255.083" stroke="#2E353A" stroke-width="0.887535" stroke-linecap="round" stroke-linejoin="round"/>
<path d="M422.365 255.083V263.078" stroke="#2E353A" stroke-width="0.887535" stroke-linecap="round" stroke-linejoin="round"/>
<path d="M442.936 255.083V263.078" stroke="#2E353A" stroke-width="0.887535" stroke-linecap="round" stroke-linejoin="round"/>
<path d="M406.647 255.083H447.789" stroke="#2E353A" stroke-width="0.887535" stroke-linecap="round" stroke-linejoin="round"/>
<path d="M414.628 263.078H447.789" stroke="#2E353A" stroke-width="0.887535" stroke-linecap="round" stroke-linejoin="round"/>
<path d="M414.628 263.37V271.364" stroke="#2E353A" stroke-width="0.887535" stroke-linecap="round" stroke-linejoin="round"/>
<path d="M432.64 263.37V271.364" stroke="#2E353A" stroke-width="0.887535" stroke-linecap="round" stroke-linejoin="round"/>
<path d="M422.365 271.364V279.358" stroke="#2E353A" stroke-width="0.887535" stroke-linecap="round" stroke-linejoin="round"/>
<path d="M442.936 271.364V279.358" stroke="#2E353A" stroke-width="0.887535" stroke-linecap="round" stroke-linejoin="round"/>
<path d="M406.647 271.364H447.789" stroke="#2E353A" stroke-width="0.887535" stroke-linecap="round" stroke-linejoin="round"/>
<path d="M504.346 300.421V308.415" stroke="#2E353A" stroke-width="0.887535" stroke-linecap="round" stroke-linejoin="round"/>
<path d="M522.359 300.421V308.415" stroke="#2E353A" stroke-width="0.887535" stroke-linecap="round" stroke-linejoin="round"/>
<path d="M512.083 308.416V316.41" stroke="#2E353A" stroke-width="0.887535" stroke-linecap="round" stroke-linejoin="round"/>
<path d="M532.654 308.416V316.41" stroke="#2E353A" stroke-width="0.887535" stroke-linecap="round" stroke-linejoin="round"/>
<path d="M496.365 308.416H537.508" stroke="#2E353A" stroke-width="0.887535" stroke-linecap="round" stroke-linejoin="round"/>
<path d="M504.346 316.41H537.508" stroke="#2E353A" stroke-width="0.887535" stroke-linecap="round" stroke-linejoin="round"/>
<path d="M504.346 316.718V324.713" stroke="#2E353A" stroke-width="0.887535" stroke-linecap="round" stroke-linejoin="round"/>
<path d="M522.359 316.718V324.713" stroke="#2E353A" stroke-width="0.887535" stroke-linecap="round" stroke-linejoin="round"/>
<path d="M512.083 324.712V332.707" stroke="#2E353A" stroke-width="0.887535" stroke-linecap="round" stroke-linejoin="round"/>
<path d="M532.654 324.712V332.707" stroke="#2E353A" stroke-width="0.887535" stroke-linecap="round" stroke-linejoin="round"/>
<path d="M496.365 324.712H537.508" stroke="#2E353A" stroke-width="0.887535" stroke-linecap="round" stroke-linejoin="round"/>
<path d="M21.2738 449.214C61.1981 462.398 163.791 448.128 153.272 463.5C142.753 478.872 62.3963 473.1 39.5505 489.721C16.7047 506.341 120.638 505.012 116.962 510.055C113.287 515.098 21.8424 518.552 27.8534 525.346H644.02C645.015 520.027 637.928 513.574 626.352 509.13C534.604 506.131 223.698 495.137 256.271 484.515C294.449 472.094 419.095 459.673 441.88 449.944C464.665 440.215 363.737 439.128 346.842 434.815C341.399 433.42 340.75 432.058 342.516 430.875L345.42 431.021V429.545C350.035 428.21 354.793 427.217 359.635 426.578H345.42V423.772L343.389 424.794L339.917 426.578H338.8C340.223 423.066 341.189 419.447 341.684 415.778C342.476 409.438 331.327 423.772 331.327 423.772C331.327 423.772 332.911 418.908 331.327 415.778C329.743 412.648 324.95 420.01 324.95 420.01C324.95 420.01 330.535 402.416 324.95 390.985C319.366 379.553 313.071 420.01 313.071 420.01C313.071 420.01 312.218 404.314 305.049 404.006C299.241 403.746 302.836 414.416 304.42 418.47C303.191 416.195 301.378 414.151 299.099 412.47C293.961 408.546 299.099 421.535 299.099 421.535C299.099 421.535 297.068 417.675 283.645 415.778C270.222 413.881 289.128 424.178 289.128 424.178C283.309 422.844 277.405 421.762 271.44 420.935C268.476 420.545 268.232 421.129 269.207 422.102L267.277 423.091L261.063 426.334C263.099 421.573 264.461 416.646 265.125 411.643C266.14 403.535 251.945 421.826 251.945 421.826C251.945 421.826 253.976 415.681 251.945 411.643C249.915 407.605 243.822 417.027 243.822 417.027C243.822 417.027 250.93 394.633 243.822 380.072C236.715 365.51 228.693 417.027 228.693 417.027C228.693 417.027 227.597 397.065 218.54 396.66C211.168 396.336 215.697 409.811 217.727 415.016C216.165 412.145 213.868 409.565 210.985 407.443C204.426 402.449 210.985 418.973 210.985 418.973C210.985 418.973 208.406 414.108 191.307 411.643C174.209 409.178 198.273 422.345 198.273 422.345C190.865 420.649 183.347 419.274 175.752 418.227C164.38 416.735 184.403 426.61 184.403 426.61H33.4583C33.4583 426.61 -18.6099 436.047 21.2738 449.214ZM269.877 422.751C271.914 424.191 274.094 425.498 276.395 426.659H269.877V422.751Z" fill="#2E353A"/>
<path d="M513.87 451.176C490.801 459.706 433.514 468.656 433.514 468.656C424.396 469.646 436.743 478.97 500.061 474.348L608.421 426.626H400.778C407.723 429.48 457.192 436.063 485.338 436.063C513.484 436.063 536.939 442.631 513.87 451.176Z" fill="#2E353A"/>
<path d="M679.761 426.626H720.7C700.149 425.993 679.761 426.626 679.761 426.626Z" fill="#2E353A"/>
<path d="M747.303 428.523L650.051 478.564C662.378 478.191 675.273 477.948 687.762 477.705C741.637 476.667 722.081 458.003 725.737 451.42C729.392 444.836 759.975 445.923 762.412 434.945C763.102 431.831 756.746 429.821 747.303 428.523Z" fill="#2E353A"/>
<g opacity="0.3">
<path d="M21.2738 449.214C61.1981 462.398 163.791 448.128 153.272 463.5C142.753 478.872 62.3963 473.1 39.5505 489.721C16.7047 506.341 120.638 505.012 116.962 510.055C113.287 515.098 21.8424 518.552 27.8534 525.346H644.02C645.015 520.027 637.928 513.574 626.352 509.13C534.604 506.131 223.698 495.137 256.271 484.515C294.449 472.094 419.095 459.673 441.88 449.944C464.665 440.215 363.737 439.128 346.842 434.815C341.399 433.42 340.75 432.058 342.516 430.875L345.42 431.021V429.545C350.035 428.21 354.793 427.217 359.635 426.578H345.42V423.772L343.389 424.794L339.917 426.578H338.8C340.223 423.066 341.189 419.447 341.684 415.778C342.476 409.438 331.327 423.772 331.327 423.772C331.327 423.772 332.911 418.908 331.327 415.778C329.743 412.648 324.95 420.01 324.95 420.01C324.95 420.01 330.535 402.416 324.95 390.985C319.366 379.553 313.071 420.01 313.071 420.01C313.071 420.01 312.218 404.314 305.049 404.006C299.241 403.746 302.836 414.416 304.42 418.47C303.191 416.195 301.378 414.151 299.099 412.47C293.961 408.546 299.099 421.535 299.099 421.535C299.099 421.535 297.068 417.675 283.645 415.778C270.222 413.881 289.128 424.178 289.128 424.178C283.309 422.844 277.405 421.762 271.44 420.935C268.476 420.545 268.232 421.129 269.207 422.102L267.277 423.091L261.063 426.334C263.099 421.573 264.461 416.646 265.125 411.643C266.14 403.535 251.945 421.826 251.945 421.826C251.945 421.826 253.976 415.681 251.945 411.643C249.915 407.605 243.822 417.027 243.822 417.027C243.822 417.027 250.93 394.633 243.822 380.072C236.715 365.51 228.693 417.027 228.693 417.027C228.693 417.027 227.597 397.065 218.54 396.66C211.168 396.336 215.697 409.811 217.727 415.016C216.165 412.145 213.868 409.565 210.985 407.443C204.426 402.449 210.985 418.973 210.985 418.973C210.985 418.973 208.406 414.108 191.307 411.643C174.209 409.178 198.273 422.345 198.273 422.345C190.865 420.649 183.347 419.274 175.752 418.227C164.38 416.735 184.403 426.61 184.403 426.61H33.4583C33.4583 426.61 -18.6099 436.047 21.2738 449.214ZM269.877 422.751C271.914 424.191 274.094 425.498 276.395 426.659H269.877V422.751Z" fill="white"/>
<path d="M513.87 451.176C490.801 459.706 433.514 468.656 433.514 468.656C424.396 469.646 436.743 478.97 500.061 474.348L608.421 426.626H400.778C407.723 429.48 457.192 436.063 485.338 436.063C513.484 436.063 536.939 442.631 513.87 451.176Z" fill="white"/>
<path d="M679.761 426.626H720.7C700.149 425.993 679.761 426.626 679.761 426.626Z" fill="white"/>
<path d="M747.303 428.523L650.051 478.564C662.378 478.191 675.273 477.948 687.762 477.705C741.637 476.667 722.081 458.003 725.737 451.42C729.392 444.836 759.975 445.923 762.412 434.945C763.102 431.831 756.746 429.821 747.303 428.523Z" fill="white"/>
</g>
<path d="M151.871 153.898V284.692H390.137V153.898H151.871ZM174.006 169.968C172.704 169.968 171.432 169.66 170.35 169.083C169.268 168.505 168.425 167.685 167.927 166.725C167.429 165.765 167.299 164.708 167.553 163.689C167.806 162.67 168.433 161.734 169.353 160.999C170.273 160.264 171.446 159.764 172.722 159.561C173.998 159.359 175.321 159.463 176.524 159.86C177.726 160.258 178.754 160.931 179.476 161.795C180.199 162.659 180.585 163.675 180.585 164.714C180.585 166.108 179.892 167.444 178.658 168.429C177.424 169.414 175.751 169.968 174.006 169.968ZM367.779 169.968C366.477 169.968 365.205 169.66 364.123 169.083C363.041 168.505 362.198 167.685 361.7 166.725C361.202 165.765 361.072 164.708 361.326 163.689C361.579 162.67 362.206 161.734 363.126 160.999C364.046 160.264 365.219 159.764 366.495 159.561C367.771 159.359 369.094 159.463 370.297 159.86C371.499 160.258 372.526 160.931 373.249 161.795C373.972 162.659 374.358 163.675 374.358 164.714C374.353 166.106 373.658 167.44 372.425 168.424C371.193 169.409 369.522 169.964 367.779 169.968Z" fill="#80BBFF" stroke="#2E353A" stroke-miterlimit="10"/>
<path d="M374.358 164.714C374.358 165.753 373.972 166.769 373.249 167.633C372.526 168.497 371.499 169.171 370.297 169.568C369.094 169.966 367.771 170.07 366.495 169.867C365.219 169.664 364.046 169.164 363.126 168.429C362.206 167.695 361.579 166.758 361.325 165.739C361.072 164.72 361.202 163.664 361.7 162.704C362.198 161.744 363.041 160.923 364.123 160.346C365.205 159.769 366.477 159.46 367.779 159.46H174.006C175.307 159.46 176.579 159.769 177.661 160.346C178.743 160.923 179.586 161.744 180.084 162.704C180.582 163.664 180.713 164.72 180.459 165.739C180.205 166.758 179.578 167.695 178.658 168.429C177.738 169.164 176.566 169.664 175.289 169.867C174.013 170.07 172.69 169.966 171.488 169.568C170.285 169.171 169.258 168.497 168.535 167.633C167.812 166.769 167.426 165.753 167.426 164.714C167.426 163.321 168.119 161.985 169.353 160.999C170.587 160.014 172.261 159.46 174.006 159.46H158.734V277.477H381.019V159.46H367.779C369.524 159.46 371.197 160.014 372.431 160.999C373.665 161.985 374.358 163.321 374.358 164.714Z" fill="#2E353A"/>
<path d="M174.006 103.306C172.115 103.309 170.268 103.76 168.697 104.601C167.127 105.442 165.904 106.636 165.183 108.032C164.463 109.428 164.276 110.963 164.647 112.444C165.019 113.924 165.931 115.283 167.27 116.35C168.608 117.416 170.313 118.142 172.167 118.436C174.022 118.729 175.944 118.577 177.691 117.998C179.437 117.42 180.93 116.441 181.98 115.185C183.03 113.93 183.591 112.454 183.591 110.944C183.591 109.939 183.343 108.945 182.861 108.017C182.379 107.089 181.672 106.247 180.782 105.537C179.892 104.828 178.835 104.266 177.672 103.883C176.509 103.5 175.263 103.304 174.006 103.306ZM174.006 116.035C172.745 116.032 171.515 115.731 170.469 115.169C169.423 114.608 168.609 113.812 168.129 112.881C167.65 111.95 167.526 110.927 167.774 109.94C168.023 108.954 168.632 108.048 169.524 107.338C170.417 106.627 171.553 106.144 172.789 105.949C174.026 105.754 175.307 105.855 176.471 106.241C177.635 106.627 178.629 107.28 179.329 108.117C180.029 108.954 180.402 109.937 180.402 110.944C180.408 111.617 180.246 112.285 179.927 112.908C179.608 113.532 179.138 114.099 178.543 114.576C177.949 115.054 177.242 115.433 176.463 115.692C175.684 115.951 174.849 116.084 174.006 116.084V116.035Z" fill="white" stroke="#2E353A" stroke-width="0.916642" stroke-linecap="round" stroke-linejoin="round"/>
<path d="M174.005 121.646C172.109 121.646 170.255 122.095 168.678 122.937C167.101 123.778 165.873 124.975 165.148 126.374C164.423 127.774 164.234 129.313 164.606 130.798C164.977 132.283 165.892 133.647 167.235 134.717C168.577 135.787 170.287 136.514 172.148 136.808C174.009 137.101 175.936 136.947 177.688 136.366C179.439 135.784 180.934 134.8 181.985 133.54C183.036 132.279 183.594 130.797 183.59 129.283C183.59 128.279 183.342 127.284 182.86 126.357C182.378 125.429 181.672 124.586 180.782 123.877C179.891 123.167 178.835 122.605 177.672 122.222C176.509 121.839 175.263 121.643 174.005 121.646ZM174.005 134.391C172.74 134.391 171.503 134.091 170.451 133.53C169.4 132.969 168.58 132.171 168.095 131.238C167.611 130.304 167.485 129.277 167.731 128.287C167.978 127.296 168.588 126.386 169.482 125.671C170.377 124.957 171.517 124.47 172.757 124.273C173.998 124.076 175.284 124.177 176.453 124.564C177.622 124.951 178.621 125.605 179.324 126.445C180.027 127.285 180.402 128.273 180.402 129.283C180.402 130.638 179.728 131.937 178.529 132.895C177.329 133.853 175.702 134.391 174.005 134.391Z" fill="white" stroke="#2E353A" stroke-width="0.916642" stroke-linecap="round" stroke-linejoin="round"/>
<path d="M174.006 137.812C172.115 137.815 170.268 138.266 168.697 139.107C167.127 139.948 165.904 141.142 165.183 142.538C164.463 143.934 164.276 145.469 164.647 146.949C165.019 148.43 165.931 149.789 167.27 150.856C168.608 151.922 170.313 152.648 172.167 152.941C174.022 153.235 175.944 153.083 177.691 152.504C179.437 151.926 180.93 150.947 181.98 149.691C183.03 148.435 183.591 146.959 183.591 145.45C183.591 144.445 183.343 143.451 182.861 142.523C182.379 141.595 181.672 140.753 180.782 140.043C179.892 139.334 178.835 138.772 177.672 138.389C176.509 138.006 175.263 137.81 174.006 137.812ZM174.006 150.541C172.745 150.538 171.515 150.237 170.469 149.675C169.423 149.114 168.609 148.317 168.129 147.387C167.65 146.456 167.526 145.433 167.774 144.446C168.023 143.46 168.632 142.554 169.524 141.843C170.417 141.133 171.553 140.65 172.789 140.455C174.026 140.259 175.307 140.361 176.471 140.747C177.635 141.133 178.629 141.785 179.329 142.622C180.029 143.459 180.402 144.443 180.402 145.45C180.397 146.801 179.721 148.096 178.522 149.051C177.323 150.005 175.699 150.541 174.006 150.541Z" fill="white" stroke="#2E353A" stroke-width="0.916642" stroke-linecap="round" stroke-linejoin="round"/>
<path d="M174.005 128.456C173.558 128.456 173.13 128.314 172.814 128.062C172.497 127.81 172.32 127.467 172.32 127.11V114.511C172.32 114.154 172.497 113.812 172.814 113.559C173.13 113.307 173.558 113.165 174.005 113.165C174.454 113.165 174.885 113.306 175.204 113.558C175.524 113.81 175.706 114.152 175.711 114.511V127.11C175.706 127.469 175.524 127.811 175.204 128.063C174.885 128.315 174.454 128.456 174.005 128.456Z" fill="white" stroke="#2E353A" stroke-width="0.916642" stroke-linecap="round" stroke-linejoin="round"/>
<path d="M174.005 145.791C173.558 145.791 173.13 145.649 172.814 145.397C172.497 145.145 172.32 144.802 172.32 144.445V131.846C172.32 131.489 172.497 131.147 172.814 130.894C173.13 130.642 173.558 130.5 174.005 130.5C174.454 130.5 174.885 130.641 175.204 130.893C175.524 131.145 175.706 131.487 175.711 131.846V144.445C175.706 144.804 175.524 145.146 175.204 145.398C174.885 145.65 174.454 145.791 174.005 145.791Z" fill="white" stroke="#2E353A" stroke-width="0.916642" stroke-linecap="round" stroke-linejoin="round"/>
<path d="M174.005 163.157C173.558 163.157 173.13 163.016 172.814 162.763C172.497 162.511 172.32 162.168 172.32 161.812V149.212C172.32 149.035 172.363 148.86 172.448 148.697C172.533 148.534 172.657 148.385 172.814 148.26C172.97 148.135 173.156 148.036 173.36 147.969C173.565 147.901 173.784 147.866 174.005 147.866C174.454 147.866 174.885 148.007 175.204 148.259C175.524 148.511 175.706 148.854 175.711 149.212V161.812C175.706 162.17 175.524 162.512 175.204 162.764C174.885 163.016 174.454 163.157 174.005 163.157Z" fill="white" stroke="#2E353A" stroke-width="0.916642" stroke-linecap="round" stroke-linejoin="round"/>
<path d="M367.778 103.306C365.888 103.309 364.04 103.76 362.47 104.601C360.9 105.442 359.677 106.636 358.956 108.032C358.235 109.428 358.049 110.963 358.42 112.444C358.792 113.924 359.704 115.283 361.043 116.35C362.381 117.416 364.085 118.142 365.94 118.436C367.795 118.729 369.717 118.577 371.464 117.998C373.21 117.42 374.703 116.441 375.753 115.185C376.803 113.93 377.364 112.454 377.364 110.944C377.364 109.939 377.115 108.945 376.634 108.017C376.152 107.089 375.445 106.247 374.555 105.537C373.665 104.828 372.608 104.266 371.445 103.883C370.282 103.5 369.036 103.304 367.778 103.306ZM367.778 116.035C366.518 116.032 365.287 115.731 364.241 115.169C363.195 114.608 362.381 113.812 361.902 112.881C361.422 111.95 361.299 110.927 361.547 109.94C361.796 108.954 362.405 108.048 363.297 107.338C364.19 106.627 365.326 106.144 366.562 105.949C367.799 105.754 369.08 105.855 370.244 106.241C371.408 106.627 372.402 107.28 373.102 108.117C373.802 108.954 374.175 109.937 374.175 110.944C374.181 111.617 374.019 112.285 373.7 112.908C373.381 113.532 372.911 114.099 372.316 114.576C371.722 115.054 371.015 115.433 370.236 115.692C369.457 115.951 368.622 116.084 367.778 116.084V116.035Z" fill="white" stroke="#2E353A" stroke-width="0.916642" stroke-linecap="round" stroke-linejoin="round"/>
<path d="M367.779 121.646C365.882 121.646 364.028 122.095 362.451 122.937C360.875 123.778 359.646 124.975 358.921 126.374C358.196 127.774 358.008 129.313 358.379 130.798C358.751 132.283 359.666 133.647 361.008 134.717C362.351 135.787 364.06 136.514 365.921 136.808C367.782 137.101 369.71 136.947 371.461 136.366C373.212 135.784 374.707 134.8 375.758 133.54C376.809 132.279 377.368 130.797 377.364 129.283C377.364 128.279 377.116 127.284 376.634 126.357C376.152 125.429 375.445 124.586 374.555 123.877C373.665 123.167 372.608 122.605 371.445 122.222C370.282 121.839 369.036 121.643 367.779 121.646ZM367.779 134.391C366.513 134.391 365.277 134.091 364.225 133.53C363.173 132.969 362.353 132.171 361.869 131.238C361.384 130.304 361.258 129.277 361.505 128.287C361.751 127.296 362.361 126.386 363.255 125.671C364.15 124.957 365.29 124.47 366.531 124.273C367.771 124.076 369.058 124.177 370.227 124.564C371.395 124.951 372.394 125.605 373.097 126.445C373.8 127.285 374.175 128.273 374.175 129.283C374.175 129.954 374.01 130.618 373.688 131.238C373.367 131.857 372.896 132.421 372.302 132.895C371.708 133.369 371.003 133.745 370.227 134.002C369.45 134.259 368.619 134.391 367.779 134.391Z" fill="white" stroke="#2E353A" stroke-width="0.916642" stroke-linecap="round" stroke-linejoin="round"/>
<path d="M367.778 137.812C365.888 137.815 364.04 138.266 362.47 139.107C360.9 139.948 359.677 141.142 358.956 142.538C358.235 143.934 358.049 145.469 358.42 146.949C358.792 148.43 359.704 149.789 361.043 150.856C362.381 151.922 364.085 152.648 365.94 152.941C367.795 153.235 369.717 153.083 371.464 152.504C373.21 151.926 374.703 150.947 375.753 149.691C376.803 148.435 377.364 146.959 377.364 145.45C377.364 144.445 377.115 143.451 376.634 142.523C376.152 141.595 375.445 140.753 374.555 140.043C373.665 139.334 372.608 138.772 371.445 138.389C370.282 138.006 369.036 137.81 367.778 137.812ZM367.778 150.541C366.518 150.538 365.287 150.237 364.241 149.675C363.195 149.114 362.381 148.317 361.902 147.387C361.422 146.456 361.299 145.433 361.547 144.446C361.796 143.46 362.405 142.554 363.297 141.843C364.19 141.133 365.326 140.65 366.562 140.455C367.799 140.259 369.08 140.361 370.244 140.747C371.408 141.133 372.402 141.785 373.102 142.622C373.802 143.459 374.175 144.443 374.175 145.45C374.17 146.801 373.494 148.096 372.295 149.051C371.095 150.005 369.472 150.541 367.778 150.541Z" fill="white" stroke="#2E353A" stroke-width="0.916642" stroke-linecap="round" stroke-linejoin="round"/>
<path d="M367.779 128.456C367.332 128.456 366.903 128.314 366.587 128.062C366.271 127.81 366.093 127.467 366.093 127.11V114.511C366.093 114.154 366.271 113.812 366.587 113.559C366.903 113.307 367.332 113.165 367.779 113.165C368.228 113.165 368.659 113.306 368.978 113.558C369.297 113.81 369.479 114.152 369.485 114.511V127.11C369.479 127.469 369.297 127.811 368.978 128.063C368.659 128.315 368.228 128.456 367.779 128.456Z" fill="white" stroke="#2E353A" stroke-width="0.916642" stroke-linecap="round" stroke-linejoin="round"/>
<path d="M367.779 145.791C367.332 145.791 366.903 145.649 366.587 145.397C366.271 145.145 366.093 144.802 366.093 144.445V131.846C366.093 131.489 366.271 131.147 366.587 130.894C366.903 130.642 367.332 130.5 367.779 130.5C368.228 130.5 368.659 130.641 368.978 130.893C369.297 131.145 369.479 131.487 369.485 131.846V144.445C369.479 144.804 369.297 145.146 368.978 145.398C368.659 145.65 368.228 145.791 367.779 145.791Z" fill="white" stroke="#2E353A" stroke-width="0.916642" stroke-linecap="round" stroke-linejoin="round"/>
<path d="M367.779 163.157C367.332 163.157 366.903 163.016 366.587 162.763C366.271 162.511 366.093 162.168 366.093 161.812V149.212C366.093 149.035 366.137 148.86 366.222 148.697C366.306 148.534 366.43 148.385 366.587 148.26C366.743 148.135 366.929 148.036 367.134 147.969C367.338 147.901 367.557 147.866 367.779 147.866C368.228 147.866 368.659 148.007 368.978 148.259C369.297 148.511 369.479 148.854 369.485 149.212V161.812C369.479 162.17 369.297 162.512 368.978 162.764C368.659 163.016 368.228 163.157 367.779 163.157Z" fill="white" stroke="#2E353A" stroke-width="0.916642" stroke-linecap="round" stroke-linejoin="round"/>
<path d="M417.247 107.344H45.1349L33.4379 81.5288H442.936L417.247 107.344Z" fill="#2E353A" stroke="#2E353A" stroke-width="0.887535" stroke-linecap="round" stroke-linejoin="round"/>
<path d="M407.764 107.344H35.6515L23.9545 81.5288H433.473L407.764 107.344Z" fill="white" stroke="#2E353A" stroke-width="0.887535" stroke-linecap="round" stroke-linejoin="round"/>
<path d="M104.717 517.4H74.2766L83.4759 10.002H88.8776L104.717 27.9525V517.4Z" fill="#2E353A" stroke="#2E353A" stroke-width="0.887535" stroke-linecap="round" stroke-linejoin="round"/>
<path d="M99.2946 517.4H68.8539V27.9525L83.4752 10.002L99.2946 27.9525V517.4Z" fill="white" stroke="#2E353A" stroke-width="0.887535" stroke-linecap="round" stroke-linejoin="round"/>
<path d="M74.2766 517.4V486.186" stroke="#2E353A" stroke-width="0.887535" stroke-linecap="round" stroke-linejoin="round"/>
<path d="M79.5968 517.401V403.39" stroke="#2E353A" stroke-width="0.887535" stroke-linecap="round" stroke-linejoin="round"/>
<path d="M74.2766 481.451V470.1" stroke="#2E353A" stroke-width="0.887535" stroke-linecap="round" stroke-linejoin="round"/>
<path d="M89.4865 316.442V305.091" stroke="#2E353A" stroke-width="0.887535" stroke-linecap="round" stroke-linejoin="round"/>
<path d="M74.2766 32.8015V21.4507" stroke="#2E353A" stroke-width="0.887535" stroke-linecap="round" stroke-linejoin="round"/>
<path d="M74.2766 47.7517V36.4009" stroke="#2E353A" stroke-width="0.887535" stroke-linecap="round" stroke-linejoin="round"/>
<path d="M89.4865 388.406V329.187" stroke="#2E353A" stroke-width="0.887535" stroke-linecap="round" stroke-linejoin="round"/>
<path d="M26.9398 86.9126H37.6012" stroke="#2E353A" stroke-width="0.887535" stroke-linecap="round" stroke-linejoin="round"/>
<path d="M31.6709 91.1772H57.1566" stroke="#2E353A" stroke-width="0.887535" stroke-linecap="round" stroke-linejoin="round"/>
<path d="M126.405 91.1772H151.871" stroke="#2E353A" stroke-width="0.887535" stroke-linecap="round" stroke-linejoin="round"/>
<path d="M139.138 95.9116H148.093" stroke="#2E353A" stroke-width="0.887535" stroke-linecap="round" stroke-linejoin="round"/>
<path d="M184.362 95.9116H237.527" stroke="#2E353A" stroke-width="0.887535" stroke-linecap="round" stroke-linejoin="round"/>
<path d="M419.725 95.9116H410.83" stroke="#2E353A" stroke-width="0.887535" stroke-linecap="round" stroke-linejoin="round"/>
<path d="M415.562 99.2197H385.365" stroke="#2E353A" stroke-width="0.887535" stroke-linecap="round" stroke-linejoin="round"/>
<path d="M7.0586 524.908H26.9801C26.9801 524.908 -9.1873 499.158 7.0586 501.785C23.3045 504.412 37.5197 513.557 37.5197 513.557C37.5197 513.557 18.3089 499.126 31.5899 501.753C44.8709 504.38 44.3226 508.725 44.3226 508.725C44.3226 508.725 45.3583 477.543 57.0757 486.153C63.8779 490.902 68.0774 497.591 68.7727 504.785C68.7727 504.785 93.8117 480.056 99.2338 481.418C104.656 482.78 104.656 497.91 104.656 497.91C104.656 497.91 146.712 470.538 139.077 486.153C131.441 501.769 126.344 507.639 126.344 507.639C126.344 507.639 146.083 493.71 143.565 501.753C142.489 505.634 140.988 509.433 139.077 513.103C139.077 513.103 168.766 520.53 164.38 520.514C159.993 520.498 151.81 525.006 151.81 525.006C151.81 525.006 201.948 518.519 192.424 525.006C182.9 531.492 104.615 530.405 104.615 530.405C104.615 530.405 142.854 537.881 126.405 537.881C109.956 537.881 84.0845 532.465 84.0845 532.465C84.0845 532.465 45.5005 538.951 31.6711 537.881C17.8418 536.81 57.1569 532.465 57.1569 532.465C57.1569 532.465 -17.6555 532.53 7.0586 524.908Z" fill="#2E353A" stroke="#2E353A" stroke-width="0.916642" stroke-linecap="round" stroke-linejoin="round"/>
</g>
<g filter="url(#filter0_d_1_273)">
<path d="M238.461 183.784L231.261 207H226.925L222.173 191.816C222.098 191.603 222.024 191.368 221.949 191.112C221.874 190.856 221.805 190.584 221.741 190.296C221.677 190.584 221.608 190.856 221.533 191.112C221.458 191.368 221.384 191.603 221.309 191.816L216.509 207H212.157L204.973 183.784H209.005C209.421 183.784 209.768 183.88 210.045 184.072C210.333 184.264 210.52 184.52 210.605 184.84L214.205 197.928C214.29 198.291 214.376 198.685 214.461 199.112C214.557 199.528 214.648 199.971 214.733 200.44C214.829 199.96 214.93 199.512 215.037 199.096C215.144 198.68 215.261 198.291 215.389 197.928L219.581 184.84C219.666 184.573 219.848 184.333 220.125 184.12C220.413 183.896 220.76 183.784 221.165 183.784H222.573C222.989 183.784 223.325 183.885 223.581 184.088C223.848 184.28 224.045 184.531 224.173 184.84L228.349 197.928C228.477 198.269 228.594 198.643 228.701 199.048C228.808 199.443 228.909 199.864 229.005 200.312C229.09 199.864 229.17 199.443 229.245 199.048C229.33 198.643 229.416 198.269 229.501 197.928L233.101 184.84C233.176 184.563 233.357 184.317 233.645 184.104C233.933 183.891 234.28 183.784 234.685 183.784H238.461ZM248.897 196.808C248.897 196.349 248.833 195.912 248.705 195.496C248.588 195.08 248.396 194.712 248.129 194.392C247.863 194.072 247.527 193.821 247.121 193.64C246.716 193.448 246.231 193.352 245.665 193.352C244.609 193.352 243.783 193.651 243.185 194.248C242.588 194.845 242.199 195.699 242.017 196.808H248.897ZM241.953 199.432C242.092 200.979 242.529 202.109 243.265 202.824C244.012 203.539 244.983 203.896 246.177 203.896C246.785 203.896 247.308 203.827 247.745 203.688C248.193 203.539 248.583 203.379 248.913 203.208C249.255 203.027 249.559 202.867 249.825 202.728C250.103 202.579 250.375 202.504 250.641 202.504C250.983 202.504 251.249 202.632 251.441 202.888L252.721 204.488C252.252 205.032 251.735 205.485 251.169 205.848C250.604 206.2 250.017 206.483 249.409 206.696C248.801 206.899 248.188 207.037 247.569 207.112C246.951 207.197 246.353 207.24 245.777 207.24C244.625 207.24 243.548 207.053 242.545 206.68C241.553 206.296 240.684 205.736 239.937 205C239.201 204.253 238.62 203.331 238.193 202.232C237.767 201.133 237.553 199.859 237.553 198.408C237.553 197.288 237.735 196.232 238.097 195.24C238.471 194.248 239.004 193.384 239.697 192.648C240.391 191.912 241.233 191.331 242.225 190.904C243.217 190.467 244.337 190.248 245.585 190.248C246.641 190.248 247.612 190.419 248.497 190.76C249.393 191.091 250.161 191.576 250.801 192.216C251.452 192.856 251.953 193.645 252.305 194.584C252.668 195.512 252.849 196.573 252.849 197.768C252.849 198.099 252.833 198.371 252.801 198.584C252.769 198.797 252.716 198.968 252.641 199.096C252.567 199.224 252.465 199.315 252.337 199.368C252.209 199.411 252.044 199.432 251.841 199.432H241.953ZM283.679 183.784V207H281.199C280.826 207 280.511 206.941 280.255 206.824C279.999 206.696 279.749 206.483 279.503 206.184L267.935 191.464C267.967 191.837 267.989 192.205 267.999 192.568C268.021 192.931 268.031 193.267 268.031 193.576V207H263.791V183.784H266.319C266.522 183.784 266.693 183.795 266.831 183.816C266.981 183.827 267.114 183.864 267.231 183.928C267.349 183.981 267.461 184.056 267.567 184.152C267.674 184.248 267.791 184.376 267.919 184.536L279.567 199.32C279.525 198.915 279.493 198.525 279.471 198.152C279.45 197.768 279.439 197.405 279.439 197.064V183.784H283.679ZM297.897 196.808C297.897 196.349 297.833 195.912 297.705 195.496C297.588 195.08 297.396 194.712 297.129 194.392C296.863 194.072 296.527 193.821 296.121 193.64C295.716 193.448 295.231 193.352 294.665 193.352C293.609 193.352 292.783 193.651 292.185 194.248C291.588 194.845 291.199 195.699 291.017 196.808H297.897ZM290.953 199.432C291.092 200.979 291.529 202.109 292.265 202.824C293.012 203.539 293.983 203.896 295.177 203.896C295.785 203.896 296.308 203.827 296.745 203.688C297.193 203.539 297.583 203.379 297.913 203.208C298.255 203.027 298.559 202.867 298.825 202.728C299.103 202.579 299.375 202.504 299.641 202.504C299.983 202.504 300.249 202.632 300.441 202.888L301.721 204.488C301.252 205.032 300.735 205.485 300.169 205.848C299.604 206.2 299.017 206.483 298.409 206.696C297.801 206.899 297.188 207.037 296.569 207.112C295.951 207.197 295.353 207.24 294.777 207.24C293.625 207.24 292.548 207.053 291.545 206.68C290.553 206.296 289.684 205.736 288.937 205C288.201 204.253 287.62 203.331 287.193 202.232C286.767 201.133 286.553 199.859 286.553 198.408C286.553 197.288 286.735 196.232 287.097 195.24C287.471 194.248 288.004 193.384 288.697 192.648C289.391 191.912 290.233 191.331 291.225 190.904C292.217 190.467 293.337 190.248 294.585 190.248C295.641 190.248 296.612 190.419 297.497 190.76C298.393 191.091 299.161 191.576 299.801 192.216C300.452 192.856 300.953 193.645 301.305 194.584C301.668 195.512 301.849 196.573 301.849 197.768C301.849 198.099 301.833 198.371 301.801 198.584C301.769 198.797 301.716 198.968 301.641 199.096C301.567 199.224 301.465 199.315 301.337 199.368C301.209 199.411 301.044 199.432 300.841 199.432H290.953ZM315.054 196.808C315.054 196.349 314.99 195.912 314.862 195.496C314.744 195.08 314.552 194.712 314.286 194.392C314.019 194.072 313.683 193.821 313.278 193.64C312.872 193.448 312.387 193.352 311.822 193.352C310.766 193.352 309.939 193.651 309.342 194.248C308.744 194.845 308.355 195.699 308.174 196.808H315.054ZM308.11 199.432C308.248 200.979 308.686 202.109 309.422 202.824C310.168 203.539 311.139 203.896 312.334 203.896C312.942 203.896 313.464 203.827 313.902 203.688C314.35 203.539 314.739 203.379 315.07 203.208C315.411 203.027 315.715 202.867 315.982 202.728C316.259 202.579 316.531 202.504 316.798 202.504C317.139 202.504 317.406 202.632 317.598 202.888L318.878 204.488C318.408 205.032 317.891 205.485 317.326 205.848C316.76 206.2 316.174 206.483 315.566 206.696C314.958 206.899 314.344 207.037 313.726 207.112C313.107 207.197 312.51 207.24 311.934 207.24C310.782 207.24 309.704 207.053 308.702 206.68C307.71 206.296 306.84 205.736 306.094 205C305.358 204.253 304.776 203.331 304.35 202.232C303.923 201.133 303.71 199.859 303.71 198.408C303.71 197.288 303.891 196.232 304.254 195.24C304.627 194.248 305.16 193.384 305.854 192.648C306.547 191.912 307.39 191.331 308.382 190.904C309.374 190.467 310.494 190.248 311.742 190.248C312.798 190.248 313.768 190.419 314.654 190.76C315.55 191.091 316.318 191.576 316.958 192.216C317.608 192.856 318.11 193.645 318.462 194.584C318.824 195.512 319.006 196.573 319.006 197.768C319.006 198.099 318.99 198.371 318.958 198.584C318.926 198.797 318.872 198.968 318.798 199.096C318.723 199.224 318.622 199.315 318.494 199.368C318.366 199.411 318.2 199.432 317.998 199.432H308.11ZM331.938 194.792C331.522 194.312 331.069 193.976 330.578 193.784C330.098 193.592 329.586 193.496 329.042 193.496C328.509 193.496 328.023 193.597 327.586 193.8C327.149 194.003 326.77 194.323 326.45 194.76C326.141 195.187 325.901 195.736 325.73 196.408C325.559 197.08 325.474 197.88 325.474 198.808C325.474 199.725 325.543 200.504 325.682 201.144C325.821 201.784 326.018 202.301 326.274 202.696C326.541 203.091 326.861 203.379 327.234 203.56C327.607 203.731 328.023 203.816 328.482 203.816C329.261 203.816 329.911 203.661 330.434 203.352C330.967 203.043 331.469 202.605 331.938 202.04V194.792ZM336.354 183.144V207H333.634C333.069 207 332.706 206.744 332.546 206.232L332.178 204.792C331.847 205.155 331.495 205.485 331.122 205.784C330.759 206.083 330.365 206.344 329.938 206.568C329.511 206.781 329.053 206.947 328.562 207.064C328.071 207.181 327.538 207.24 326.962 207.24C326.077 207.24 325.266 207.053 324.53 206.68C323.794 206.307 323.154 205.763 322.61 205.048C322.077 204.323 321.661 203.437 321.362 202.392C321.063 201.347 320.914 200.152 320.914 198.808C320.914 197.581 321.079 196.44 321.41 195.384C321.751 194.328 322.231 193.416 322.85 192.648C323.469 191.88 324.215 191.277 325.09 190.84C325.965 190.403 326.935 190.184 328.002 190.184C328.898 190.184 329.65 190.317 330.258 190.584C330.877 190.851 331.437 191.213 331.938 191.672V183.144H336.354Z" fill="white"/>
</g>
<g filter="url(#filter1_d_1_273)">
<path d="M225.032 229.784V253H220.792V238.744C220.792 238.445 220.797 238.125 220.808 237.784C220.829 237.443 220.861 237.096 220.904 236.744L214.264 249.336C213.901 250.029 213.341 250.376 212.584 250.376H211.912C211.539 250.376 211.208 250.291 210.92 250.12C210.632 249.939 210.403 249.677 210.232 249.336L203.56 236.696C203.592 237.069 203.619 237.432 203.64 237.784C203.661 238.125 203.672 238.445 203.672 238.744V253H199.432V229.784H203.08C203.283 229.784 203.464 229.789 203.624 229.8C203.784 229.811 203.923 229.843 204.04 229.896C204.168 229.939 204.28 230.013 204.376 230.12C204.483 230.216 204.584 230.355 204.68 230.536L211.176 242.92C211.379 243.293 211.565 243.677 211.736 244.072C211.917 244.467 212.088 244.872 212.248 245.288C212.408 244.861 212.573 244.445 212.744 244.04C212.925 243.635 213.117 243.245 213.32 242.872L219.768 230.536C219.864 230.355 219.965 230.216 220.072 230.12C220.179 230.013 220.291 229.939 220.408 229.896C220.536 229.843 220.675 229.811 220.824 229.8C220.984 229.789 221.171 229.784 221.384 229.784H225.032ZM237.511 246.104C236.433 246.157 235.537 246.253 234.823 246.392C234.108 246.52 233.537 246.691 233.111 246.904C232.695 247.117 232.396 247.363 232.215 247.64C232.044 247.907 231.959 248.2 231.959 248.52C231.959 249.16 232.135 249.613 232.487 249.88C232.849 250.147 233.351 250.28 233.991 250.28C234.727 250.28 235.361 250.152 235.895 249.896C236.439 249.629 236.977 249.219 237.511 248.664V246.104ZM228.519 238.792C229.489 237.917 230.561 237.267 231.735 236.84C232.908 236.403 234.177 236.184 235.543 236.184C236.524 236.184 237.399 236.344 238.167 236.664C238.945 236.984 239.601 237.432 240.135 238.008C240.679 238.573 241.095 239.251 241.383 240.04C241.671 240.829 241.815 241.693 241.815 242.632V253H239.799C239.383 253 239.063 252.941 238.839 252.824C238.625 252.707 238.449 252.461 238.311 252.088L237.959 251.032C237.543 251.395 237.137 251.715 236.743 251.992C236.359 252.269 235.959 252.504 235.543 252.696C235.127 252.877 234.679 253.016 234.199 253.112C233.729 253.208 233.201 253.256 232.615 253.256C231.889 253.256 231.228 253.16 230.631 252.968C230.033 252.776 229.516 252.493 229.079 252.12C228.652 251.736 228.321 251.261 228.087 250.696C227.852 250.131 227.735 249.48 227.735 248.744C227.735 248.136 227.889 247.528 228.199 246.92C228.508 246.312 229.036 245.763 229.783 245.272C230.54 244.771 231.543 244.36 232.791 244.04C234.049 243.709 235.623 243.523 237.511 243.48V242.632C237.511 241.597 237.292 240.84 236.855 240.36C236.417 239.869 235.788 239.624 234.967 239.624C234.359 239.624 233.852 239.699 233.447 239.848C233.041 239.987 232.684 240.141 232.375 240.312C232.076 240.472 231.793 240.627 231.527 240.776C231.26 240.915 230.951 240.984 230.599 240.984C230.289 240.984 230.028 240.909 229.815 240.76C229.612 240.6 229.441 240.413 229.303 240.2L228.519 238.792ZM249.406 239.224C249.928 238.285 250.531 237.544 251.214 237C251.896 236.456 252.696 236.184 253.614 236.184C254.36 236.184 254.968 236.36 255.438 236.712L255.15 239.976C255.096 240.189 255.011 240.339 254.894 240.424C254.787 240.499 254.638 240.536 254.446 240.536C254.275 240.536 254.03 240.515 253.71 240.472C253.39 240.419 253.091 240.392 252.814 240.392C252.408 240.392 252.046 240.451 251.726 240.568C251.416 240.685 251.139 240.851 250.894 241.064C250.648 241.277 250.424 241.539 250.222 241.848C250.03 242.157 249.848 242.509 249.678 242.904V253H245.262V236.504H247.87C248.318 236.504 248.627 236.584 248.798 236.744C248.968 236.904 249.091 237.181 249.166 237.576L249.406 239.224ZM261.74 229.144V242.68H262.476C262.753 242.68 262.972 242.643 263.132 242.568C263.292 242.483 263.452 242.333 263.612 242.12L267.26 237.256C267.441 237.011 267.644 236.824 267.868 236.696C268.103 236.568 268.396 236.504 268.748 236.504H272.78L268.044 242.52C267.671 243.021 267.239 243.416 266.748 243.704C266.993 243.875 267.207 244.072 267.388 244.296C267.569 244.52 267.745 244.771 267.916 245.048L273.02 253H269.052C268.711 253 268.417 252.947 268.172 252.84C267.927 252.723 267.724 252.52 267.564 252.232L263.852 246.168C263.703 245.912 263.548 245.747 263.388 245.672C263.228 245.597 262.988 245.56 262.668 245.56H261.74V253H257.324V229.144H261.74ZM284.444 242.808C284.444 242.349 284.38 241.912 284.252 241.496C284.135 241.08 283.943 240.712 283.676 240.392C283.41 240.072 283.074 239.821 282.668 239.64C282.263 239.448 281.778 239.352 281.212 239.352C280.156 239.352 279.33 239.651 278.732 240.248C278.135 240.845 277.746 241.699 277.564 242.808H284.444ZM277.5 245.432C277.639 246.979 278.076 248.109 278.812 248.824C279.559 249.539 280.53 249.896 281.724 249.896C282.332 249.896 282.855 249.827 283.292 249.688C283.74 249.539 284.13 249.379 284.46 249.208C284.802 249.027 285.106 248.867 285.372 248.728C285.65 248.579 285.922 248.504 286.188 248.504C286.53 248.504 286.796 248.632 286.988 248.888L288.268 250.488C287.799 251.032 287.282 251.485 286.716 251.848C286.151 252.2 285.564 252.483 284.956 252.696C284.348 252.899 283.735 253.037 283.116 253.112C282.498 253.197 281.9 253.24 281.324 253.24C280.172 253.24 279.095 253.053 278.092 252.68C277.1 252.296 276.231 251.736 275.484 251C274.748 250.253 274.167 249.331 273.74 248.232C273.314 247.133 273.1 245.859 273.1 244.408C273.1 243.288 273.282 242.232 273.644 241.24C274.018 240.248 274.551 239.384 275.244 238.648C275.938 237.912 276.78 237.331 277.772 236.904C278.764 236.467 279.884 236.248 281.132 236.248C282.188 236.248 283.159 236.419 284.044 236.76C284.94 237.091 285.708 237.576 286.348 238.216C286.999 238.856 287.5 239.645 287.852 240.584C288.215 241.512 288.396 242.573 288.396 243.768C288.396 244.099 288.38 244.371 288.348 244.584C288.316 244.797 288.263 244.968 288.188 245.096C288.114 245.224 288.012 245.315 287.884 245.368C287.756 245.411 287.591 245.432 287.388 245.432H277.5ZM308.133 253H303.733V239.672H296.421V248.28C296.421 248.739 296.528 249.101 296.741 249.368C296.965 249.635 297.28 249.768 297.685 249.768C297.898 249.768 298.08 249.747 298.229 249.704C298.378 249.651 298.506 249.597 298.613 249.544C298.72 249.48 298.816 249.427 298.901 249.384C298.997 249.331 299.093 249.304 299.189 249.304C299.317 249.304 299.424 249.336 299.509 249.4C299.594 249.453 299.68 249.549 299.765 249.688L301.093 251.8C300.485 252.28 299.797 252.643 299.029 252.888C298.261 253.133 297.466 253.256 296.645 253.256C295.898 253.256 295.237 253.149 294.661 252.936C294.085 252.712 293.6 252.397 293.205 251.992C292.81 251.587 292.512 251.096 292.309 250.52C292.106 249.944 292.005 249.293 292.005 248.568V239.672H290.453C290.218 239.672 290.016 239.597 289.845 239.448C289.685 239.299 289.605 239.075 289.605 238.776V237.048L292.245 236.568L293.141 232.296C293.258 231.816 293.584 231.576 294.117 231.576H296.421V236.6H308.133V253ZM308.821 231.784C308.821 232.147 308.746 232.493 308.597 232.824C308.448 233.144 308.245 233.427 307.989 233.672C307.744 233.907 307.45 234.099 307.109 234.248C306.778 234.387 306.421 234.456 306.037 234.456C305.674 234.456 305.328 234.387 304.997 234.248C304.677 234.099 304.394 233.907 304.149 233.672C303.904 233.427 303.706 233.144 303.557 232.824C303.418 232.493 303.349 232.147 303.349 231.784C303.349 231.411 303.418 231.064 303.557 230.744C303.706 230.413 303.904 230.125 304.149 229.88C304.394 229.635 304.677 229.443 304.997 229.304C305.328 229.155 305.674 229.08 306.037 229.08C306.421 229.08 306.778 229.155 307.109 229.304C307.45 229.443 307.744 229.635 307.989 229.88C308.245 230.125 308.448 230.413 308.597 230.744C308.746 231.064 308.821 231.411 308.821 231.784ZM316.014 238.424C316.344 238.104 316.686 237.811 317.038 237.544C317.4 237.277 317.779 237.048 318.174 236.856C318.579 236.664 319.011 236.515 319.47 236.408C319.939 236.301 320.446 236.248 320.99 236.248C321.886 236.248 322.68 236.403 323.374 236.712C324.067 237.021 324.648 237.453 325.118 238.008C325.598 238.563 325.955 239.224 326.19 239.992C326.435 240.76 326.558 241.603 326.558 242.52V253H322.158V242.52C322.158 241.603 321.944 240.893 321.518 240.392C321.091 239.88 320.462 239.624 319.63 239.624C319.011 239.624 318.43 239.757 317.886 240.024C317.342 240.291 316.824 240.664 316.334 241.144V253H311.918V236.504H314.638C315.192 236.504 315.56 236.76 315.742 237.272L316.014 238.424ZM336.218 244.136C337.125 244.136 337.791 243.907 338.218 243.448C338.655 242.989 338.874 242.397 338.874 241.672C338.874 240.915 338.655 240.323 338.218 239.896C337.791 239.459 337.125 239.24 336.218 239.24C335.311 239.24 334.645 239.459 334.218 239.896C333.791 240.323 333.578 240.915 333.578 241.672C333.578 242.387 333.791 242.979 334.218 243.448C334.655 243.907 335.322 244.136 336.218 244.136ZM340.394 253.672C340.394 253.384 340.303 253.149 340.122 252.968C339.941 252.787 339.695 252.643 339.386 252.536C339.087 252.429 338.73 252.355 338.314 252.312C337.898 252.259 337.455 252.221 336.986 252.2C336.517 252.168 336.031 252.141 335.53 252.12C335.029 252.099 334.538 252.061 334.058 252.008C333.685 252.232 333.375 252.499 333.13 252.808C332.895 253.107 332.778 253.448 332.778 253.832C332.778 254.099 332.837 254.344 332.954 254.568C333.082 254.792 333.29 254.984 333.578 255.144C333.866 255.304 334.245 255.427 334.714 255.512C335.183 255.608 335.77 255.656 336.474 255.656C337.199 255.656 337.813 255.608 338.314 255.512C338.815 255.416 339.221 255.277 339.53 255.096C339.839 254.925 340.058 254.717 340.186 254.472C340.325 254.227 340.394 253.96 340.394 253.672ZM344.778 237.048V238.664C344.778 238.92 344.703 239.123 344.554 239.272C344.415 239.421 344.181 239.533 343.85 239.608L342.506 239.88C342.687 240.403 342.778 240.963 342.778 241.56C342.778 242.381 342.607 243.123 342.266 243.784C341.935 244.435 341.477 244.995 340.89 245.464C340.303 245.923 339.61 246.28 338.81 246.536C338.01 246.781 337.146 246.904 336.218 246.904C335.631 246.904 335.082 246.856 334.57 246.76C334.122 247.037 333.898 247.341 333.898 247.672C333.898 247.981 334.047 248.205 334.346 248.344C334.655 248.483 335.055 248.584 335.546 248.648C336.047 248.701 336.613 248.739 337.242 248.76C337.882 248.771 338.527 248.803 339.178 248.856C339.839 248.909 340.485 249.005 341.114 249.144C341.754 249.272 342.319 249.491 342.81 249.8C343.311 250.099 343.711 250.499 344.01 251C344.319 251.501 344.474 252.147 344.474 252.936C344.474 253.672 344.293 254.387 343.93 255.08C343.567 255.773 343.039 256.392 342.346 256.936C341.663 257.48 340.821 257.917 339.818 258.248C338.815 258.579 337.674 258.744 336.394 258.744C335.125 258.744 334.021 258.621 333.082 258.376C332.154 258.141 331.381 257.821 330.762 257.416C330.154 257.021 329.701 256.563 329.402 256.04C329.103 255.517 328.954 254.973 328.954 254.408C328.954 253.672 329.178 253.048 329.626 252.536C330.074 252.024 330.693 251.613 331.482 251.304C331.066 251.069 330.73 250.765 330.474 250.392C330.229 250.008 330.106 249.512 330.106 248.904C330.106 248.413 330.282 247.896 330.634 247.352C330.997 246.808 331.551 246.355 332.298 245.992C331.455 245.544 330.789 244.947 330.298 244.2C329.807 243.443 329.562 242.563 329.562 241.56C329.562 240.739 329.727 239.997 330.058 239.336C330.399 238.675 330.869 238.115 331.466 237.656C332.063 237.187 332.767 236.829 333.578 236.584C334.389 236.339 335.269 236.216 336.218 236.216C337.626 236.216 338.869 236.493 339.946 237.048H344.778Z" fill="white"/>
</g>
<defs>
<filter id="filter0_d_1_273" x="191.973" y="174.144" width="157.381" height="50.0962" filterUnits="userSpaceOnUse" color-interpolation-filters="sRGB">
<feFlood flood-opacity="0" result="BackgroundImageFix"/>
<feColorMatrix in="SourceAlpha" type="matrix" values="0 0 0 0 0 0 0 0 0 0 0 0 0 0 0 0 0 0 127 0" result="hardAlpha"/>
<feOffset dy="4"/>
<feGaussianBlur stdDeviation="6.5"/>
<feComposite in2="hardAlpha" operator="out"/>
<feColorMatrix type="matrix" values="0 0 0 0 0.608958 0 0 0 0 0.787095 0 0 0 0 0.9875 0 0 0 1 0"/>
<feBlend mode="normal" in2="BackgroundImageFix" result="effect1_dropShadow_1_273"/>
<feBlend mode="normal" in="SourceGraphic" in2="effect1_dropShadow_1_273" result="shape"/>
</filter>
<filter id="filter1_d_1_273" x="186.432" y="220.08" width="171.346" height="55.6641" filterUnits="userSpaceOnUse" color-interpolation-filters="sRGB">
<feFlood flood-opacity="0" result="BackgroundImageFix"/>
<feColorMatrix in="SourceAlpha" type="matrix" values="0 0 0 0 0 0 0 0 0 0 0 0 0 0 0 0 0 0 127 0" result="hardAlpha"/>
<feOffset dy="4"/>
<feGaussianBlur stdDeviation="6.5"/>
<feComposite in2="hardAlpha" operator="out"/>
<feColorMatrix type="matrix" values="0 0 0 0 0.608958 0 0 0 0 0.787095 0 0 0 0 0.9875 0 0 0 1 0"/>
<feBlend mode="normal" in2="BackgroundImageFix" result="effect1_dropShadow_1_273"/>
<feBlend mode="normal" in="SourceGraphic" in2="effect1_dropShadow_1_273" result="shape"/>
</filter>
</defs>
</svg>
