<svg width="20" height="18" viewBox="0 0 20 18" fill="none" xmlns="http://www.w3.org/2000/svg">
<path d="M18.75 7.74961H3.925L8.4625 2.29961C8.67467 2.04434 8.77675 1.71524 8.74628 1.38471C8.7158 1.05417 8.55527 0.749285 8.3 0.537112C8.04473 0.324939 7.71563 0.222862 7.3851 0.253336C7.05456 0.283811 6.74967 0.444341 6.5375 0.699612L0.2875 8.19961C0.245451 8.25927 0.207849 8.32194 0.175 8.38711C0.175 8.44961 0.175 8.48711 0.0875002 8.54961C0.0308421 8.69294 0.0011764 8.8455 0 8.99961C0.0011764 9.15372 0.0308421 9.30629 0.0875002 9.44961C0.0875002 9.51211 0.0874998 9.54961 0.175 9.61211C0.207849 9.67729 0.245451 9.73996 0.2875 9.79961L6.5375 17.2996C6.65503 17.4407 6.8022 17.5542 6.96856 17.632C7.13491 17.7097 7.31636 17.7499 7.5 17.7496C7.79207 17.7502 8.07511 17.6485 8.3 17.4621C8.42657 17.3572 8.5312 17.2283 8.60789 17.0829C8.68458 16.9374 8.73183 16.7783 8.74692 16.6146C8.76202 16.4509 8.74466 16.2858 8.69586 16.1288C8.64705 15.9718 8.56775 15.8259 8.4625 15.6996L3.925 10.2496H18.75C19.0815 10.2496 19.3995 10.1179 19.6339 9.8835C19.8683 9.64907 20 9.33113 20 8.99961C20 8.66809 19.8683 8.35015 19.6339 8.11573C19.3995 7.88131 19.0815 7.74961 18.75 7.74961Z" fill="#0078FF"/>
</svg>
