<svg width="22" height="23" viewBox="0 0 22 23" fill="none" xmlns="http://www.w3.org/2000/svg">
<path d="M9.6144 16.8967L10.492 14.8865C11.2731 13.0977 12.6789 11.6737 14.4325 10.8953L16.8482 9.82298C17.6162 9.48207 17.6162 8.36475 16.8482 8.02384L14.5079 6.98502C12.7092 6.1866 11.2782 4.70989 10.5105 2.86002L9.6215 0.717805C9.2916 -0.07716 8.19319 -0.077158 7.8633 0.717805L6.97427 2.86C6.20657 4.70989 4.77553 6.1866 2.97685 6.98502L0.63658 8.02384C-0.131463 8.36475 -0.131464 9.48207 0.63658 9.82298L3.0523 10.8953C4.80589 11.6737 6.21171 13.0977 6.99275 14.8865L7.8704 16.8967C8.20776 17.6693 9.277 17.6693 9.6144 16.8967ZM18.4014 21.791L18.6482 21.2253C19.0882 20.2167 19.8807 19.4136 20.8695 18.9743L21.6299 18.6364C22.0412 18.4537 22.0412 17.856 21.6299 17.6733L20.9121 17.3543C19.8978 16.9037 19.0911 16.0709 18.6586 15.028L18.4052 14.4167C18.2285 13.9907 17.6395 13.9907 17.4628 14.4167L17.2094 15.028C16.777 16.0709 15.9703 16.9037 14.956 17.3543L14.2381 17.6733C13.8269 17.856 13.8269 18.4537 14.2381 18.6364L14.9985 18.9743C15.9874 19.4136 16.7798 20.2167 17.2198 21.2253L17.4667 21.791C17.6473 22.2051 18.2207 22.2051 18.4014 21.791Z" fill="#0078FF"/>
</svg>
