<svg width="24" height="24" viewBox="0 0 24 24" fill="none" xmlns="http://www.w3.org/2000/svg">
<path d="M13.6388 0.113305C7.7035 -0.704778 2.07453 2.98205 0.450862 8.75103C-1.1728 14.52 1.7065 20.6029 7.19666 23.0026C7.12459 22.0808 7.19023 21.1535 7.39142 20.2512C7.61294 19.2448 8.94669 13.6958 8.94669 13.6958C8.68091 13.1007 8.54799 12.4547 8.55718 11.803C8.55718 10.021 9.58541 8.6915 10.8647 8.6915C11.3296 8.68457 11.7747 8.88029 12.0839 9.22773C12.3931 9.57516 12.536 10.04 12.4753 10.5011C12.4753 11.5814 11.7813 13.2157 11.4203 14.7483C11.2747 15.3186 11.4087 15.9243 11.7814 16.3799C12.1541 16.8354 12.7211 17.0866 13.3088 17.0566C15.5858 17.0566 17.1134 14.1389 17.1134 10.6951C17.1134 8.05442 15.3643 6.07857 12.1421 6.07857C10.5843 6.01834 9.06988 6.59949 7.95201 7.68648C6.83413 8.77347 6.21052 10.2713 6.22658 11.8307C6.19227 12.6866 6.46828 13.526 7.00376 14.1944C7.20974 14.3476 7.28922 14.6189 7.19851 14.8592C7.14314 15.0807 7.00376 15.607 6.94837 15.8009C6.92502 15.9335 6.84016 16.0473 6.71965 16.1073C6.59915 16.1674 6.4573 16.1668 6.33735 16.1056C4.67595 15.4408 3.89323 13.6126 3.89323 11.5261C3.89323 8.10982 6.75454 4.01962 12.4772 4.01962C17.0322 4.01962 20.0597 7.35273 20.0597 10.9166C20.0597 15.607 17.4485 19.134 13.5885 19.134C12.416 19.1712 11.3058 18.6072 10.6441 17.6382C10.6441 17.6382 9.95001 20.4174 9.81335 20.9436C9.53439 21.8518 9.12256 22.7136 8.59133 23.5012C9.6984 23.837 10.8496 24.0052 12.0065 23.9999C15.1889 24.0019 18.2417 22.738 20.4915 20.4863C22.7414 18.2347 24.0036 15.1804 24 11.9969C23.9965 6.00364 19.5741 0.931389 13.6388 0.113305Z" fill="#000C1A"/>
</svg>
