<svg width="747" height="556" viewBox="0 0 747 556" fill="none" xmlns="http://www.w3.org/2000/svg">
<path d="M746.189 488.604H0V488.977H746.189V488.604Z" fill="#EBEBEB"/>
<path d="M671.421 512.616H621.993V512.99H671.421V512.616Z" fill="#EBEBEB"/>
<path d="M494.306 516.676H481.337V517.049H494.306V516.676Z" fill="#EBEBEB"/>
<path d="M620.5 498.767H591.861V499.14H620.5V498.767Z" fill="#EBEBEB"/>
<path d="M142.746 501.274H78.2903V501.648H142.746V501.274Z" fill="#EBEBEB"/>
<path d="M165.49 501.274H156.043V501.648H165.49V501.274Z" fill="#EBEBEB"/>
<path d="M336.008 507.573H196.203V507.946H336.008V507.573Z" fill="#EBEBEB"/>
<path d="M353.693 422.044H65.5299C63.2724 422.04 61.1088 421.141 59.5139 419.543C57.9191 417.945 57.0233 415.78 57.0233 413.523V8.44685C57.043 6.20236 57.9474 4.05625 59.5401 2.47469C61.1329 0.893125 63.2853 0.00384494 65.5299 0H353.693C355.953 0 358.12 0.897796 359.719 2.49588C361.317 4.09397 362.214 6.26144 362.214 8.52147V413.523C362.214 415.783 361.317 417.95 359.719 419.548C358.12 421.146 355.953 422.044 353.693 422.044ZM65.5299 0.298477C63.3714 0.30243 61.3026 1.16266 59.7777 2.69035C58.2528 4.21804 57.3964 6.28835 57.3964 8.44685V413.523C57.3964 415.681 58.2528 417.752 59.7777 419.279C61.3026 420.807 63.3714 421.667 65.5299 421.671H353.693C355.853 421.667 357.923 420.807 359.45 419.28C360.978 417.753 361.837 415.683 361.841 413.523V8.44685C361.837 6.28698 360.978 4.2167 359.45 2.68944C357.923 1.16217 355.853 0.302422 353.693 0.298477H65.5299Z" fill="#EBEBEB"/>
<path d="M676.509 422.044H388.331C386.073 422.04 383.907 421.141 382.31 419.544C380.713 417.947 379.814 415.782 379.81 413.523V8.44685C379.833 6.20099 380.741 4.0549 382.336 2.47375C383.931 0.892604 386.085 0.00380301 388.331 0H676.509C678.751 0.00776707 680.9 0.898783 682.49 2.47992C684.079 4.06107 684.981 6.20493 685.001 8.44685V413.523C685.001 415.778 684.107 417.941 682.516 419.538C680.924 421.135 678.764 422.036 676.509 422.044ZM388.331 0.298477C386.172 0.302422 384.101 1.16217 382.574 2.68944C381.047 4.2167 380.187 6.28698 380.183 8.44685V413.523C380.187 415.683 381.047 417.753 382.574 419.28C384.101 420.807 386.172 421.667 388.331 421.671H676.509C678.669 421.667 680.74 420.807 682.267 419.28C683.794 417.753 684.654 415.683 684.658 413.523V8.44685C684.654 6.28698 683.794 4.2167 682.267 2.68944C680.74 1.16217 678.669 0.302422 676.509 0.298477H388.331Z" fill="#EBEBEB"/>
<path d="M376.545 95.172C392.845 91.3248 402.94 74.9921 399.093 58.6918C395.246 42.3916 378.913 32.2964 362.613 36.1436C346.313 39.9908 336.218 56.3236 340.065 72.6238C343.912 88.924 360.245 99.0192 376.545 95.172Z" fill="#E0E0E0"/>
<path d="M375.502 90.7564C389.364 87.4848 397.949 73.5956 394.677 59.7339C391.405 45.8723 377.516 37.2874 363.655 40.5591C349.793 43.8307 341.208 57.72 344.48 71.5816C347.751 85.4432 361.641 94.0281 375.502 90.7564Z" fill="#F0F0F0"/>
<path d="M368.378 83.3343V65.3064L356.439 72.0669" fill="#F0F0F0"/>
<path d="M368.378 84.6178C368.038 84.6178 367.711 84.4826 367.471 84.2419C367.23 84.0012 367.095 83.6747 367.095 83.3343V67.5151L357.066 73.1862C356.919 73.2695 356.757 73.323 356.589 73.3437C356.422 73.3644 356.252 73.3519 356.089 73.3068C355.926 73.2618 355.774 73.1851 355.64 73.0812C355.507 72.9773 355.396 72.8481 355.313 72.7012C355.229 72.5542 355.176 72.3922 355.155 72.2246C355.134 72.0569 355.147 71.8868 355.192 71.7239C355.237 71.5611 355.314 71.4087 355.418 71.2755C355.521 71.1423 355.651 71.0309 355.798 70.9476L367.737 64.1872C367.932 64.0779 368.152 64.0215 368.376 64.0237C368.6 64.026 368.819 64.0866 369.012 64.1998C369.205 64.3129 369.365 64.4746 369.477 64.6687C369.588 64.8628 369.647 65.0827 369.647 65.3064V83.3343C369.647 83.6722 369.514 83.9964 369.276 84.2366C369.039 84.4769 368.716 84.6139 368.378 84.6178Z" fill="#E0E0E0"/>
<path d="M660.258 216.693V118.525L533.928 118.525V216.693H660.258Z" fill="#E0E0E0"/>
<path d="M656.437 122.584H537.763V212.634H656.437V122.584Z" fill="#EBEBEB"/>
<path d="M560.372 132.299H546.061V152.536H560.372V132.299Z" fill="#F5F5F5"/>
<path d="M579.027 138.269H563.954V159.923H579.027V138.269Z" fill="#F5F5F5"/>
<path d="M561.404 183.681L546.481 181.722L543.666 203.16L558.589 205.119L561.404 183.681Z" fill="#F5F5F5"/>
<path d="M598.846 182.354H583.773V204.008H598.846V182.354Z" fill="#F5F5F5"/>
<path d="M580.833 180.07H565.76V201.724H580.833V180.07Z" fill="#F5F5F5"/>
<path d="M624.739 133.762H615.381V143.119H624.739V133.762Z" fill="#F5F5F5"/>
<path d="M638.341 136.593L629.602 133.249L626.258 141.988L634.997 145.333L638.341 136.593Z" fill="#F5F5F5"/>
<path d="M620.068 134.956C620.064 135.099 620.004 135.236 619.901 135.336C619.798 135.437 619.66 135.493 619.516 135.493C619.437 135.506 619.356 135.502 619.278 135.48C619.201 135.459 619.129 135.421 619.068 135.369C619.007 135.318 618.958 135.253 618.924 135.18C618.891 135.108 618.873 135.028 618.873 134.948C618.873 134.868 618.891 134.789 618.924 134.716C618.958 134.643 619.007 134.579 619.068 134.527C619.129 134.475 619.201 134.437 619.278 134.416C619.356 134.395 619.437 134.39 619.516 134.403C619.662 134.403 619.803 134.462 619.906 134.565C620.01 134.669 620.068 134.809 620.068 134.956Z" fill="#E0E0E0"/>
<path d="M630.828 134.956C630.828 135.065 630.795 135.172 630.735 135.263C630.674 135.353 630.588 135.424 630.487 135.466C630.386 135.508 630.275 135.519 630.168 135.497C630.061 135.476 629.962 135.423 629.885 135.346C629.808 135.269 629.755 135.171 629.734 135.063C629.713 134.956 629.723 134.845 629.765 134.744C629.807 134.644 629.878 134.557 629.969 134.497C630.059 134.436 630.166 134.404 630.275 134.404C630.422 134.404 630.562 134.462 630.666 134.565C630.769 134.669 630.828 134.809 630.828 134.956Z" fill="#E0E0E0"/>
<path d="M572.028 139.866C572.007 139.995 571.94 140.112 571.841 140.196C571.741 140.281 571.614 140.327 571.484 140.327C571.353 140.327 571.226 140.281 571.126 140.196C571.027 140.112 570.96 139.995 570.939 139.866C570.926 139.786 570.93 139.705 570.951 139.628C570.973 139.551 571.01 139.479 571.062 139.418C571.114 139.357 571.179 139.308 571.251 139.274C571.324 139.24 571.403 139.223 571.484 139.223C571.564 139.223 571.643 139.24 571.716 139.274C571.788 139.308 571.853 139.357 571.905 139.418C571.957 139.479 571.994 139.551 572.016 139.628C572.037 139.705 572.041 139.786 572.028 139.866Z" fill="#E0E0E0"/>
<path d="M553.762 133.762C553.775 133.841 553.771 133.922 553.749 133.999C553.728 134.076 553.69 134.148 553.638 134.209C553.586 134.27 553.522 134.32 553.449 134.353C553.376 134.387 553.297 134.404 553.217 134.404C553.137 134.404 553.058 134.387 552.985 134.353C552.912 134.32 552.848 134.27 552.796 134.209C552.744 134.148 552.706 134.076 552.685 133.999C552.663 133.922 552.659 133.841 552.672 133.762C552.694 133.633 552.76 133.516 552.86 133.431C552.96 133.346 553.086 133.3 553.217 133.3C553.348 133.3 553.474 133.346 553.574 133.431C553.674 133.516 553.74 133.633 553.762 133.762Z" fill="#E0E0E0"/>
<path d="M548.628 183.906C548.628 183.977 548.614 184.049 548.586 184.115C548.558 184.181 548.517 184.241 548.465 184.291C548.414 184.341 548.353 184.38 548.286 184.406C548.219 184.432 548.148 184.445 548.076 184.443C547.997 184.456 547.916 184.452 547.839 184.43C547.761 184.409 547.69 184.371 547.628 184.319C547.567 184.268 547.518 184.203 547.484 184.13C547.451 184.058 547.433 183.978 547.433 183.898C547.433 183.818 547.451 183.739 547.484 183.666C547.518 183.593 547.567 183.529 547.628 183.477C547.69 183.425 547.761 183.387 547.839 183.366C547.916 183.345 547.997 183.34 548.076 183.353C548.149 183.351 548.222 183.364 548.29 183.391C548.358 183.418 548.419 183.459 548.471 183.511C548.523 183.562 548.563 183.624 548.59 183.692C548.617 183.76 548.63 183.833 548.628 183.906Z" fill="#E0E0E0"/>
<path d="M573.849 181.309C573.849 181.418 573.817 181.525 573.756 181.616C573.695 181.706 573.609 181.777 573.508 181.819C573.407 181.861 573.296 181.872 573.189 181.85C573.082 181.829 572.984 181.776 572.906 181.699C572.829 181.622 572.777 181.524 572.755 181.416C572.734 181.309 572.745 181.198 572.787 181.097C572.829 180.997 572.899 180.91 572.99 180.85C573.081 180.789 573.188 180.757 573.297 180.757C573.443 180.757 573.584 180.815 573.687 180.918C573.791 181.022 573.849 181.162 573.849 181.309Z" fill="#E0E0E0"/>
<path d="M591.847 183.353C591.847 183.463 591.814 183.569 591.753 183.66C591.693 183.751 591.607 183.822 591.506 183.864C591.405 183.905 591.294 183.916 591.187 183.895C591.08 183.874 590.981 183.821 590.904 183.744C590.827 183.667 590.774 183.568 590.753 183.461C590.731 183.354 590.742 183.243 590.784 183.142C590.826 183.041 590.897 182.955 590.988 182.894C591.078 182.834 591.185 182.801 591.294 182.801C591.441 182.801 591.581 182.859 591.685 182.963C591.788 183.067 591.847 183.207 591.847 183.353Z" fill="#E0E0E0"/>
<path d="M648.975 163.027H618.963V181.846H648.975V163.027Z" fill="#E0E0E0"/>
<path d="M638.707 184.443H612.501V205.127H638.707V184.443Z" fill="#E0E0E0"/>
<path d="M109.435 129.956H100.078V139.314H109.435V129.956Z" fill="#F5F5F5"/>
<path d="M104.765 131.135C104.768 131.245 104.738 131.353 104.679 131.446C104.62 131.539 104.535 131.612 104.435 131.656C104.334 131.7 104.223 131.713 104.114 131.693C104.006 131.674 103.907 131.622 103.828 131.546C103.749 131.469 103.695 131.371 103.673 131.263C103.65 131.156 103.66 131.044 103.701 130.942C103.743 130.841 103.813 130.753 103.904 130.692C103.996 130.631 104.103 130.598 104.213 130.598C104.357 130.598 104.495 130.654 104.598 130.754C104.701 130.855 104.761 130.991 104.765 131.135Z" fill="#E0E0E0"/>
<path d="M373.094 556C532.901 556 662.451 548.436 662.451 539.106C662.451 529.776 532.901 522.213 373.094 522.213C213.286 522.213 83.7369 529.776 83.7369 539.106C83.7369 548.436 213.286 556 373.094 556Z" fill="#F5F5F5"/>
<path d="M632.215 447.713C631.961 449.549 636.946 450.698 641.005 451.444C640.677 454.787 638.453 458.16 635.394 461.309C631.529 459.13 626.022 456.264 624.947 456.966C623.873 457.667 629.424 461.368 633.006 463.517C630.483 465.72 627.811 467.745 625.007 469.576C623.291 467.965 621.261 466.592 620.052 467.308C618.843 468.024 619.142 470.606 619.754 472.83C615.56 475.277 612.411 476.77 612.411 476.77C611.19 472.862 610.253 468.872 609.606 464.831C609.815 464.413 610.023 463.995 610.217 463.547C610.904 461.98 610.217 461.323 609.128 461.1C608.805 458.245 608.78 455.364 609.053 452.504C613.814 451.519 619.59 449.668 617.426 446.818C616.112 445.101 613.725 444.907 611.247 445.325C611.58 444.755 611.97 444.22 612.411 443.728C621.067 434.192 627.096 443.728 627.096 443.728C632.126 439.535 639.185 440.669 640.707 447.206C637.946 446.519 632.543 445.445 632.215 447.713Z" fill="#80BCFF"/>
<path opacity="0.3" d="M632.215 447.713C631.961 449.549 636.946 450.698 641.005 451.444C640.677 454.787 638.453 458.16 635.394 461.309C631.529 459.13 626.022 456.264 624.947 456.966C623.873 457.667 629.424 461.368 633.006 463.517C630.483 465.72 627.811 467.745 625.007 469.576C623.291 467.965 621.261 466.592 620.052 467.308C618.843 468.024 619.142 470.606 619.754 472.83C615.56 475.277 612.411 476.77 612.411 476.77C611.19 472.862 610.253 468.872 609.606 464.831C609.815 464.413 610.023 463.995 610.217 463.547C610.904 461.98 610.217 461.323 609.128 461.1C608.805 458.245 608.78 455.364 609.053 452.504C613.814 451.519 619.59 449.668 617.426 446.818C616.112 445.101 613.725 444.907 611.247 445.325C611.58 444.755 611.97 444.22 612.411 443.728C621.067 434.192 627.096 443.728 627.096 443.728C632.126 439.535 639.185 440.669 640.707 447.206C637.946 446.519 632.543 445.445 632.215 447.713Z" fill="white"/>
<path d="M621.426 517.75L622.679 517.646C622.679 517.004 617.56 453.19 631.872 447.176C632.555 446.857 633.302 446.7 634.056 446.718C634.809 446.736 635.548 446.929 636.215 447.28C641.394 449.982 643.871 461.144 643.886 461.264L645.11 460.995C645.005 460.518 642.483 449.146 636.797 446.176C635.969 445.736 635.051 445.493 634.113 445.467C633.176 445.442 632.245 445.633 631.395 446.027C616.247 452.384 621.202 515.079 621.426 517.75Z" fill="#80BCFF"/>
<path d="M619.619 516.362C619.873 513.497 625.723 445.982 614.784 438.759C612.172 437.043 609.829 436.67 607.844 437.669C602.681 440.281 602.009 451.325 601.979 451.787L603.233 451.862C603.233 451.757 603.89 441.072 608.412 438.789C609.904 438.013 611.889 438.341 614.112 439.804C624.41 446.564 618.44 515.497 618.381 516.198L619.619 516.362Z" fill="#80BCFF"/>
<path d="M617.978 521.824C618.067 519.631 619.858 467.949 609.904 463.428C608.97 462.987 607.951 462.759 606.919 462.759C605.887 462.759 604.868 462.987 603.934 463.428C597.099 466.412 592.876 479.172 592.712 479.709L593.891 480.097C593.891 479.963 598.114 467.353 604.427 464.577C605.195 464.216 606.033 464.029 606.882 464.029C607.731 464.029 608.569 464.216 609.337 464.577C616.963 468.039 617.217 507.05 616.664 521.794L617.978 521.824Z" fill="#80BCFF"/>
<path d="M620.515 519.467L621.754 519.317C620.008 503.931 616.65 462.95 622.127 458.055C622.393 457.735 622.746 457.5 623.144 457.378C623.542 457.256 623.966 457.253 624.366 457.369C628.037 458.772 630.335 472.114 630.828 477.128L632.066 476.994C631.857 475.068 629.858 458.13 624.813 456.205C624.2 455.998 623.54 455.976 622.914 456.14C622.288 456.305 621.724 456.649 621.291 457.13C614.217 463.443 620.247 517.168 620.515 519.467Z" fill="#80BCFF"/>
<path d="M641.378 490.305H596.443L600.204 540.643H637.632L641.378 490.305Z" fill="#80BCFF"/>
<path opacity="0.2" d="M627.738 490.305L626.484 540.643H600.204L596.443 490.305H627.738Z" fill="white"/>
<path d="M635.26 471.83C635.737 473.054 639.229 472.084 641.96 471.114C642.811 473.721 642.785 476.536 641.886 479.128C638.752 479.128 634.424 479.217 633.991 480.008C633.558 480.799 638.289 481.172 641.199 481.292C640.402 483.51 639.449 485.669 638.349 487.754C636.737 487.351 634.991 487.172 634.513 488.067C634.036 488.962 635.08 490.41 636.23 491.574C634.483 494.559 633.051 496.514 633.051 496.514C630.957 494.53 629.012 492.395 627.231 490.126C627.231 489.798 627.231 489.47 627.231 489.127C627.111 487.933 626.469 487.739 625.738 487.992C624.567 486.337 623.567 484.567 622.753 482.709C625.35 480.471 628.275 477.352 625.962 476.337C625.201 476.122 624.396 476.122 623.636 476.335C622.875 476.548 622.187 476.967 621.649 477.546C621.658 477.079 621.713 476.614 621.813 476.158C623.888 467.308 630.872 471.114 630.872 471.114C632.543 466.816 637.274 465.144 640.468 468.606C638.393 469.129 634.692 470.323 635.26 471.83Z" fill="#80BCFF"/>
<path opacity="0.3" d="M635.26 471.83C635.737 473.054 639.229 472.084 641.96 471.114C642.811 473.721 642.785 476.536 641.886 479.128C638.752 479.128 634.424 479.217 633.991 480.008C633.558 480.799 638.289 481.172 641.199 481.292C640.402 483.51 639.449 485.669 638.349 487.754C636.737 487.351 634.991 487.172 634.513 488.067C634.036 488.962 635.08 490.41 636.23 491.574C634.483 494.559 633.051 496.514 633.051 496.514C630.957 494.53 629.012 492.395 627.231 490.126C627.231 489.798 627.231 489.47 627.231 489.127C627.111 487.933 626.469 487.739 625.738 487.992C624.567 486.337 623.567 484.567 622.753 482.709C625.35 480.471 628.275 477.352 625.962 476.337C625.201 476.122 624.396 476.122 623.636 476.335C622.875 476.548 622.187 476.967 621.649 477.546C621.658 477.079 621.713 476.614 621.813 476.158C623.888 467.308 630.872 471.114 630.872 471.114C632.543 466.816 637.274 465.144 640.468 468.606C638.393 469.129 634.692 470.323 635.26 471.83Z" fill="white"/>
<path d="M601.89 477.8C603.293 477.921 604.676 478.211 606.009 478.665C606.367 477.709 606.569 476.701 606.606 475.68C606.889 466.622 600.413 470.442 596.98 467.771C596.199 467.09 595.285 466.579 594.296 466.27C593.307 465.962 592.264 465.863 591.234 465.98C591.534 466.455 591.794 466.954 592.01 467.472C592.078 467.671 592.104 467.882 592.085 468.091C592.066 468.3 592.002 468.503 591.9 468.686C591.797 468.869 591.657 469.029 591.488 469.154C591.319 469.279 591.126 469.367 590.921 469.412C590.059 469.579 589.166 469.469 588.369 469.099C588.138 468.969 587.918 468.819 587.712 468.651C587.173 469.589 586.757 470.592 586.474 471.636C586.138 472.904 585.943 474.205 585.892 475.516C586.397 475.631 586.895 475.776 587.384 475.949C587.582 476.032 587.758 476.16 587.899 476.322C588.04 476.484 588.141 476.676 588.196 476.884C588.251 477.092 588.257 477.309 588.215 477.52C588.172 477.73 588.082 477.928 587.951 478.098C587.413 478.644 586.781 479.088 586.086 479.411C586.319 480.864 586.699 482.289 587.22 483.665H587.683C588.026 483.739 588.339 483.814 588.668 483.918C588.854 483.961 589.034 484.026 589.205 484.112C589.424 484.212 589.616 484.363 589.764 484.553C589.912 484.742 590.012 484.965 590.055 485.202C590.092 485.449 590.062 485.701 589.967 485.932C589.873 486.163 589.718 486.365 589.518 486.515C589.306 486.672 589.081 486.811 588.847 486.933C589.71 488.434 590.949 489.684 592.443 490.559C593.752 489.957 595.027 489.284 596.264 488.545C595.98 488.172 595.712 487.813 595.458 487.44C595.159 487.004 595.026 486.474 595.085 485.948C595.116 485.698 595.196 485.457 595.322 485.24C595.447 485.022 595.615 484.831 595.816 484.679C596.219 484.368 596.728 484.228 597.234 484.291C597.74 484.361 598.199 484.623 598.517 485.023C598.816 485.47 599.144 485.888 599.472 486.321C601.202 485.041 602.753 483.535 604.084 481.844H603.935C603.098 481.625 602.244 481.48 601.383 481.411C600.88 481.34 600.426 481.076 600.116 480.674C599.807 480.273 599.666 479.766 599.726 479.262C599.843 478.794 600.129 478.386 600.528 478.116C600.927 477.847 601.412 477.734 601.89 477.8Z" fill="#80BCFF"/>
<path opacity="0.5" d="M601.89 477.8C603.293 477.921 604.676 478.211 606.009 478.665C606.367 477.709 606.569 476.701 606.606 475.68C606.889 466.622 600.413 470.442 596.98 467.771C596.199 467.09 595.285 466.579 594.296 466.27C593.307 465.962 592.264 465.863 591.234 465.98C591.534 466.455 591.794 466.954 592.01 467.472C592.078 467.671 592.104 467.882 592.085 468.091C592.066 468.3 592.002 468.503 591.9 468.686C591.797 468.869 591.657 469.029 591.488 469.154C591.319 469.279 591.126 469.367 590.921 469.412C590.059 469.579 589.166 469.469 588.369 469.099C588.138 468.969 587.918 468.819 587.712 468.651C587.173 469.589 586.757 470.592 586.474 471.636C586.138 472.904 585.943 474.205 585.892 475.516C586.397 475.631 586.895 475.776 587.384 475.949C587.582 476.032 587.758 476.16 587.899 476.322C588.04 476.484 588.141 476.676 588.196 476.884C588.251 477.092 588.257 477.309 588.215 477.52C588.172 477.73 588.082 477.928 587.951 478.098C587.413 478.644 586.781 479.088 586.086 479.411C586.319 480.864 586.699 482.289 587.22 483.665H587.683C588.026 483.739 588.339 483.814 588.668 483.918C588.854 483.961 589.034 484.026 589.205 484.112C589.424 484.212 589.616 484.363 589.764 484.553C589.912 484.742 590.012 484.965 590.055 485.202C590.092 485.449 590.062 485.701 589.967 485.932C589.873 486.163 589.718 486.365 589.518 486.515C589.306 486.672 589.081 486.811 588.847 486.933C589.71 488.434 590.949 489.684 592.443 490.559C593.752 489.957 595.027 489.284 596.264 488.545C595.98 488.172 595.712 487.813 595.458 487.44C595.159 487.004 595.026 486.474 595.085 485.948C595.116 485.698 595.196 485.457 595.322 485.24C595.447 485.022 595.615 484.831 595.816 484.679C596.219 484.368 596.728 484.228 597.234 484.291C597.74 484.361 598.199 484.623 598.517 485.023C598.816 485.47 599.144 485.888 599.472 486.321C601.202 485.041 602.753 483.535 604.084 481.844H603.935C603.098 481.625 602.244 481.48 601.383 481.411C600.88 481.34 600.426 481.076 600.116 480.674C599.807 480.273 599.666 479.766 599.726 479.262C599.843 478.794 600.129 478.386 600.528 478.116C600.927 477.847 601.412 477.734 601.89 477.8Z" fill="white"/>
<path d="M599.308 446.549C598.519 446.003 597.667 445.552 596.771 445.206C596.989 444.545 597.322 443.929 597.756 443.385C601.577 438.49 603.308 443.385 606.278 443.385C606.987 443.365 607.692 443.494 608.347 443.764C609.003 444.034 609.594 444.439 610.083 444.952C609.709 445.083 609.344 445.243 608.994 445.43C608.864 445.497 608.751 445.593 608.663 445.711C608.576 445.829 608.517 445.965 608.491 446.11C608.465 446.254 608.473 446.402 608.514 446.543C608.554 446.684 608.627 446.814 608.725 446.922C609.108 447.392 609.631 447.727 610.218 447.877C610.401 447.893 610.586 447.893 610.77 447.877C610.634 448.615 610.403 449.332 610.083 450.011C609.711 450.829 609.245 451.6 608.695 452.31C608.376 452.143 608.047 451.993 607.711 451.862C607.57 451.821 607.422 451.813 607.278 451.837C607.134 451.862 606.998 451.918 606.879 452.003C606.759 452.088 606.661 452.198 606.591 452.326C606.52 452.454 606.48 452.597 606.472 452.742C606.519 453.26 606.655 453.765 606.875 454.235C606.114 454.893 605.289 455.473 604.412 455.966L604.129 455.787L603.517 455.488C603.396 455.435 603.271 455.39 603.144 455.354C602.985 455.308 602.816 455.303 602.654 455.34C602.493 455.376 602.343 455.453 602.219 455.563C602.092 455.677 601.997 455.823 601.945 455.986C601.893 456.148 601.884 456.321 601.92 456.488C601.964 456.663 602.024 456.832 602.099 456.996C600.988 457.403 599.79 457.516 598.622 457.324C598.196 456.436 597.823 455.524 597.503 454.593L598.398 454.354C598.733 454.273 599.025 454.071 599.219 453.787C599.314 453.641 599.378 453.477 599.409 453.305C599.44 453.134 599.436 452.957 599.398 452.787C599.32 452.449 599.112 452.154 598.819 451.967C598.526 451.781 598.171 451.716 597.831 451.787C597.473 451.892 597.115 451.966 596.756 452.041C596.399 450.617 596.243 449.15 596.294 447.683H596.383C596.905 447.94 597.404 448.24 597.876 448.579C598.171 448.764 598.528 448.826 598.869 448.751C599.209 448.675 599.507 448.469 599.696 448.176C599.823 447.9 599.853 447.59 599.783 447.296C599.712 447.001 599.545 446.738 599.308 446.549Z" fill="#80BCFF"/>
<path opacity="0.3" d="M599.308 446.549C598.519 446.003 597.667 445.552 596.771 445.206C596.989 444.545 597.322 443.929 597.756 443.385C601.577 438.49 603.308 443.385 606.278 443.385C606.987 443.365 607.692 443.494 608.347 443.764C609.003 444.034 609.594 444.439 610.083 444.952C609.709 445.083 609.344 445.243 608.994 445.43C608.864 445.497 608.751 445.593 608.663 445.711C608.576 445.829 608.517 445.965 608.491 446.11C608.465 446.254 608.473 446.402 608.514 446.543C608.554 446.684 608.627 446.814 608.725 446.922C609.108 447.392 609.631 447.727 610.218 447.877C610.401 447.893 610.586 447.893 610.77 447.877C610.634 448.615 610.403 449.332 610.083 450.011C609.711 450.829 609.245 451.6 608.695 452.31C608.376 452.143 608.047 451.993 607.711 451.862C607.57 451.821 607.422 451.813 607.278 451.837C607.134 451.862 606.998 451.918 606.879 452.003C606.759 452.088 606.661 452.198 606.591 452.326C606.52 452.454 606.48 452.597 606.472 452.742C606.519 453.26 606.655 453.765 606.875 454.235C606.114 454.893 605.289 455.473 604.412 455.966L604.129 455.787L603.517 455.488C603.396 455.435 603.271 455.39 603.144 455.354C602.985 455.308 602.816 455.303 602.654 455.34C602.493 455.376 602.343 455.453 602.219 455.563C602.092 455.677 601.997 455.823 601.945 455.986C601.893 456.148 601.884 456.321 601.92 456.488C601.964 456.663 602.024 456.832 602.099 456.996C600.988 457.403 599.79 457.516 598.622 457.324C598.196 456.436 597.823 455.524 597.503 454.593L598.398 454.354C598.733 454.273 599.025 454.071 599.219 453.787C599.314 453.641 599.378 453.477 599.409 453.305C599.44 453.134 599.436 452.957 599.398 452.787C599.32 452.449 599.112 452.154 598.819 451.967C598.526 451.781 598.171 451.716 597.831 451.787C597.473 451.892 597.115 451.966 596.756 452.041C596.399 450.617 596.243 449.15 596.294 447.683H596.383C596.905 447.94 597.404 448.24 597.876 448.579C598.171 448.764 598.528 448.826 598.869 448.751C599.209 448.675 599.507 448.469 599.696 448.176C599.823 447.9 599.853 447.59 599.783 447.296C599.712 447.001 599.545 446.738 599.308 446.549Z" fill="white"/>
<path d="M635.916 455.622C636.185 457.458 631.2 458.682 627.126 459.353C627.454 462.696 629.678 466.069 632.752 469.218C636.603 467.039 642.124 464.174 643.199 464.875C644.273 465.577 638.722 469.352 635.125 471.427C637.629 473.649 640.282 475.699 643.065 477.56C644.796 475.949 646.825 474.576 648.019 475.292C649.213 476.008 648.945 478.59 648.318 480.829C652.526 483.276 655.66 484.754 655.66 484.754C656.881 480.847 657.818 476.857 658.466 472.815C658.257 472.397 658.048 471.964 657.854 471.516C657.183 469.949 657.854 469.293 658.958 469.069C659.256 466.216 659.256 463.34 658.958 460.488C654.213 459.488 648.512 457.637 650.601 454.787C651.9 453.071 654.287 452.877 656.78 453.294C656.447 452.72 656.052 452.185 655.601 451.698C646.96 442.161 640.916 451.698 640.916 451.698C635.901 447.504 628.842 448.713 627.305 455.19C630.2 454.429 635.588 453.354 635.916 455.622Z" fill="#80BCFF"/>
<path opacity="0.5" d="M635.916 455.622C636.185 457.458 631.2 458.682 627.126 459.353C627.454 462.696 629.678 466.069 632.752 469.218C636.603 467.039 642.124 464.174 643.199 464.875C644.273 465.577 638.722 469.352 635.125 471.427C637.629 473.649 640.282 475.699 643.065 477.56C644.796 475.949 646.825 474.576 648.019 475.292C649.213 476.008 648.945 478.59 648.318 480.829C652.526 483.276 655.66 484.754 655.66 484.754C656.881 480.847 657.818 476.857 658.466 472.815C658.257 472.397 658.048 471.964 657.854 471.516C657.183 469.949 657.854 469.293 658.958 469.069C659.256 466.216 659.256 463.34 658.958 460.488C654.213 459.488 648.512 457.637 650.601 454.787C651.9 453.071 654.287 452.877 656.78 453.294C656.447 452.72 656.052 452.185 655.601 451.698C646.96 442.161 640.916 451.698 640.916 451.698C635.901 447.504 628.842 448.713 627.305 455.19C630.2 454.429 635.588 453.354 635.916 455.622Z" fill="white"/>
<path d="M480.784 535.151H472.695V316.787H462.502V535.151H454.414C453.822 535.163 453.259 535.405 452.844 535.826C452.428 536.247 452.194 536.814 452.19 537.405V540.643H483.097V537.405C483.095 537.105 483.034 536.807 482.916 536.531C482.798 536.255 482.627 536.004 482.412 535.795C482.197 535.585 481.942 535.42 481.662 535.31C481.383 535.199 481.084 535.146 480.784 535.151Z" fill="#263238"/>
<path d="M289.641 535.151H281.552V316.787H271.359V535.151H263.27C262.671 535.151 262.097 535.388 261.672 535.811C261.247 536.233 261.006 536.806 261.002 537.405V540.643H291.909V537.405C291.905 536.806 291.664 536.233 291.239 535.811C290.814 535.388 290.24 535.151 289.641 535.151Z" fill="#263238"/>
<g opacity="0.3">
<path d="M480.784 535.151H472.695V316.787H462.503V535.151H454.414C453.823 535.163 453.259 535.405 452.844 535.826C452.429 536.247 452.194 536.814 452.19 537.405V540.643H483.097V537.405C483.095 537.105 483.034 536.807 482.916 536.531C482.798 536.255 482.627 536.004 482.412 535.795C482.197 535.585 481.942 535.42 481.663 535.31C481.383 535.199 481.085 535.146 480.784 535.151Z" fill="white"/>
<path d="M289.641 535.151H281.552V316.787H271.359V535.151H263.27C262.671 535.151 262.097 535.388 261.672 535.811C261.247 536.233 261.006 536.806 261.002 537.405V540.643H291.909V537.405C291.905 536.806 291.664 536.233 291.239 535.811C290.814 535.388 290.24 535.151 289.641 535.151Z" fill="white"/>
</g>
<path d="M516.452 117.808H227.602V330.83H516.452V117.808Z" fill="#263238"/>
<path opacity="0.4" d="M516.452 117.808H227.602V330.83H516.452V117.808Z" fill="white"/>
<path d="M508.975 323.383V125.285L235.049 125.285V323.383H508.975Z" fill="#80BCFF"/>
<path opacity="0.2" d="M508.975 323.383V125.285L235.049 125.285V323.383H508.975Z" fill="black"/>
<path opacity="0.1" d="M487.306 225.349C484.993 222.454 483.067 219.23 480.501 216.395C480.011 215.863 479.653 215.224 479.456 214.529C477.42 214.262 475.35 214.577 473.486 215.44C466.263 218.678 459.682 224.155 453.966 229.558C452.742 230.707 451.489 231.796 450.235 232.9C455.876 226.603 461.517 220.29 467.233 214.052C468.075 213.177 468.734 212.143 469.173 211.01C469.611 209.878 469.819 208.669 469.785 207.455C467.149 204.448 464.236 201.695 461.085 199.232C460.498 198.833 459.992 198.327 459.592 197.74C457.353 197.933 455.281 199.007 453.832 200.725C441.609 214.007 429.506 227.065 416 238.974C417.089 237.482 418.179 235.99 419.224 234.393C426.312 223.872 433.909 213.768 441.833 203.859C447.415 196.875 457.055 188.293 458.831 179.041C458.473 178.593 458.1 178.13 457.712 177.683C457.324 177.235 456.712 176.533 456.22 175.981C455.722 175.886 455.246 175.699 454.817 175.429C452.444 173.937 450.937 170.713 452.832 168.116C453.239 167.536 453.744 167.031 454.324 166.624C457.205 162.998 460.025 159.341 462.711 155.566C462.851 155.368 462.981 155.164 463.099 154.954C461.174 149.417 456.578 145.402 452.101 141.627C450.475 142.014 449.006 142.889 447.892 144.134C442.505 149.969 436.326 155.118 431.342 161.311C425.984 167.952 421.567 175.295 416.492 182.13C416.4 182.233 416.315 182.342 416.239 182.458C410.09 189.293 403.927 196.113 397.957 203.098C392.764 208.351 387.511 213.544 382.377 218.648C374.273 226.856 366.05 235.064 357.514 242.959C359.633 239.825 361.752 236.706 363.931 233.602C373.542 219.917 384.212 207.008 394.495 193.83C399.569 187.338 404.21 180.548 409.12 173.952C413 168.758 418.806 164.012 421.85 158.297C422.479 157.155 422.884 155.904 423.044 154.61C422.697 154.315 422.382 153.985 422.104 153.625C419.558 150.61 416.385 148.186 412.806 146.522C412.01 146.133 411.353 145.507 410.926 144.731C409.49 145.155 408.161 145.883 407.031 146.865C402.209 151.022 397.658 155.484 393.405 160.222C394.797 157.911 395.905 155.441 396.704 152.864C399.121 144.611 389.913 138.537 382.839 142.209L382.227 142.537C381.402 140.172 379.755 138.182 377.585 136.93C375.416 135.679 372.868 135.248 370.408 135.717C367.677 132.076 362.946 130.165 358.603 133.434C340.904 146.955 324.04 161.923 307.34 176.713C305.848 178.056 304.355 179.414 302.863 180.772C305.753 176.224 308.871 171.826 312.205 167.594C316.041 162.729 321.383 157.655 323.428 151.611C323.218 151.483 323.023 151.333 322.846 151.163C318.46 147.177 314.763 142.492 311.907 137.299C311.912 137.254 311.912 137.209 311.907 137.165C304.445 138.836 296.655 143.656 290.357 147.283C282.235 152.101 274.563 157.64 267.434 163.833C267.443 164.613 267.306 165.387 267.031 166.117C266.862 166.539 266.663 166.948 266.434 167.34V168.669C267.049 169.883 267.549 171.152 267.926 172.459C269.086 173.002 270.068 173.861 270.762 174.937C271.427 176.14 271.752 177.502 271.702 178.876C271.702 179.25 271.613 179.623 271.553 179.996C272.264 180.537 272.786 181.289 273.045 182.145C274.759 181.827 276.353 181.048 277.657 179.891C279.627 178.175 281.626 176.518 283.626 174.892C281.044 179.205 278.582 183.592 276.075 187.786C271.687 195.173 267.12 202.337 262.061 209.321C258.226 214.634 253.107 219.26 252.465 225.14C256.032 228.125 258.509 231.96 261.599 235.467C261.756 235.656 261.901 235.856 262.031 236.064C265.26 235.795 268.354 234.655 270.986 232.766C270.165 233.736 269.359 234.721 268.613 235.751C261.852 245.004 252.301 252.48 246.227 262.121C245.499 263.211 244.992 264.433 244.735 265.718L246.854 268.404C247.456 269.079 247.868 269.901 248.049 270.787C248.23 271.673 248.173 272.592 247.884 273.448L248.033 273.583C247.779 273.881 247.526 274.165 247.287 274.478C246.27 275.764 245.547 277.256 245.168 278.851C247.994 283.286 251.522 287.233 255.614 290.536C261.166 290.133 266.061 286.522 270.971 283.701C274.314 281.776 277.642 279.806 280.94 277.732C279.264 279.835 277.86 282.142 276.761 284.596C276.358 285.549 276.091 286.554 275.97 287.581C276.246 287.736 276.51 287.911 276.761 288.104C280.871 291.094 284.685 294.472 288.148 298.192C288.66 298.001 289.158 297.777 289.64 297.52C292.878 295.755 296.003 293.791 298.998 291.64C298.517 293.023 298.27 294.475 298.266 295.939C299.01 295.833 299.767 295.891 300.486 296.107C301.205 296.324 301.868 296.694 302.43 297.192C305.116 299.505 307.28 302.46 309.892 304.803C310.749 304.595 311.563 304.236 312.295 303.744C319.324 298.983 325.278 292.715 331.994 287.521C333.68 286.208 335.382 284.925 337.083 283.641C336.636 284.976 336.473 286.389 336.606 287.79C337.277 287.97 337.903 288.29 338.441 288.73C341.665 291.327 344.814 293.998 348.007 296.64C348.822 296.341 349.591 295.929 350.291 295.416C353.456 293.154 356.449 290.66 359.245 287.954C359.325 288.514 359.445 289.068 359.603 289.611C360.223 289.325 360.906 289.205 361.587 289.262C362.267 289.32 362.92 289.553 363.483 289.939C366.091 291.806 368.582 293.83 370.945 295.998C374.661 295.013 377.243 292.297 380.243 290.029L381.735 288.865C381.928 289.238 382.148 289.597 382.392 289.939C383.334 289.806 384.292 290.03 385.078 290.566C386.359 291.514 387.576 292.546 388.719 293.655L389.212 294.118C390.483 294.361 391.791 294.325 393.047 294.013C399.942 292.163 406.106 287.417 412.015 283.253C410.851 284.596 409.687 285.954 408.553 287.342C404.24 292.64 397.912 298.401 395.719 305.102C396.01 305.382 396.266 305.698 396.48 306.042C397.301 307.4 398.226 308.758 399.211 310.086C402.466 311.994 405.394 314.413 407.881 317.25C408.361 317.126 408.83 316.967 409.284 316.772C416.224 313.787 421.402 308.206 426.596 302.908C430.312 299.147 433.879 295.252 437.356 291.282C437.56 291.806 437.82 292.307 438.132 292.775C438.98 292.504 439.884 292.459 440.755 292.642C441.626 292.825 442.434 293.231 443.102 293.819C444.594 295.058 446.221 296.192 447.817 297.341C449.239 297.253 450.624 296.856 451.877 296.178C453.129 295.501 454.219 294.558 455.07 293.416C462.816 283.343 484.545 255.868 477.307 240.347C480.926 236.852 483.95 232.789 486.261 228.319C486.747 227.383 487.099 226.383 487.306 225.349Z" fill="white"/>
<path opacity="0.1" d="M254.346 224.439C256.659 227.334 258.584 230.557 261.151 233.393C261.64 233.927 262.002 234.565 262.211 235.258C264.247 235.528 266.317 235.212 268.18 234.348C275.403 231.11 281.985 225.632 287.715 220.23C288.924 219.081 290.178 217.977 291.446 216.887C285.79 223.185 280.164 229.498 274.448 235.736C273.604 236.61 272.943 237.644 272.502 238.776C272.061 239.909 271.85 241.117 271.881 242.332C274.521 245.336 277.434 248.089 280.582 250.555C281.168 250.955 281.675 251.461 282.074 252.048C284.314 251.854 286.385 250.781 287.835 249.063C300.057 235.781 312.161 222.722 325.667 210.813C324.592 212.306 323.488 213.798 322.443 215.395C315.354 225.841 307.758 236.019 299.848 245.929C294.252 252.913 284.611 261.494 282.835 270.747C283.208 271.195 283.567 271.657 283.955 272.105C284.343 272.553 284.969 273.254 285.447 273.806C285.945 273.901 286.421 274.089 286.85 274.359C289.223 275.851 290.73 279.075 288.835 281.671C288.432 282.255 287.926 282.761 287.342 283.164C284.462 286.79 281.656 290.446 278.955 294.222C278.815 294.419 278.686 294.623 278.567 294.834C280.507 300.371 285.089 304.37 289.566 308.161C291.193 307.777 292.662 306.901 293.775 305.654C299.177 299.819 305.34 294.67 310.325 288.476C315.683 281.835 320.1 274.493 325.174 267.583L325.443 267.255C331.576 260.42 337.74 253.6 343.709 246.615C348.918 241.362 354.156 236.169 359.29 231.065C367.393 222.857 375.616 214.649 384.153 206.754C382.034 209.888 379.915 213.007 377.736 216.111C368.125 229.796 357.454 242.705 347.172 255.883C342.098 262.375 337.456 269.165 332.546 275.761C328.666 280.955 322.861 285.701 319.816 291.416C319.188 292.558 318.782 293.809 318.623 295.103C318.973 295.394 319.288 295.724 319.563 296.088C322.111 299.107 325.29 301.532 328.875 303.191C329.668 303.58 330.32 304.206 330.741 304.982C332.179 304.563 333.508 303.835 334.636 302.848C339.461 298.663 344.017 294.177 348.276 289.417C346.88 291.727 345.767 294.197 344.963 296.774C342.545 305.027 351.753 311.101 358.827 307.43L359.439 307.101C360.264 309.466 361.912 311.456 364.081 312.708C366.251 313.96 368.798 314.391 371.259 313.922C373.99 317.563 378.721 319.473 383.063 316.205C400.763 302.684 417.627 287.715 434.342 272.926L438.819 268.867C435.929 273.414 432.811 277.812 429.476 282.044C425.641 286.909 420.298 291.984 418.269 298.028C418.473 298.163 418.668 298.312 418.851 298.475C423.163 302.462 426.798 307.124 429.611 312.28C429.611 312.28 429.611 312.369 429.611 312.414C437.073 310.743 444.863 305.922 451.176 302.296C459.29 297.474 466.957 291.935 474.084 285.745C474.074 284.966 474.211 284.191 474.486 283.462C474.661 283.043 474.861 282.634 475.083 282.238C475.083 281.806 475.083 281.358 475.083 280.91C474.462 279.699 473.963 278.429 473.591 277.119C472.432 276.577 471.449 275.718 470.755 274.642C470.091 273.438 469.766 272.077 469.815 270.702C469.815 270.329 469.905 269.956 469.965 269.583C469.28 269.032 468.784 268.28 468.547 267.434C466.829 267.751 465.229 268.53 463.92 269.687C461.95 271.404 459.951 273.06 457.951 274.687C460.518 270.374 462.995 265.986 465.487 261.793C469.875 254.331 474.442 247.242 479.516 240.258C483.336 234.945 488.47 230.319 489.097 224.439C485.53 221.454 483.053 217.618 479.963 214.111C479.806 213.922 479.661 213.723 479.531 213.514C476.303 213.784 473.208 214.924 470.576 216.813C471.397 215.842 472.203 214.858 472.949 213.828C479.71 204.575 489.261 197.098 495.335 187.457C496.063 186.368 496.57 185.146 496.827 183.861L494.708 181.175C494.11 180.497 493.701 179.675 493.52 178.79C493.339 177.905 493.394 176.988 493.678 176.13L493.529 175.996C493.783 175.698 494.037 175.414 494.275 175.101C495.291 173.812 496.018 172.321 496.409 170.728C493.578 166.297 490.05 162.351 485.963 159.043C480.411 159.446 475.516 163.057 470.606 165.878C467.263 167.808 463.94 169.798 460.637 171.847C462.316 169.751 463.72 167.449 464.816 164.997C465.219 164.045 465.486 163.04 465.607 162.012C465.334 161.861 465.074 161.686 464.831 161.49C460.713 158.504 456.894 155.126 453.429 151.402C452.917 151.592 452.419 151.817 451.937 152.073C448.699 153.839 445.574 155.802 442.579 157.953C443.067 156.573 443.314 155.119 443.311 153.655C442.567 153.759 441.81 153.7 441.092 153.484C440.373 153.267 439.71 152.898 439.147 152.402C436.461 150.088 434.297 147.133 431.685 144.79C430.828 144.999 430.014 145.358 429.282 145.85C422.253 150.611 416.299 156.879 409.583 162.072C407.897 163.385 406.195 164.669 404.494 165.952C404.948 164.62 405.111 163.205 404.971 161.804C404.3 161.624 403.674 161.304 403.136 160.863C399.912 158.267 396.763 155.595 393.585 152.954C392.764 153.249 391.99 153.661 391.286 154.177C388.121 156.44 385.128 158.934 382.332 161.639C382.259 161.078 382.139 160.524 381.974 159.983C381.354 160.269 380.671 160.389 379.991 160.332C379.31 160.274 378.657 160.041 378.094 159.654C375.483 157.792 372.991 155.768 370.632 153.595C366.901 154.58 364.319 157.297 361.319 159.565L359.827 160.729C359.634 160.356 359.414 159.997 359.17 159.654C358.228 159.786 357.271 159.563 356.484 159.028C355.207 158.076 353.99 157.044 352.843 155.938L352.35 155.476C351.079 155.233 349.771 155.269 348.515 155.58C341.635 157.431 335.472 162.177 329.562 166.34C330.711 164.997 331.875 163.639 333.009 162.251C337.322 156.953 343.65 151.193 345.844 144.492C345.556 144.208 345.301 143.892 345.082 143.552C344.262 142.194 343.336 140.836 342.366 139.507C339.104 137.604 336.17 135.185 333.681 132.344C333.206 132.467 332.742 132.627 332.293 132.822C325.353 135.806 320.16 141.388 314.966 146.686C311.265 150.447 307.683 154.342 304.221 158.311C304.012 157.787 303.747 157.286 303.43 156.819C302.582 157.089 301.679 157.135 300.808 156.952C299.937 156.769 299.128 156.363 298.461 155.774C296.968 154.536 295.356 153.401 293.745 152.252C292.323 152.341 290.938 152.737 289.685 153.415C288.433 154.093 287.343 155.036 286.492 156.177C278.746 166.251 257.017 193.725 264.255 209.246C260.65 212.72 257.627 216.752 255.301 221.185C254.831 222.219 254.51 223.315 254.346 224.439Z" fill="white"/>
<g filter="url(#filter0_d_1_659)">
<path d="M348.664 189.784L341.464 213H337.128L332.376 197.816C332.301 197.603 332.227 197.368 332.152 197.112C332.077 196.856 332.008 196.584 331.944 196.296C331.88 196.584 331.811 196.856 331.736 197.112C331.661 197.368 331.587 197.603 331.512 197.816L326.712 213H322.36L315.176 189.784H319.208C319.624 189.784 319.971 189.88 320.248 190.072C320.536 190.264 320.723 190.52 320.808 190.84L324.408 203.928C324.493 204.291 324.579 204.685 324.664 205.112C324.76 205.528 324.851 205.971 324.936 206.44C325.032 205.96 325.133 205.512 325.24 205.096C325.347 204.68 325.464 204.291 325.592 203.928L329.784 190.84C329.869 190.573 330.051 190.333 330.328 190.12C330.616 189.896 330.963 189.784 331.368 189.784H332.776C333.192 189.784 333.528 189.885 333.784 190.088C334.051 190.28 334.248 190.531 334.376 190.84L338.552 203.928C338.68 204.269 338.797 204.643 338.904 205.048C339.011 205.443 339.112 205.864 339.208 206.312C339.293 205.864 339.373 205.443 339.448 205.048C339.533 204.643 339.619 204.269 339.704 203.928L343.304 190.84C343.379 190.563 343.56 190.317 343.848 190.104C344.136 189.891 344.483 189.784 344.888 189.784H348.664ZM359.1 202.808C359.1 202.349 359.036 201.912 358.908 201.496C358.791 201.08 358.599 200.712 358.332 200.392C358.066 200.072 357.73 199.821 357.324 199.64C356.919 199.448 356.434 199.352 355.868 199.352C354.812 199.352 353.986 199.651 353.388 200.248C352.791 200.845 352.402 201.699 352.22 202.808H359.1ZM352.156 205.432C352.295 206.979 352.732 208.109 353.468 208.824C354.215 209.539 355.186 209.896 356.38 209.896C356.988 209.896 357.511 209.827 357.948 209.688C358.396 209.539 358.786 209.379 359.116 209.208C359.458 209.027 359.762 208.867 360.028 208.728C360.306 208.579 360.578 208.504 360.844 208.504C361.186 208.504 361.452 208.632 361.644 208.888L362.924 210.488C362.455 211.032 361.938 211.485 361.372 211.848C360.807 212.2 360.22 212.483 359.612 212.696C359.004 212.899 358.391 213.037 357.772 213.112C357.154 213.197 356.556 213.24 355.98 213.24C354.828 213.24 353.751 213.053 352.748 212.68C351.756 212.296 350.887 211.736 350.14 211C349.404 210.253 348.823 209.331 348.396 208.232C347.97 207.133 347.756 205.859 347.756 204.408C347.756 203.288 347.938 202.232 348.3 201.24C348.674 200.248 349.207 199.384 349.9 198.648C350.594 197.912 351.436 197.331 352.428 196.904C353.42 196.467 354.54 196.248 355.788 196.248C356.844 196.248 357.815 196.419 358.7 196.76C359.596 197.091 360.364 197.576 361.004 198.216C361.655 198.856 362.156 199.645 362.508 200.584C362.871 201.512 363.052 202.573 363.052 203.768C363.052 204.099 363.036 204.371 363.004 204.584C362.972 204.797 362.919 204.968 362.844 205.096C362.77 205.224 362.668 205.315 362.54 205.368C362.412 205.411 362.247 205.432 362.044 205.432H352.156ZM385.157 204.184L382.645 197.08C382.495 196.707 382.335 196.269 382.165 195.768C382.005 195.267 381.85 194.723 381.701 194.136C381.551 194.733 381.391 195.288 381.221 195.8C381.061 196.301 380.906 196.739 380.757 197.112L378.261 204.184H385.157ZM393.221 213H389.493C389.077 213 388.735 212.904 388.469 212.712C388.213 212.509 388.021 212.253 387.893 211.944L386.325 207.512H377.077L375.509 211.944C375.402 212.211 375.215 212.456 374.949 212.68C374.682 212.893 374.346 213 373.941 213H370.181L379.253 189.784H384.165L393.221 213ZM398.874 199.224C399.397 198.285 400 197.544 400.682 197C401.365 196.456 402.165 196.184 403.082 196.184C403.829 196.184 404.437 196.36 404.906 196.712L404.618 199.976C404.565 200.189 404.48 200.339 404.362 200.424C404.256 200.499 404.106 200.536 403.914 200.536C403.744 200.536 403.498 200.515 403.178 200.472C402.858 200.419 402.56 200.392 402.282 200.392C401.877 200.392 401.514 200.451 401.194 200.568C400.885 200.685 400.608 200.851 400.362 201.064C400.117 201.277 399.893 201.539 399.69 201.848C399.498 202.157 399.317 202.509 399.146 202.904V213H394.73V196.504H397.338C397.786 196.504 398.096 196.584 398.266 196.744C398.437 196.904 398.56 197.181 398.634 197.576L398.874 199.224ZM416.882 202.808C416.882 202.349 416.818 201.912 416.69 201.496C416.572 201.08 416.38 200.712 416.114 200.392C415.847 200.072 415.511 199.821 415.106 199.64C414.7 199.448 414.215 199.352 413.65 199.352C412.594 199.352 411.767 199.651 411.17 200.248C410.572 200.845 410.183 201.699 410.002 202.808H416.882ZM409.938 205.432C410.076 206.979 410.514 208.109 411.25 208.824C411.996 209.539 412.967 209.896 414.162 209.896C414.77 209.896 415.292 209.827 415.73 209.688C416.178 209.539 416.567 209.379 416.898 209.208C417.239 209.027 417.543 208.867 417.81 208.728C418.087 208.579 418.359 208.504 418.626 208.504C418.967 208.504 419.234 208.632 419.426 208.888L420.706 210.488C420.236 211.032 419.719 211.485 419.154 211.848C418.588 212.2 418.002 212.483 417.394 212.696C416.786 212.899 416.172 213.037 415.554 213.112C414.935 213.197 414.338 213.24 413.762 213.24C412.61 213.24 411.532 213.053 410.53 212.68C409.538 212.296 408.668 211.736 407.922 211C407.186 210.253 406.604 209.331 406.178 208.232C405.751 207.133 405.538 205.859 405.538 204.408C405.538 203.288 405.719 202.232 406.082 201.24C406.455 200.248 406.988 199.384 407.682 198.648C408.375 197.912 409.218 197.331 410.21 196.904C411.202 196.467 412.322 196.248 413.57 196.248C414.626 196.248 415.596 196.419 416.482 196.76C417.378 197.091 418.146 197.576 418.786 198.216C419.436 198.856 419.938 199.645 420.29 200.584C420.652 201.512 420.834 202.573 420.834 203.768C420.834 204.099 420.818 204.371 420.786 204.584C420.754 204.797 420.7 204.968 420.626 205.096C420.551 205.224 420.45 205.315 420.322 205.368C420.194 205.411 420.028 205.432 419.826 205.432H409.938Z" fill="white"/>
</g>
<g filter="url(#filter1_d_1_659)">
<path d="M328.264 227.544V233.512H336.008V237.144H328.264V243.24H338.216V247H323.432V223.784H338.216V227.544H328.264ZM356.415 247H352.175C351.855 247 351.594 246.92 351.391 246.76C351.199 246.6 351.044 246.413 350.927 246.2L347.679 240.776C347.583 241.139 347.444 241.459 347.263 241.736L344.479 246.2C344.351 246.403 344.191 246.589 343.999 246.76C343.818 246.92 343.583 247 343.295 247H339.359L344.959 238.488L339.583 230.504H343.823C344.143 230.504 344.378 230.547 344.527 230.632C344.676 230.717 344.81 230.856 344.927 231.048L348.159 236.28C348.212 236.099 348.282 235.917 348.367 235.736C348.452 235.544 348.554 235.357 348.671 235.176L351.151 231.128C351.407 230.712 351.738 230.504 352.143 230.504H356.191L350.815 238.296L356.415 247ZM362.646 242.648C363.062 243.128 363.51 243.464 363.99 243.656C364.481 243.848 365.004 243.944 365.558 243.944C366.092 243.944 366.577 243.843 367.014 243.64C367.452 243.437 367.825 243.123 368.134 242.696C368.454 242.259 368.7 241.704 368.87 241.032C369.041 240.36 369.126 239.56 369.126 238.632C369.126 237.715 369.052 236.936 368.902 236.296C368.764 235.656 368.561 235.139 368.294 234.744C368.038 234.349 367.724 234.067 367.35 233.896C366.977 233.715 366.561 233.624 366.102 233.624C365.324 233.624 364.668 233.779 364.134 234.088C363.612 234.387 363.116 234.829 362.646 235.416V242.648ZM362.39 232.664C362.721 232.301 363.073 231.971 363.446 231.672C363.82 231.363 364.22 231.101 364.646 230.888C365.073 230.664 365.532 230.493 366.022 230.376C366.513 230.248 367.046 230.184 367.622 230.184C368.508 230.184 369.318 230.376 370.054 230.76C370.801 231.133 371.441 231.683 371.974 232.408C372.508 233.123 372.924 234.003 373.222 235.048C373.521 236.093 373.67 237.288 373.67 238.632C373.67 239.869 373.5 241.016 373.158 242.072C372.828 243.117 372.353 244.024 371.734 244.792C371.116 245.56 370.369 246.163 369.494 246.6C368.63 247.027 367.665 247.24 366.598 247.24C365.702 247.24 364.94 247.107 364.31 246.84C363.692 246.573 363.137 246.211 362.646 245.752V252.328H358.23V230.504H360.95C361.505 230.504 361.873 230.76 362.054 231.272L362.39 232.664ZM386.975 236.808C386.975 236.349 386.911 235.912 386.783 235.496C386.666 235.08 386.474 234.712 386.207 234.392C385.941 234.072 385.605 233.821 385.199 233.64C384.794 233.448 384.309 233.352 383.743 233.352C382.687 233.352 381.861 233.651 381.263 234.248C380.666 234.845 380.277 235.699 380.095 236.808H386.975ZM380.031 239.432C380.17 240.979 380.607 242.109 381.343 242.824C382.09 243.539 383.061 243.896 384.255 243.896C384.863 243.896 385.386 243.827 385.823 243.688C386.271 243.539 386.661 243.379 386.991 243.208C387.333 243.027 387.637 242.867 387.903 242.728C388.181 242.579 388.453 242.504 388.719 242.504C389.061 242.504 389.327 242.632 389.519 242.888L390.799 244.488C390.33 245.032 389.813 245.485 389.247 245.848C388.682 246.2 388.095 246.483 387.487 246.696C386.879 246.899 386.266 247.037 385.647 247.112C385.029 247.197 384.431 247.24 383.855 247.24C382.703 247.24 381.626 247.053 380.623 246.68C379.631 246.296 378.762 245.736 378.015 245C377.279 244.253 376.698 243.331 376.271 242.232C375.845 241.133 375.631 239.859 375.631 238.408C375.631 237.288 375.813 236.232 376.175 235.24C376.549 234.248 377.082 233.384 377.775 232.648C378.469 231.912 379.311 231.331 380.303 230.904C381.295 230.467 382.415 230.248 383.663 230.248C384.719 230.248 385.69 230.419 386.575 230.76C387.471 231.091 388.239 231.576 388.879 232.216C389.53 232.856 390.031 233.645 390.383 234.584C390.746 235.512 390.927 236.573 390.927 237.768C390.927 238.099 390.911 238.371 390.879 238.584C390.847 238.797 390.794 238.968 390.719 239.096C390.645 239.224 390.543 239.315 390.415 239.368C390.287 239.411 390.122 239.432 389.919 239.432H380.031ZM397.812 233.224C398.334 232.285 398.937 231.544 399.62 231C400.302 230.456 401.102 230.184 402.02 230.184C402.766 230.184 403.374 230.36 403.844 230.712L403.556 233.976C403.502 234.189 403.417 234.339 403.3 234.424C403.193 234.499 403.044 234.536 402.852 234.536C402.681 234.536 402.436 234.515 402.116 234.472C401.796 234.419 401.497 234.392 401.22 234.392C400.814 234.392 400.452 234.451 400.132 234.568C399.822 234.685 399.545 234.851 399.3 235.064C399.054 235.277 398.83 235.539 398.628 235.848C398.436 236.157 398.254 236.509 398.084 236.904V247H393.668V230.504H396.276C396.724 230.504 397.033 230.584 397.204 230.744C397.374 230.904 397.497 231.181 397.572 231.576L397.812 233.224ZM411.426 247.256C410.68 247.256 410.018 247.149 409.442 246.936C408.866 246.712 408.381 246.397 407.986 245.992C407.592 245.587 407.293 245.096 407.09 244.52C406.888 243.944 406.786 243.293 406.786 242.568V233.672H405.234C405 233.672 404.797 233.597 404.626 233.448C404.466 233.299 404.386 233.075 404.386 232.776V231.048L407.026 230.568L407.922 226.296C408.04 225.816 408.365 225.576 408.898 225.576H411.202V230.6H415.458V233.672H411.202V242.28C411.202 242.739 411.309 243.101 411.522 243.368C411.746 243.635 412.061 243.768 412.466 243.768C412.68 243.768 412.861 243.747 413.01 243.704C413.16 243.651 413.288 243.597 413.394 243.544C413.501 243.48 413.597 243.427 413.682 243.384C413.778 243.331 413.874 243.304 413.97 243.304C414.098 243.304 414.205 243.336 414.29 243.4C414.376 243.453 414.461 243.549 414.546 243.688L415.874 245.8C415.266 246.28 414.578 246.643 413.81 246.888C413.042 247.133 412.248 247.256 411.426 247.256Z" fill="white"/>
</g>
<path d="M459.846 209.037L442.654 218.529C442.498 218.6 442.319 218.608 442.157 218.549C441.995 218.491 441.863 218.371 441.789 218.215C441.741 218.145 441.708 218.066 441.691 217.983C441.675 217.899 441.674 217.814 441.691 217.73C441.708 217.647 441.741 217.568 441.788 217.497C441.836 217.427 441.897 217.367 441.968 217.32L458.667 208.112L453.937 198.695C453.894 198.623 453.867 198.543 453.856 198.46C453.845 198.377 453.851 198.293 453.873 198.212C453.896 198.131 453.934 198.056 453.986 197.99C454.038 197.925 454.102 197.87 454.175 197.83C454.338 197.765 454.519 197.766 454.681 197.833C454.843 197.9 454.972 198.027 455.041 198.188L460.055 208.187C460.131 208.329 460.152 208.495 460.113 208.652C460.075 208.809 459.98 208.946 459.846 209.037Z" fill="white"/>
<path d="M465.398 221.29H465.293C465.125 221.334 464.946 221.314 464.792 221.234C464.638 221.154 464.518 221.02 464.457 220.857L461.144 213.171C458.16 214.902 445.922 222.364 444.728 223.23C444.581 223.313 444.407 223.337 444.243 223.295C444.079 223.253 443.937 223.15 443.848 223.006C443.74 222.87 443.69 222.698 443.707 222.525C443.723 222.353 443.806 222.194 443.937 222.081C445.31 221.096 460.353 212.007 460.95 211.634C461.031 211.593 461.121 211.572 461.212 211.572C461.302 211.572 461.392 211.593 461.473 211.634C461.655 211.715 461.803 211.858 461.891 212.037L465.577 220.544C465.636 220.67 465.651 220.813 465.619 220.948C465.586 221.084 465.508 221.205 465.398 221.29Z" fill="white"/>
<path d="M470.576 217.977H470.486C470.318 218.03 470.136 218.016 469.977 217.938C469.819 217.86 469.697 217.724 469.636 217.559L465.785 208.724C465.716 208.579 465.703 208.415 465.747 208.261C465.791 208.107 465.889 207.974 466.024 207.888L483.53 199.173C483.69 199.107 483.87 199.106 484.032 199.17C484.193 199.234 484.323 199.358 484.395 199.516C484.441 199.588 484.471 199.668 484.484 199.752C484.497 199.836 484.493 199.922 484.472 200.004C484.451 200.086 484.414 200.164 484.362 200.231C484.31 200.299 484.246 200.355 484.171 200.396L467.114 208.933L470.71 217.201C470.78 217.326 470.805 217.471 470.78 217.612C470.756 217.753 470.684 217.882 470.576 217.977Z" fill="white"/>
<path d="M480.545 195.815L465.159 205.664C465.008 205.745 464.832 205.764 464.667 205.716C464.503 205.669 464.363 205.559 464.279 205.411L458.16 196.068C458.107 196.001 458.068 195.924 458.045 195.841C458.023 195.759 458.017 195.673 458.028 195.588C458.039 195.503 458.067 195.421 458.11 195.348C458.153 195.274 458.211 195.209 458.279 195.158C458.429 195.08 458.603 195.061 458.766 195.105C458.929 195.149 459.07 195.253 459.16 195.397L464.905 204.172L479.829 194.651C479.98 194.57 480.156 194.551 480.321 194.598C480.485 194.646 480.625 194.756 480.71 194.904C480.76 194.974 480.796 195.054 480.815 195.138C480.835 195.222 480.837 195.309 480.821 195.394C480.806 195.479 480.774 195.56 480.726 195.633C480.679 195.705 480.617 195.767 480.545 195.815Z" fill="white"/>
<path d="M465.711 201.545C465.621 201.601 465.518 201.63 465.413 201.63C465.307 201.63 465.204 201.601 465.114 201.545C464.955 201.462 464.831 201.324 464.765 201.157C464.699 200.99 464.696 200.804 464.756 200.635L469.785 187.845C469.816 187.769 469.863 187.7 469.924 187.644C469.984 187.588 470.056 187.547 470.135 187.522C470.214 187.498 470.297 187.492 470.378 187.504C470.46 187.516 470.538 187.546 470.606 187.592C470.761 187.679 470.881 187.818 470.947 187.983C471.012 188.149 471.018 188.332 470.964 188.502L465.92 201.292C465.876 201.395 465.804 201.483 465.711 201.545Z" fill="white"/>
<path d="M469.383 201.262C469.286 201.328 469.172 201.364 469.055 201.364C468.937 201.364 468.823 201.328 468.726 201.262C468.574 201.169 468.462 201.023 468.41 200.853C468.357 200.683 468.369 200.499 468.443 200.337L474.129 188.816C474.166 188.743 474.219 188.679 474.284 188.63C474.349 188.58 474.424 188.545 474.504 188.528C474.584 188.511 474.667 188.512 474.746 188.531C474.826 188.549 474.901 188.586 474.964 188.637C475.116 188.73 475.229 188.875 475.281 189.046C475.333 189.216 475.322 189.4 475.248 189.562L469.577 201.083C469.525 201.155 469.459 201.216 469.383 201.262Z" fill="white"/>
<path d="M482.247 212.246C482.145 212.311 482.023 212.337 481.904 212.321L468.472 211.007C468.296 210.982 468.134 210.895 468.016 210.761C467.898 210.626 467.832 210.454 467.831 210.276C467.821 210.195 467.83 210.113 467.856 210.037C467.883 209.96 467.927 209.89 467.984 209.833C468.042 209.775 468.111 209.732 468.188 209.705C468.265 209.678 468.347 209.669 468.427 209.679L481.859 210.992C482.036 211.014 482.199 211.098 482.32 211.229C482.44 211.36 482.51 211.531 482.516 211.709C482.524 211.814 482.503 211.92 482.456 212.015C482.409 212.109 482.336 212.189 482.247 212.246Z" fill="white"/>
<path d="M487.231 207.321C487.138 207.382 487.029 207.413 486.918 207.411L471.397 206.724C471.218 206.707 471.051 206.627 470.926 206.499C470.8 206.371 470.724 206.202 470.711 206.023C470.697 205.942 470.702 205.859 470.725 205.78C470.747 205.701 470.787 205.629 470.842 205.567C470.896 205.506 470.963 205.457 471.039 205.425C471.114 205.393 471.196 205.378 471.278 205.381L486.798 206.068C486.978 206.082 487.147 206.161 487.273 206.29C487.399 206.418 487.475 206.589 487.485 206.769C487.501 206.876 487.486 206.985 487.441 207.083C487.396 207.181 487.323 207.264 487.231 207.321Z" fill="white"/>
<path d="M490.738 211.276H490.634C479.784 215.052 448.175 232.274 447.862 232.438C447.705 232.509 447.527 232.517 447.365 232.458C447.203 232.399 447.071 232.28 446.996 232.124C446.949 232.054 446.916 231.975 446.899 231.892C446.882 231.808 446.882 231.722 446.899 231.639C446.916 231.556 446.949 231.477 446.996 231.406C447.044 231.336 447.105 231.276 447.176 231.229C447.489 231.065 478.127 214.38 489.544 210.201C488.052 206.545 480.396 188.01 476.113 183.488C475.993 183.36 475.927 183.192 475.927 183.018C475.927 182.843 475.993 182.675 476.113 182.548C476.169 182.486 476.237 182.438 476.312 182.404C476.388 182.371 476.47 182.354 476.553 182.354C476.636 182.354 476.718 182.371 476.793 182.404C476.869 182.438 476.937 182.486 476.993 182.548C481.888 187.741 490.574 209.41 490.947 210.365C490.998 210.437 491.033 210.519 491.05 210.606C491.067 210.692 491.066 210.781 491.046 210.867C491.026 210.953 490.989 211.034 490.936 211.104C490.882 211.175 490.815 211.233 490.738 211.276Z" fill="white"/>
<path d="M445.355 233.169H445.161C444.986 233.188 444.811 233.142 444.668 233.041C444.525 232.939 444.424 232.788 444.385 232.617C440.699 219.081 431.745 205.993 431.655 205.873C431.597 205.795 431.555 205.706 431.532 205.611C431.509 205.516 431.505 205.418 431.521 205.321C431.532 205.236 431.564 205.156 431.614 205.085C431.663 205.015 431.728 204.958 431.804 204.918C444.176 198.382 473.8 181.458 474.098 181.279C474.255 181.206 474.434 181.196 474.598 181.251C474.763 181.307 474.899 181.424 474.979 181.578C475.076 181.722 475.111 181.899 475.077 182.07C475.044 182.24 474.944 182.391 474.8 182.488C474.516 182.652 445.758 199.068 433.013 205.814C434.864 208.649 442.236 220.335 445.519 232.408C445.591 232.533 445.613 232.679 445.583 232.82C445.553 232.961 445.472 233.085 445.355 233.169Z" fill="white"/>
<path d="M457.19 205.948C457.098 206.011 456.987 206.038 456.876 206.023L438.341 204.978C438.161 204.964 437.992 204.885 437.866 204.756C437.74 204.627 437.665 204.457 437.655 204.277C437.643 204.195 437.65 204.113 437.675 204.035C437.7 203.957 437.741 203.885 437.797 203.825C437.853 203.765 437.921 203.718 437.997 203.688C438.073 203.658 438.155 203.645 438.237 203.65L456.772 204.694C456.949 204.712 457.114 204.792 457.237 204.921C457.361 205.05 457.434 205.218 457.443 205.396C457.46 205.503 457.445 205.612 457.399 205.71C457.354 205.808 457.281 205.891 457.19 205.948Z" fill="white"/>
<path d="M452.638 210.425C452.539 210.486 452.425 210.517 452.309 210.515L436.416 209.47C436.237 209.453 436.07 209.373 435.944 209.245C435.819 209.117 435.742 208.948 435.729 208.769C435.718 208.686 435.725 208.602 435.75 208.523C435.776 208.444 435.819 208.371 435.876 208.311C435.933 208.251 436.004 208.204 436.082 208.175C436.16 208.146 436.243 208.134 436.326 208.142L452.22 209.172C452.397 209.195 452.561 209.28 452.683 209.41C452.806 209.541 452.879 209.709 452.891 209.888C452.901 209.992 452.883 210.097 452.838 210.191C452.794 210.286 452.724 210.367 452.638 210.425Z" fill="white"/>
<path d="M447.086 230.617C446.985 230.693 446.862 230.735 446.735 230.735C446.609 230.735 446.485 230.693 446.384 230.617C446.242 230.512 446.142 230.359 446.103 230.186C446.065 230.013 446.091 229.832 446.175 229.677L455.428 215.096C455.475 215.027 455.536 214.97 455.607 214.927C455.678 214.884 455.758 214.858 455.84 214.849C455.923 214.841 456.006 214.85 456.084 214.878C456.163 214.905 456.234 214.949 456.294 215.007C456.437 215.112 456.536 215.265 456.575 215.438C456.613 215.611 456.588 215.791 456.503 215.947L447.25 230.513C447.204 230.559 447.148 230.595 447.086 230.617Z" fill="white"/>
<path d="M454.772 225.707C454.661 225.769 454.535 225.795 454.409 225.781C454.283 225.768 454.165 225.716 454.07 225.633C453.927 225.528 453.827 225.375 453.789 225.202C453.751 225.029 453.776 224.848 453.861 224.692L460.04 214.947C460.086 214.879 460.147 214.822 460.218 214.78C460.288 214.737 460.367 214.71 460.449 214.7C460.531 214.69 460.614 214.698 460.692 214.722C460.771 214.747 460.844 214.788 460.905 214.843C461.048 214.948 461.148 215.101 461.186 215.274C461.225 215.447 461.199 215.627 461.114 215.783L454.936 225.543C454.893 225.609 454.837 225.664 454.772 225.707Z" fill="white"/>
<path d="M450.37 253.973C450.176 254.003 449.978 253.956 449.819 253.841C449.66 253.727 449.552 253.554 449.519 253.361C444.012 221.603 430.238 204.918 430.118 204.754C430.054 204.68 430.006 204.594 429.976 204.501C429.945 204.408 429.934 204.31 429.942 204.213C429.951 204.116 429.979 204.021 430.024 203.934C430.07 203.848 430.132 203.771 430.208 203.71C430.361 203.583 430.558 203.522 430.756 203.539C430.954 203.555 431.137 203.649 431.267 203.799C431.402 203.963 445.43 220.932 450.997 253.048C451.014 253.145 451.011 253.244 450.99 253.34C450.968 253.436 450.928 253.527 450.871 253.608C450.814 253.688 450.742 253.757 450.658 253.809C450.575 253.862 450.482 253.897 450.385 253.913L450.37 253.973Z" fill="white"/>
<g opacity="0.4">
<path d="M493.782 297.356C493.709 297.378 493.631 297.378 493.558 297.356L482.903 289.79C481.052 290.641 467.293 296.401 457.368 286.402C453.085 282.104 452.891 275.478 456.921 269.508C459.692 265.367 463.827 262.328 468.607 260.921C473.387 259.514 478.509 259.828 483.082 261.808C489.201 264.375 492.827 267.777 493.857 272.046C495.349 278.239 490.768 283.761 490.574 283.985C490.545 284.028 490.507 284.065 490.462 284.094C490.418 284.122 490.368 284.14 490.316 284.147C490.264 284.155 490.211 284.151 490.16 284.137C490.11 284.122 490.063 284.097 490.023 284.063C489.982 284.03 489.95 283.988 489.927 283.94C489.904 283.893 489.892 283.841 489.89 283.789C489.889 283.736 489.898 283.684 489.918 283.635C489.938 283.587 489.968 283.543 490.007 283.507C490.007 283.507 494.484 278.015 493.126 272.21C492.156 268.21 488.649 264.942 482.784 262.479C478.368 260.577 473.426 260.282 468.816 261.645C464.205 263.008 460.218 265.944 457.547 269.941C454.563 274.418 453.07 281 457.891 285.895C468.128 296.177 482.619 289.118 482.769 289.044C482.828 289.011 482.895 288.994 482.963 288.994C483.03 288.994 483.097 289.011 483.157 289.044L492.484 295.64L488.813 289.521C488.782 289.479 488.761 289.431 488.75 289.38C488.739 289.329 488.739 289.276 488.749 289.225C488.76 289.174 488.782 289.126 488.812 289.083C488.843 289.041 488.882 289.006 488.927 288.979C488.972 288.953 489.022 288.937 489.074 288.931C489.126 288.925 489.179 288.931 489.228 288.947C489.278 288.962 489.324 288.989 489.363 289.023C489.402 289.058 489.433 289.101 489.454 289.148L494.096 296.819C494.145 296.886 494.172 296.967 494.172 297.05C494.172 297.134 494.145 297.215 494.096 297.282C494.054 297.319 494.003 297.345 493.948 297.358C493.894 297.371 493.837 297.37 493.782 297.356Z" fill="white"/>
</g>
<g opacity="0.4">
<path d="M277.582 310.773C277.527 310.772 277.474 310.76 277.425 310.737C277.376 310.714 277.333 310.68 277.298 310.639C277.248 310.572 277.222 310.491 277.222 310.407C277.222 310.324 277.248 310.243 277.298 310.176L280.925 305.326L267.881 305.803C267.832 305.805 267.783 305.798 267.737 305.781C267.691 305.764 267.649 305.738 267.613 305.705C267.577 305.671 267.548 305.631 267.527 305.587C267.507 305.542 267.495 305.494 267.493 305.445C267.493 305.347 267.53 305.253 267.596 305.181C267.662 305.109 267.754 305.065 267.851 305.057L281.686 304.55C281.755 304.548 281.823 304.566 281.884 304.6C281.944 304.634 281.994 304.684 282.029 304.744C282.062 304.806 282.079 304.875 282.079 304.945C282.079 305.015 282.062 305.084 282.029 305.147L278.82 309.43L285.924 306.117C285.973 306.103 286.024 306.103 286.073 306.117H304.609V285.313C289.595 285.119 267.299 284.97 265.449 285.313C265.165 286.268 266.254 292.417 267.493 297.968C267.504 298.016 267.506 298.066 267.497 298.115C267.489 298.163 267.471 298.21 267.445 298.251C267.418 298.293 267.384 298.329 267.344 298.357C267.303 298.385 267.258 298.405 267.21 298.416C267.162 298.427 267.114 298.428 267.066 298.42C267.018 298.411 266.973 298.393 266.933 298.367C266.892 298.34 266.858 298.306 266.831 298.265C266.804 298.225 266.786 298.18 266.777 298.132C264.867 289.611 264.285 285.074 265.031 284.701C265.777 284.328 295.848 284.537 304.997 284.701C305.093 284.705 305.184 284.746 305.251 284.815C305.318 284.885 305.355 284.978 305.355 285.074V306.594C305.355 306.693 305.315 306.788 305.245 306.858C305.175 306.928 305.081 306.967 304.982 306.967H286.133L277.761 310.877L277.582 310.773Z" fill="white"/>
</g>
<g opacity="0.4">
<path d="M469.964 174.608C469.905 174.608 469.847 174.592 469.794 174.564C469.742 174.535 469.698 174.494 469.666 174.444L463.875 166.579L442.609 169.161C442.562 169.167 442.513 169.164 442.467 169.151C442.421 169.138 442.378 169.116 442.34 169.086C442.3 169.057 442.267 169.019 442.244 168.975C442.221 168.931 442.208 168.882 442.206 168.833L439.52 146.253C439.513 146.203 439.515 146.152 439.528 146.104C439.541 146.055 439.564 146.009 439.595 145.969C439.667 145.896 439.761 145.849 439.863 145.835L472.576 143.268C472.674 143.264 472.77 143.297 472.845 143.36C472.92 143.424 472.968 143.514 472.979 143.611C472.983 143.71 472.95 143.806 472.887 143.881C472.823 143.955 472.733 144.003 472.636 144.014L440.251 146.537L442.833 168.295L463.935 165.743C464 165.736 464.067 165.746 464.127 165.772C464.187 165.798 464.239 165.84 464.278 165.893L468.756 171.862L466.636 165.893C466.615 165.846 466.604 165.795 466.604 165.743C466.604 165.692 466.615 165.641 466.636 165.594C466.663 165.546 466.7 165.504 466.743 165.471C466.787 165.438 466.837 165.414 466.89 165.4L474.785 163.908L472.785 147.745C472.776 147.647 472.805 147.549 472.866 147.471C472.927 147.394 473.016 147.342 473.113 147.327C473.162 147.321 473.212 147.325 473.26 147.338C473.307 147.351 473.352 147.374 473.391 147.404C473.43 147.435 473.462 147.473 473.486 147.516C473.51 147.559 473.526 147.607 473.531 147.656L475.576 164.161C475.582 164.257 475.553 164.352 475.496 164.428C475.438 164.505 475.356 164.558 475.262 164.579L467.457 166.072L470.293 173.996C470.322 174.082 470.319 174.175 470.287 174.26C470.254 174.344 470.193 174.415 470.114 174.459C470.078 174.521 470.027 174.573 469.964 174.608Z" fill="white"/>
</g>
<g opacity="0.4">
<path d="M279.627 175.115C270.523 175.115 260.136 171.399 257.823 164.281C254.033 152.625 267.225 145.566 269.628 144.402L263.748 133.821C263.71 133.745 263.698 133.658 263.714 133.575C263.731 133.491 263.774 133.415 263.838 133.359C263.903 133.307 263.985 133.278 264.069 133.278C264.153 133.278 264.234 133.307 264.3 133.359L274.448 140.686C274.496 140.711 274.538 140.745 274.572 140.788C274.605 140.83 274.629 140.879 274.641 140.931C274.654 140.984 274.655 141.038 274.644 141.091C274.634 141.144 274.612 141.194 274.58 141.237C274.549 141.281 274.508 141.317 274.461 141.344C274.414 141.37 274.362 141.386 274.309 141.39C274.255 141.395 274.201 141.387 274.15 141.369C274.1 141.35 274.054 141.321 274.016 141.283L265.225 134.941L270.479 144.402C270.501 144.449 270.513 144.5 270.513 144.552C270.513 144.603 270.501 144.654 270.479 144.701C270.445 144.797 270.375 144.877 270.285 144.925C270.12 144.925 254.585 151.969 258.51 164.072C260.435 169.967 269.479 174.384 279.612 174.384H279.761C289.984 174.384 297.446 170.011 299.714 162.803C300.337 161.204 300.567 159.48 300.385 157.774C300.203 156.068 299.615 154.43 298.67 152.998C293.491 145.641 278.433 144.954 278.284 144.954C278.235 144.953 278.187 144.941 278.142 144.92C278.098 144.9 278.057 144.871 278.024 144.835C277.991 144.799 277.965 144.756 277.948 144.71C277.931 144.664 277.924 144.615 277.926 144.566C277.925 144.517 277.936 144.468 277.955 144.422C277.975 144.377 278.004 144.336 278.041 144.302C278.077 144.268 278.12 144.243 278.167 144.226C278.214 144.21 278.264 144.204 278.314 144.208C278.94 144.208 293.879 144.91 299.281 152.566C300.293 154.089 300.925 155.833 301.122 157.651C301.319 159.469 301.077 161.307 300.416 163.012C298.043 170.549 290.327 175.056 279.776 175.115H279.627Z" fill="white"/>
</g>
<g opacity="0.4">
<path d="M350.932 157.879C350.843 157.88 350.756 157.849 350.688 157.791C350.619 157.734 350.574 157.653 350.559 157.565L349.41 149.268L341.128 147.775C341.044 147.762 340.968 147.721 340.911 147.658C340.854 147.596 340.82 147.516 340.814 147.432C340.811 147.345 340.837 147.259 340.889 147.189C340.94 147.118 341.014 147.067 341.098 147.044L349.38 144.835V133.911C349.38 133.812 349.42 133.717 349.49 133.647C349.56 133.577 349.655 133.538 349.754 133.538C349.852 133.538 349.947 133.577 350.017 133.647C350.087 133.717 350.127 133.812 350.127 133.911V145.119C350.126 145.201 350.097 145.281 350.046 145.346C349.995 145.411 349.923 145.457 349.843 145.477L342.918 147.327L349.813 148.536C349.891 148.546 349.964 148.583 350.018 148.64C350.072 148.697 350.105 148.771 350.112 148.85L351.246 157.073L387.167 154.954V132.046H352.708C352.609 132.046 352.515 132.006 352.445 131.936C352.375 131.866 352.335 131.771 352.335 131.672C352.335 131.573 352.375 131.479 352.445 131.409C352.515 131.339 352.609 131.299 352.708 131.299H387.54C387.638 131.303 387.731 131.344 387.8 131.413C387.869 131.482 387.91 131.575 387.914 131.672V155.342C387.91 155.437 387.872 155.528 387.806 155.596C387.74 155.665 387.651 155.707 387.555 155.715L350.947 157.879H350.932Z" fill="white"/>
</g>
<g opacity="0.4">
<path d="M384.302 315.429C384.241 315.428 384.18 315.413 384.126 315.385C384.071 315.356 384.024 315.315 383.989 315.265L379.512 308.609C379.484 308.568 379.464 308.522 379.454 308.473C379.445 308.425 379.444 308.374 379.454 308.326C379.464 308.277 379.483 308.231 379.511 308.19C379.539 308.149 379.575 308.114 379.616 308.087C379.656 308.059 379.701 308.04 379.748 308.03C379.796 308.02 379.845 308.021 379.892 308.03C379.94 308.04 379.984 308.059 380.024 308.087C380.064 308.115 380.098 308.15 380.123 308.191L384.048 314.026L384.81 308.34C384.823 308.264 384.858 308.194 384.911 308.138C384.964 308.082 385.033 308.044 385.108 308.027C385.198 308.027 394.614 305.893 397.331 300.774C397.778 299.914 398.025 298.964 398.054 297.995C398.082 297.025 397.891 296.062 397.495 295.177C395.331 289.76 382.571 288.865 372.438 291.447C365.379 293.237 361.23 296.312 361.603 299.476C362.678 308.504 368.692 308.042 368.946 308.027C368.994 308.021 369.043 308.024 369.09 308.038C369.136 308.051 369.18 308.074 369.218 308.104C369.255 308.135 369.286 308.173 369.309 308.216C369.331 308.259 369.345 308.307 369.349 308.355C369.357 308.454 369.328 308.551 369.267 308.629C369.206 308.707 369.118 308.758 369.02 308.773C368.946 308.773 362.036 309.34 360.872 299.565C360.439 295.954 364.692 292.64 372.244 290.715C381.482 288.357 395.629 288.507 398.181 294.909C398.621 295.891 398.832 296.96 398.799 298.035C398.765 299.111 398.488 300.165 397.987 301.117C395.346 306.117 387.108 308.31 385.526 308.698L384.66 315.101C384.648 315.175 384.615 315.244 384.565 315.299C384.515 315.355 384.449 315.395 384.377 315.414L384.302 315.429Z" fill="white"/>
</g>
<path d="M271.523 201.545C271.615 201.601 271.721 201.63 271.829 201.63C271.936 201.63 272.042 201.601 272.135 201.545C272.292 201.46 272.414 201.322 272.479 201.155C272.545 200.989 272.55 200.805 272.493 200.635L267.464 187.845C267.433 187.769 267.386 187.7 267.325 187.644C267.265 187.588 267.192 187.547 267.114 187.522C267.035 187.498 266.952 187.492 266.87 187.504C266.789 187.516 266.711 187.546 266.643 187.592C266.486 187.677 266.364 187.815 266.298 187.982C266.233 188.148 266.228 188.332 266.285 188.502L271.314 201.292C271.358 201.395 271.43 201.483 271.523 201.545Z" fill="white"/>
<path d="M267.866 201.262C267.963 201.328 268.078 201.364 268.195 201.364C268.312 201.364 268.426 201.328 268.523 201.262C268.673 201.167 268.783 201.021 268.835 200.852C268.887 200.682 268.877 200.5 268.807 200.337L263.121 188.816C263.083 188.743 263.03 188.679 262.965 188.63C262.9 188.58 262.825 188.545 262.745 188.528C262.665 188.511 262.583 188.512 262.503 188.531C262.423 188.549 262.349 188.586 262.285 188.637C262.133 188.73 262.019 188.874 261.964 189.044C261.91 189.214 261.917 189.397 261.987 189.562L267.672 201.083C267.721 201.158 267.788 201.22 267.866 201.262Z" fill="white"/>
<path d="M255.003 212.246C255.105 212.311 255.226 212.337 255.346 212.321L268.777 211.007C268.956 210.983 269.119 210.896 269.24 210.762C269.36 210.628 269.429 210.456 269.434 210.276C269.444 210.195 269.435 210.113 269.408 210.037C269.382 209.96 269.338 209.89 269.28 209.833C269.223 209.775 269.153 209.732 269.076 209.705C269 209.678 268.918 209.669 268.837 209.679L255.406 210.992C255.23 211.014 255.068 211.098 254.95 211.23C254.832 211.362 254.766 211.532 254.764 211.709C254.752 211.811 254.768 211.915 254.81 212.01C254.852 212.104 254.919 212.186 255.003 212.246Z" fill="white"/>
<path d="M250.003 207.321C250.101 207.382 250.215 207.413 250.331 207.411L265.852 206.724C266.029 206.704 266.195 206.624 266.32 206.496C266.445 206.368 266.522 206.201 266.538 206.023C266.549 205.941 266.542 205.858 266.518 205.779C266.493 205.7 266.452 205.628 266.396 205.567C266.341 205.506 266.273 205.457 266.197 205.425C266.121 205.393 266.039 205.378 265.956 205.381L250.436 206.067C250.258 206.087 250.092 206.168 249.967 206.296C249.842 206.424 249.765 206.591 249.749 206.769C249.738 206.875 249.756 206.983 249.8 207.08C249.845 207.177 249.915 207.26 250.003 207.321Z" fill="white"/>
<path d="M246.511 211.276H246.615C257.465 215.052 289.059 232.274 289.387 232.438C289.544 232.509 289.722 232.517 289.884 232.458C290.046 232.4 290.178 232.28 290.253 232.124C290.3 232.054 290.333 231.975 290.35 231.892C290.367 231.808 290.367 231.723 290.35 231.639C290.333 231.556 290.3 231.477 290.253 231.406C290.205 231.336 290.144 231.276 290.073 231.229C289.76 231.065 259.122 214.38 247.705 210.201C249.197 206.545 256.838 188.01 261.136 183.488C261.253 183.359 261.317 183.191 261.317 183.018C261.317 182.844 261.253 182.677 261.136 182.548C261.079 182.486 261.01 182.437 260.933 182.404C260.856 182.37 260.773 182.353 260.689 182.353C260.605 182.353 260.521 182.37 260.444 182.404C260.367 182.437 260.298 182.486 260.241 182.548C255.361 187.741 246.675 209.41 246.302 210.366C246.251 210.437 246.216 210.519 246.199 210.606C246.182 210.692 246.183 210.781 246.203 210.867C246.223 210.953 246.26 211.034 246.313 211.104C246.367 211.175 246.434 211.233 246.511 211.276Z" fill="white"/>
<path d="M291.894 233.169H292.088C292.262 233.185 292.436 233.138 292.578 233.037C292.721 232.935 292.822 232.786 292.864 232.617C296.55 219.081 305.505 205.993 305.594 205.873C305.699 205.71 305.742 205.514 305.714 205.321C305.707 205.235 305.678 205.151 305.628 205.08C305.578 205.009 305.509 204.953 305.43 204.918C293.073 198.382 263.449 181.458 263.151 181.279C262.994 181.206 262.815 181.196 262.651 181.251C262.487 181.307 262.35 181.424 262.271 181.578C262.172 181.72 262.134 181.896 262.165 182.067C262.196 182.237 262.293 182.389 262.435 182.488C262.733 182.652 291.476 199.068 304.221 205.814C302.371 208.649 294.998 220.335 291.7 232.408C291.638 232.537 291.623 232.685 291.659 232.824C291.694 232.963 291.778 233.085 291.894 233.169Z" fill="white"/>
<path d="M280.044 205.948C280.142 206.011 280.258 206.037 280.373 206.023L298.908 204.978C299.085 204.96 299.25 204.88 299.374 204.751C299.497 204.623 299.57 204.454 299.58 204.277C299.593 204.196 299.589 204.114 299.566 204.036C299.543 203.958 299.503 203.886 299.449 203.825C299.394 203.765 299.326 203.718 299.251 203.687C299.175 203.657 299.094 203.644 299.013 203.65L280.477 204.694C280.298 204.712 280.131 204.791 280.006 204.92C279.88 205.048 279.804 205.217 279.791 205.396C279.78 205.502 279.797 205.609 279.842 205.707C279.887 205.804 279.957 205.887 280.044 205.948Z" fill="white"/>
<path d="M284.611 210.425C284.709 210.488 284.823 210.519 284.939 210.515L300.833 209.47C301.011 209.452 301.176 209.372 301.299 209.243C301.422 209.115 301.495 208.946 301.505 208.769C301.519 208.687 301.514 208.603 301.491 208.524C301.467 208.444 301.426 208.372 301.369 208.311C301.313 208.25 301.243 208.203 301.166 208.174C301.088 208.145 301.005 208.134 300.923 208.142L285.029 209.171C284.849 209.189 284.682 209.272 284.559 209.404C284.435 209.535 284.364 209.707 284.357 209.888C284.34 209.993 284.355 210.1 284.4 210.196C284.446 210.292 284.519 210.372 284.611 210.425Z" fill="white"/>
<path d="M290.163 230.617C290.265 230.691 290.388 230.731 290.513 230.731C290.639 230.731 290.762 230.691 290.864 230.617C291.007 230.512 291.107 230.359 291.145 230.186C291.184 230.013 291.158 229.832 291.073 229.677L281.82 215.096C281.774 215.027 281.713 214.97 281.642 214.927C281.571 214.884 281.491 214.858 281.409 214.849C281.326 214.841 281.243 214.85 281.164 214.878C281.086 214.905 281.014 214.949 280.955 215.007C280.812 215.112 280.712 215.265 280.674 215.438C280.635 215.611 280.661 215.791 280.746 215.947L289.999 230.513C290.045 230.559 290.101 230.595 290.163 230.617Z" fill="white"/>
<path d="M282.477 225.707C282.587 225.769 282.714 225.795 282.84 225.781C282.965 225.768 283.084 225.716 283.178 225.633C283.321 225.528 283.421 225.375 283.46 225.202C283.498 225.029 283.472 224.848 283.387 224.693L277.209 214.903C277.162 214.835 277.101 214.778 277.031 214.735C276.96 214.692 276.881 214.665 276.8 214.655C276.718 214.645 276.635 214.653 276.556 214.678C276.478 214.702 276.405 214.743 276.343 214.798C276.198 214.901 276.096 215.054 276.057 215.228C276.019 215.402 276.046 215.584 276.134 215.738L282.313 225.498C282.35 225.58 282.407 225.652 282.477 225.707Z" fill="white"/>
<path d="M286.879 253.973C287.073 254.003 287.271 253.956 287.43 253.841C287.589 253.727 287.697 253.554 287.73 253.361C293.222 221.603 306.997 204.918 307.131 204.754C307.258 204.602 307.319 204.405 307.3 204.208C307.282 204.011 307.186 203.829 307.034 203.702C306.882 203.575 306.685 203.515 306.488 203.533C306.291 203.551 306.109 203.647 305.982 203.799C305.848 203.963 291.819 220.932 286.253 253.048C286.218 253.241 286.261 253.441 286.373 253.603C286.485 253.765 286.656 253.877 286.85 253.913L286.879 253.973Z" fill="white"/>
<path d="M585.011 327.099C585.011 327.099 554.522 312.981 513.556 318.607C513.556 318.607 521.615 236.288 524.331 225.259C527.047 214.231 585.519 227.901 585.519 227.901C585.519 227.901 581.325 260.733 581.683 280.97C582.042 301.206 587.653 323.681 585.011 327.099Z" fill="#263238"/>
<path opacity="0.4" d="M585.011 327.099C585.011 327.099 554.522 312.981 513.556 318.607C513.556 318.607 521.615 236.288 524.331 225.259C527.047 214.231 585.519 227.901 585.519 227.901C585.519 227.901 581.325 260.733 581.683 280.97C582.042 301.206 587.653 323.681 585.011 327.099Z" fill="white"/>
<path d="M497.558 530.048L508.154 533.047L510.676 516.556L512.049 507.737L501.438 504.737L499.648 516.556L497.558 530.048Z" fill="#FBC6BF"/>
<path d="M558.492 530.913L569.416 532.361L569.521 516.556L569.596 506.737L558.642 505.304L558.582 516.556L558.492 530.913Z" fill="#FBC6BF"/>
<path opacity="0.2" d="M558.641 505.304L558.581 516.556H569.52L569.595 506.737L558.641 505.304Z" fill="black"/>
<path opacity="0.2" d="M499.648 516.556H510.677L512.049 507.737L501.439 504.737L499.648 516.556Z" fill="black"/>
<path d="M457.19 218.409L448.116 212.246L446.295 224.274C446.295 224.274 454.712 229.289 457.115 224.827L457.19 218.409Z" fill="#FBC6BF"/>
<path d="M437.266 211.709L439.206 222.573L446.295 224.275L448.116 212.246L437.266 211.709Z" fill="#FBC6BF"/>
<path d="M470.084 225.752L454.817 216.812L450.757 224.319L464.532 232.751L470.084 225.752Z" fill="#FBC6BF"/>
<path d="M526.197 206.485C521.72 207.799 497.11 238.213 495.454 237.915C493.26 237.527 461.383 218.977 461.383 218.977L455.831 232.169C455.831 232.169 487.171 256.48 495.857 255.808C503.737 255.197 529.973 231.229 529.973 231.229L526.197 206.485Z" fill="#263238"/>
<path opacity="0.7" d="M455.817 232.169C455.817 232.169 487.157 256.48 495.857 255.808C499.215 255.555 505.931 251.033 512.512 245.929C521.347 239.094 529.988 231.214 529.988 231.214L527.928 217.783L526.197 206.456C521.72 207.769 497.111 238.183 495.454 237.885C493.26 237.497 461.383 218.932 461.383 218.932L455.817 232.169Z" fill="white"/>
<path opacity="0.1" d="M512.512 245.929C521.347 239.094 529.987 231.214 529.987 231.214L527.928 217.782C527.392 218.077 526.891 218.433 526.436 218.842C519.989 224.274 514.347 234.691 512.512 245.929Z" fill="black"/>
<path d="M497.693 528.391L509.736 528.063C509.955 528.057 510.169 528.126 510.343 528.259C510.517 528.392 510.64 528.581 510.691 528.794L513.228 538.479C513.289 538.711 513.297 538.954 513.251 539.189C513.205 539.424 513.106 539.646 512.963 539.838C512.82 540.03 512.635 540.188 512.423 540.299C512.21 540.41 511.975 540.471 511.736 540.479C507.393 540.479 501.11 540.479 495.663 540.584C489.276 540.748 485.216 540.434 477.754 540.584C473.277 540.703 471.785 536.181 473.695 535.719C482.247 533.614 487.828 534.032 495.111 529.257C495.876 528.738 496.769 528.439 497.693 528.391Z" fill="#263238"/>
<path d="M496.663 529.928C494.902 530.331 491.753 530.853 490.514 529.809C490.334 529.659 490.191 529.469 490.098 529.254C490.004 529.038 489.963 528.804 489.977 528.57C489.978 528.426 490.016 528.285 490.086 528.16C490.157 528.035 490.258 527.929 490.38 527.854C491.693 527.063 496.2 529.197 496.708 529.436C496.757 529.46 496.798 529.498 496.825 529.546C496.851 529.594 496.862 529.65 496.857 529.704C496.857 529.759 496.838 529.812 496.802 529.853C496.767 529.894 496.717 529.921 496.663 529.928ZM490.693 528.271H490.589C490.541 528.301 490.502 528.343 490.475 528.393C490.449 528.443 490.437 528.499 490.44 528.555C490.426 528.712 490.45 528.869 490.51 529.015C490.57 529.16 490.663 529.289 490.783 529.391C491.484 529.973 493.305 530.018 495.723 529.555C493.977 528.809 491.529 527.973 490.723 528.301L490.693 528.271Z" fill="#80BCFF"/>
<path d="M496.663 529.928C496.633 529.943 496.6 529.95 496.566 529.95C496.532 529.95 496.499 529.943 496.469 529.928C495.126 529.376 492.395 527.078 492.559 525.824C492.559 525.54 492.798 525.167 493.499 525.078C493.762 525.034 494.032 525.048 494.289 525.117C494.546 525.187 494.786 525.311 494.991 525.481C496.484 526.585 496.842 529.54 496.857 529.659C496.862 529.703 496.856 529.748 496.841 529.789C496.825 529.831 496.8 529.868 496.767 529.898L496.663 529.928ZM493.305 525.645C493.096 525.735 493.081 525.854 493.081 525.899C492.977 526.645 494.842 528.451 496.23 529.227C496.056 527.977 495.504 526.811 494.648 525.884C494.342 525.649 493.957 525.542 493.574 525.585L493.305 525.645Z" fill="#80BCFF"/>
<path d="M558.925 528.391L570.953 528.063C571.173 528.059 571.389 528.128 571.564 528.261C571.74 528.394 571.867 528.581 571.923 528.794L574.445 538.479C574.509 538.712 574.519 538.955 574.474 539.191C574.429 539.428 574.331 539.651 574.188 539.844C574.044 540.037 573.858 540.194 573.644 540.304C573.43 540.414 573.194 540.474 572.953 540.479C568.61 540.479 562.327 540.479 556.865 540.584C550.493 540.748 546.419 540.434 538.957 540.584C534.48 540.703 532.987 536.181 534.882 535.719C543.434 533.614 549.03 534.032 556.313 529.257C557.087 528.733 557.991 528.433 558.925 528.391Z" fill="#263238"/>
<path d="M557.895 529.928C556.134 530.331 553 530.853 551.746 529.809C551.566 529.659 551.423 529.469 551.33 529.254C551.236 529.038 551.195 528.804 551.209 528.57C551.213 528.425 551.254 528.284 551.327 528.159C551.4 528.033 551.503 527.929 551.627 527.854C552.94 527.063 557.447 529.197 557.955 529.436C558.004 529.46 558.045 529.498 558.072 529.546C558.098 529.594 558.11 529.65 558.104 529.704C558.101 529.76 558.078 529.813 558.04 529.854C558.002 529.895 557.951 529.921 557.895 529.928ZM551.926 528.271H551.836C551.788 528.302 551.748 528.344 551.72 528.393C551.691 528.443 551.675 528.498 551.672 528.555C551.661 528.713 551.688 528.871 551.75 529.016C551.813 529.161 551.909 529.29 552.03 529.391C552.717 529.973 554.537 530.018 556.955 529.555C555.164 528.809 552.761 527.973 551.94 528.301L551.926 528.271Z" fill="#80BCFF"/>
<path d="M557.895 529.928C557.865 529.943 557.832 529.95 557.798 529.95C557.765 529.95 557.732 529.943 557.701 529.928C556.343 529.376 553.627 527.078 553.791 525.824C553.791 525.54 554.015 525.167 554.732 525.078C554.995 525.034 555.264 525.048 555.522 525.117C555.779 525.187 556.018 525.311 556.224 525.481C557.716 526.585 558.075 529.54 558.089 529.659C558.095 529.705 558.089 529.751 558.07 529.793C558.052 529.835 558.022 529.872 557.985 529.898L557.895 529.928ZM554.538 525.645C554.479 525.662 554.426 525.695 554.384 525.739C554.342 525.784 554.312 525.839 554.299 525.899C554.209 526.645 556.06 528.451 557.448 529.227C557.3 527.987 556.78 526.821 555.955 525.884C555.649 525.649 555.264 525.542 554.881 525.585L554.538 525.645Z" fill="#80BCFF"/>
<path d="M581.027 290.715C586.802 315.817 576.878 513.183 576.878 513.183H557.686L549.478 348.694L519.242 513.183L498.737 511.691C512.168 384.272 524.003 308.205 524.003 308.205V298.595L581.027 290.715Z" fill="#263238"/>
<path opacity="0.5" d="M498.737 511.691L519.257 513.184L543.046 383.705L549.478 348.709L557.686 513.184H576.878C576.878 513.184 586.817 315.817 581.027 290.73L523.973 298.595V308.206C523.973 308.206 512.153 384.272 498.737 511.691Z" fill="white"/>
<path d="M581.668 267.732C581.668 269.359 581.668 270.941 581.668 272.478C581.668 273.299 581.668 274.105 581.668 274.896C581.668 276.597 581.668 278.254 581.668 279.836C581.668 280.642 581.668 281.433 581.668 282.209C581.862 291.506 582.206 298.311 581.997 301.251L524.451 299.117C523.297 292.352 522.421 285.949 521.824 279.91C521.749 279.179 521.675 278.418 521.615 277.731C521.466 276.239 521.347 274.747 521.227 273.254C521.227 272.493 521.123 271.762 521.063 271.001C520.973 269.508 520.884 268.016 520.809 266.643C520.809 265.852 520.735 265.151 520.72 264.315C519.227 226.095 527.629 206.232 527.629 206.232C532.133 205.243 536.694 204.53 541.285 204.098C542.255 203.993 543.24 203.933 544.269 203.874C552.434 203.708 560.6 204.012 568.729 204.784C570.222 204.918 571.834 205.097 573.356 205.291C581.101 206.291 587.936 207.948 587.936 207.948C585.269 219.657 583.488 231.55 582.609 243.526C581.997 251.182 581.713 258.45 581.624 265.255C581.624 265.867 581.624 266.479 581.624 267.076L581.668 267.732Z" fill="#263238"/>
<g opacity="0.3">
<path d="M581.699 265.255C581.699 265.867 581.699 266.479 581.699 267.076V267.732L575.819 275.284L564.536 259.509L554.343 272.941L544.3 259.509L535.45 271.448L526.496 259.435L520.839 266.643C520.839 265.852 520.765 265.151 520.75 264.315L526.346 257.017L535.301 268.956L544.15 257.017L554.209 270.448L564.447 257.017L575.744 272.806L581.699 265.255Z" fill="white"/>
<path d="M581.653 274.896L575.579 282.716L564.297 266.956L554.089 280.388L544.06 266.956L535.196 278.895L526.241 266.867L521.376 273.194C521.376 272.433 521.272 271.702 521.212 270.941L526.241 264.404L535.196 276.343L544.06 264.404L554.119 277.836L564.342 264.404L575.639 280.194L581.609 272.448C581.639 273.299 581.639 274.105 581.653 274.896Z" fill="white"/>
<path d="M581.758 282.208L575.58 290.163L564.297 274.388L554.089 287.745L544.061 274.314L535.196 286.327L526.242 274.299L521.974 279.851C521.899 279.119 521.824 278.358 521.765 277.672L526.242 271.836L535.196 283.775L544.061 271.836L554.119 285.268L564.342 271.836L575.639 287.611L581.728 279.791C581.738 280.627 581.748 281.432 581.758 282.208Z" fill="white"/>
</g>
<path d="M565.253 176.578C563.581 184.592 561.775 199.203 567.014 204.157C567.014 204.157 552.09 212.082 548.389 211.336C545.807 210.813 543.21 205.62 543.21 205.62C551.806 202.978 551.717 196.442 550.374 190.368L565.253 176.578Z" fill="#FBC6BF"/>
<path opacity="0.2" d="M559.193 182.204L550.373 190.367C550.711 191.789 550.926 193.237 551.015 194.695C554.283 194.009 558.85 190.024 559.268 186.472C559.49 185.056 559.465 183.612 559.193 182.204Z" fill="black"/>
<path d="M548.314 211.35C548.314 211.35 550.955 214.753 554.06 218.155C558.88 216.036 570.207 210.291 569.998 204.411C569.431 202.665 565.028 201.336 565.028 201.336C565.028 201.336 559.82 207.44 548.314 211.35Z" fill="#80BCFF"/>
<path d="M548.314 211.351C545.901 213.077 543.75 215.143 541.927 217.484C538.584 215.052 540.927 204.247 542.27 203.113C544.125 202.209 546.178 201.788 548.239 201.889C547.477 203.352 547.086 204.979 547.099 206.629C547.112 208.279 547.529 209.9 548.314 211.351Z" fill="#80BCFF"/>
<g opacity="0.5">
<path d="M548.314 211.351C548.314 211.351 550.956 214.753 554.06 218.156C558.88 216.037 570.208 210.291 569.999 204.411C569.431 202.665 565.029 201.337 565.029 201.337C565.029 201.337 559.821 207.44 548.314 211.351Z" fill="white"/>
<path d="M548.315 211.351C545.901 213.077 543.75 215.143 541.927 217.484C538.584 215.052 540.927 204.247 542.27 203.113C544.126 202.209 546.179 201.788 548.24 201.889C547.478 203.352 547.086 204.979 547.099 206.629C547.112 208.279 547.529 209.9 548.315 211.351Z" fill="white"/>
</g>
<path d="M569.998 204.456C568.151 218.538 567.542 232.755 568.177 246.944C569.058 266.195 572.654 288.208 582.907 304.355C582.907 304.355 586.429 318.966 582.4 330.517C582.4 330.517 586.549 329.606 587.713 327.532C588.877 325.457 582.37 296.55 583.235 275.627C584.101 254.704 590.697 208.022 590.697 208.022C586.172 206.547 581.506 205.547 576.773 205.038C574.774 204.799 572.475 204.56 569.998 204.456Z" fill="#263238"/>
<path opacity="0.7" d="M569.998 204.456C568.151 218.538 567.542 232.755 568.177 246.944C569.058 266.195 572.654 288.208 582.907 304.355C582.907 304.355 586.429 318.966 582.4 330.517C582.4 330.517 586.549 329.606 587.713 327.532C588.877 325.457 582.37 296.55 583.235 275.627C583.564 267.822 584.728 256.42 585.996 245.183C586.474 241.064 586.966 236.96 587.489 233.064C589.235 219.215 590.802 208.037 590.802 208.037C586.277 206.562 581.61 205.562 576.878 205.053C574.774 204.799 572.475 204.56 569.998 204.456Z" fill="white"/>
<path opacity="0.2" d="M569.998 204.456C568.151 218.538 567.542 232.755 568.177 246.944L580.803 218.588L573.072 216.499L581.743 213.276L576.818 205.053C574.774 204.799 572.475 204.56 569.998 204.456Z" fill="black"/>
<path d="M512.706 321.413L514.452 323.219C516.799 298.754 520.486 274.437 525.496 250.376C525.899 248.376 526.316 246.466 526.704 244.645C534.375 209.843 540.942 204.351 541.36 204.097L535.972 204.933L526.197 206.426C518.213 235.93 512.706 321.413 512.706 321.413Z" fill="#263238"/>
<path opacity="0.7" d="M512.706 321.413L514.452 323.219C516.799 298.754 520.486 274.437 525.496 250.376C525.899 248.376 526.316 246.466 526.704 244.645C534.375 209.843 540.942 204.351 541.36 204.097L535.972 204.933L526.197 206.426C518.213 235.93 512.706 321.413 512.706 321.413Z" fill="white"/>
<path opacity="0.2" d="M533.733 215.425L527.271 218.036C527.271 218.036 525.779 235.467 526.704 244.645C534.375 209.843 540.941 204.351 541.359 204.097L535.972 204.933C532.724 207.035 529.85 209.663 527.465 212.708L533.733 215.425Z" fill="black"/>
<path d="M576.549 299.371L569.401 307.624L582.683 311.384C582.683 311.384 587.16 303.027 582.982 300.162L576.549 299.371Z" fill="#FBC6BF"/>
<path d="M568.953 316.548L580.072 319.145L582.683 311.384L569.416 307.624L568.953 316.548Z" fill="#FBC6BF"/>
<path opacity="0.1" d="M584.668 233.109C584.305 237.193 584.762 241.308 586.011 245.212C586.489 241.094 586.981 236.99 587.504 233.094C586.569 232.891 585.601 232.896 584.668 233.109Z" fill="black"/>
<path d="M584.34 288.491L573.908 302.788L580.982 307.579L590.727 294.715L584.34 288.491Z" fill="#FBC6BF"/>
<path d="M590.772 208.067C596.861 209.843 616.859 250.66 616.142 261.793C615.426 272.926 589.847 302.952 589.847 302.952L579.878 294.461C579.878 294.461 599.756 264.897 601.159 260.36C602.562 255.823 584.668 233.109 584.668 233.109C583.829 228.461 583.754 223.708 584.444 219.036C585.563 210.962 590.772 208.067 590.772 208.067Z" fill="#263238"/>
<path opacity="0.7" d="M590.772 208.067C596.861 209.843 616.859 250.66 616.142 261.793C615.426 272.926 589.847 302.952 589.847 302.952L579.878 294.461C579.878 294.461 599.756 264.897 601.159 260.36C602.562 255.823 584.668 233.109 584.668 233.109C583.829 228.461 583.754 223.708 584.444 219.036C585.563 210.962 590.772 208.067 590.772 208.067Z" fill="white"/>
<path opacity="0.2" d="M543.046 383.705L549.478 348.709L548.239 330.188C548.239 330.188 539.42 362.304 543.046 383.705Z" fill="black"/>
<path d="M542.061 156.222C539.404 159.356 539.598 164.176 539.479 167.251C539.359 170.325 538.822 174.339 542.762 170.101C546.702 165.863 550.776 148.447 542.061 156.222Z" fill="#80BCFF"/>
<path d="M566.715 170.459C565.387 180.727 566.715 182.473 561.178 187.368C552.791 194.74 539.867 195.442 538.703 184.861C537.659 175.354 537.823 158.237 548.21 154.909C550.509 154.168 552.959 154.023 555.33 154.488C557.7 154.952 559.914 156.011 561.763 157.566C563.613 159.12 565.037 161.118 565.903 163.373C566.77 165.628 567.049 168.067 566.715 170.459Z" fill="#FBC6BF"/>
<path d="M565.193 177.369C559.775 177.19 560.536 175.026 560.85 174.519C562.253 172.31 560.701 169.042 559.029 164.818C557.358 160.595 565.819 155.73 571.968 157.55C577.639 159.222 574.236 177.668 565.193 177.369Z" fill="#80BCFF"/>
<path d="M542.315 180.443C542.315 180.443 546.046 181.503 553.463 179.25C552.567 181.563 550.806 183.518 546.598 183.727C542.389 183.936 542.315 180.443 542.315 180.443Z" fill="white"/>
<path d="M570.969 177.593C569.935 179.759 568.115 181.451 565.88 182.324C563.044 183.339 561.701 180.533 562.537 177.474C563.298 174.728 565.7 170.892 568.506 171.206C571.312 171.519 572.312 174.907 570.969 177.593Z" fill="#FBC6BF"/>
<path d="M545.046 170.34C544.153 172.371 542.977 174.265 541.553 175.966C542.002 176.321 542.523 176.574 543.08 176.708C543.636 176.842 544.215 176.854 544.777 176.742L545.046 170.34Z" fill="#E39489"/>
<path d="M572.133 153.103C569.984 149.641 551.762 146.746 544.524 149.223C543.846 149.378 543.211 149.681 542.665 150.112C542.119 150.542 541.676 151.088 541.367 151.711C541.059 152.334 540.893 153.018 540.881 153.713C540.869 154.408 541.013 155.097 541.3 155.73C544.747 162.52 550.478 158.804 550.478 158.804C551.396 158.209 552.423 157.8 553.499 157.602C554.575 157.403 555.679 157.419 556.749 157.648C557.819 157.876 558.833 158.314 559.734 158.935C560.635 159.556 561.405 160.348 561.999 161.266L572.625 158.714C573.02 157.813 573.183 156.826 573.097 155.846C573.01 154.865 572.679 153.922 572.133 153.103Z" fill="#80BCFF"/>
<path d="M553.926 169.937C553.926 170.802 553.373 171.429 552.806 171.429C552.239 171.429 551.821 170.668 551.866 169.802C551.911 168.937 552.403 168.31 552.97 168.31C553.538 168.31 553.97 169.071 553.926 169.937Z" fill="#263238"/>
<path d="M544.12 169.31C544.12 170.176 543.583 170.803 543.016 170.803C542.449 170.803 542.031 170.042 542.075 169.176C542.12 168.31 542.613 167.684 543.18 167.684C543.747 167.684 544.165 168.445 544.12 169.31Z" fill="#263238"/>
<path d="M557.104 166.967C557.013 166.97 556.922 166.949 556.841 166.908C556.761 166.866 556.692 166.804 556.641 166.728C556.3 166.186 555.836 165.732 555.286 165.402C554.736 165.073 554.116 164.878 553.477 164.833C553.341 164.833 553.211 164.78 553.113 164.685C553.015 164.591 552.959 164.462 552.955 164.326C552.955 164.191 553.008 164.062 553.103 163.967C553.199 163.872 553.328 163.818 553.462 163.818C554.274 163.858 555.065 164.093 555.766 164.503C556.468 164.914 557.06 165.488 557.492 166.176C557.563 166.288 557.588 166.423 557.563 166.554C557.538 166.684 557.465 166.8 557.357 166.878C557.279 166.923 557.193 166.953 557.104 166.967Z" fill="#263238"/>
<path d="M540.076 165.654C539.976 165.658 539.878 165.632 539.792 165.579C539.733 165.548 539.681 165.505 539.639 165.454C539.597 165.402 539.566 165.342 539.548 165.278C539.53 165.213 539.525 165.146 539.534 165.08C539.542 165.014 539.564 164.95 539.598 164.893C539.971 164.179 540.513 163.566 541.176 163.108C541.839 162.651 542.604 162.362 543.404 162.266C543.538 162.256 543.671 162.3 543.774 162.389C543.876 162.477 543.939 162.602 543.949 162.736C543.959 162.871 543.915 163.004 543.826 163.106C543.738 163.208 543.613 163.271 543.479 163.281C542.845 163.363 542.242 163.599 541.722 163.968C541.201 164.338 540.78 164.83 540.494 165.4C540.452 165.475 540.392 165.538 540.319 165.583C540.245 165.627 540.162 165.652 540.076 165.654Z" fill="#263238"/>
<defs>
<filter id="filter0_d_1_659" x="302.176" y="180.784" width="131.658" height="49.4561" filterUnits="userSpaceOnUse" color-interpolation-filters="sRGB">
<feFlood flood-opacity="0" result="BackgroundImageFix"/>
<feColorMatrix in="SourceAlpha" type="matrix" values="0 0 0 0 0 0 0 0 0 0 0 0 0 0 0 0 0 0 127 0" result="hardAlpha"/>
<feOffset dy="4"/>
<feGaussianBlur stdDeviation="6.5"/>
<feComposite in2="hardAlpha" operator="out"/>
<feColorMatrix type="matrix" values="0 0 0 0 0.608958 0 0 0 0 0.787095 0 0 0 0 0.9875 0 0 0 1 0"/>
<feBlend mode="normal" in2="BackgroundImageFix" result="effect1_dropShadow_1_659"/>
<feBlend mode="normal" in="SourceGraphic" in2="effect1_dropShadow_1_659" result="shape"/>
</filter>
<filter id="filter1_d_1_659" x="310.432" y="214.784" width="118.442" height="54.5439" filterUnits="userSpaceOnUse" color-interpolation-filters="sRGB">
<feFlood flood-opacity="0" result="BackgroundImageFix"/>
<feColorMatrix in="SourceAlpha" type="matrix" values="0 0 0 0 0 0 0 0 0 0 0 0 0 0 0 0 0 0 127 0" result="hardAlpha"/>
<feOffset dy="4"/>
<feGaussianBlur stdDeviation="6.5"/>
<feComposite in2="hardAlpha" operator="out"/>
<feColorMatrix type="matrix" values="0 0 0 0 0.608958 0 0 0 0 0.787095 0 0 0 0 0.9875 0 0 0 1 0"/>
<feBlend mode="normal" in2="BackgroundImageFix" result="effect1_dropShadow_1_659"/>
<feBlend mode="normal" in="SourceGraphic" in2="effect1_dropShadow_1_659" result="shape"/>
</filter>
</defs>
</svg>
