<svg width="20" height="18" viewBox="0 0 20 18" fill="none" xmlns="http://www.w3.org/2000/svg">
<path d="M1.25 7.74961H16.075L11.5375 2.29961C11.3253 2.04434 11.2232 1.71524 11.2537 1.38471C11.2842 1.05417 11.4447 0.749285 11.7 0.537112C11.9553 0.324939 12.2844 0.222862 12.6149 0.253336C12.9454 0.283811 13.2503 0.444341 13.4625 0.699612L19.7125 8.19961C19.7545 8.25927 19.7922 8.32194 19.825 8.38711C19.825 8.44961 19.825 8.48711 19.9125 8.54961C19.9692 8.69294 19.9988 8.8455 20 8.99961C19.9988 9.15372 19.9692 9.30629 19.9125 9.44961C19.9125 9.51211 19.9125 9.54961 19.825 9.61211C19.7922 9.67729 19.7545 9.73996 19.7125 9.79961L13.4625 17.2996C13.345 17.4407 13.1978 17.5542 13.0314 17.632C12.8651 17.7097 12.6836 17.7499 12.5 17.7496C12.2079 17.7502 11.9249 17.6485 11.7 17.4621C11.5734 17.3572 11.4688 17.2283 11.3921 17.0829C11.3154 16.9374 11.2682 16.7783 11.2531 16.6146C11.238 16.4509 11.2553 16.2858 11.3041 16.1288C11.3529 15.9718 11.4322 15.8259 11.5375 15.6996L16.075 10.2496H1.25C0.91848 10.2496 0.600536 10.1179 0.366116 9.8835C0.131695 9.64907 0 9.33113 0 8.99961C0 8.66809 0.131695 8.35015 0.366116 8.11573C0.600536 7.88131 0.91848 7.74961 1.25 7.74961Z" fill="#0078FF"/>
</svg>
