<svg width="508" height="342" viewBox="0 0 508 342" fill="none" xmlns="http://www.w3.org/2000/svg">
<path d="M82.2696 116.379C82.6461 116.146 83.0798 116.023 83.5221 116.023C83.9645 116.023 84.3982 116.146 84.7747 116.379C84.9894 116.506 85.2041 116.633 85.4189 116.744L86.0869 117.086C86.4884 117.268 86.8317 117.558 87.0788 117.922C87.3258 118.287 87.467 118.714 87.4865 119.154L87.582 122.24L97.6261 121.93L97.5307 118.844C97.5201 118.402 97.6328 117.965 97.8561 117.583C98.0794 117.201 98.4045 116.889 98.7951 116.681C99.2331 116.439 99.6579 116.173 100.068 115.886C100.427 115.632 100.85 115.483 101.29 115.455C101.729 115.427 102.168 115.521 102.557 115.726L105.269 117.182L110.04 108.315L107.312 106.835C106.924 106.625 106.601 106.31 106.38 105.927C106.16 105.544 106.05 105.106 106.064 104.664C106.064 104.163 106.064 103.662 106.016 103.169C105.973 102.729 106.054 102.285 106.249 101.887C106.445 101.49 106.747 101.154 107.122 100.919L109.746 99.3282L104.442 90.7871L101.809 92.4174C101.434 92.648 101.001 92.7702 100.561 92.7702C100.12 92.7702 99.6877 92.648 99.3121 92.4174C99.1053 92.2901 98.8906 92.1629 98.6679 92.0436L98.0078 91.7175C97.604 91.5346 97.2591 91.2427 97.0118 90.8747C96.7646 90.5066 96.6248 90.077 96.6082 89.6339L96.5207 86.5483L86.4686 86.8585L86.572 89.9361C86.584 90.3798 86.4721 90.8181 86.2487 91.2016C86.0253 91.5851 85.6994 91.8988 85.3075 92.1072C84.8695 92.3495 84.4448 92.6149 84.0351 92.9025C83.6744 93.1576 83.25 93.3075 82.8091 93.3356C82.3682 93.3637 81.9281 93.2688 81.538 93.0615L78.8261 91.6142L74.0546 100.473L76.7664 101.921C77.1553 102.131 77.478 102.446 77.6985 102.829C77.919 103.213 78.0285 103.65 78.015 104.092C78.015 104.59 78.0309 105.091 78.0627 105.595C78.1055 106.036 78.0247 106.48 77.8295 106.877C77.6342 107.275 77.3322 107.61 76.9573 107.845L74.3409 109.436L79.6532 117.969L82.2696 116.379ZM84.7906 100.473C85.5594 99.0376 86.7368 97.8622 88.1739 97.0959C89.611 96.3296 91.2432 96.0068 92.8638 96.1685C94.4844 96.3301 96.0206 96.9689 97.278 98.004C98.5354 99.0391 99.4575 100.424 99.9275 101.983C100.398 103.543 100.394 105.206 99.9185 106.764C99.4426 108.321 98.5153 109.703 97.254 110.733C95.9927 111.764 94.4541 112.397 92.8329 112.552C91.2117 112.708 89.5808 112.379 88.1466 111.607C86.2299 110.571 84.8011 108.818 84.1723 106.732C83.5435 104.646 83.7658 102.396 84.7906 100.473Z" fill="#DBDBDB"/>
<path d="M410.554 133.93C410.821 134.095 411.038 134.331 411.178 134.612C411.319 134.893 411.378 135.208 411.349 135.52C411.349 135.687 411.349 135.862 411.349 136.037C411.349 136.212 411.349 136.387 411.349 136.562C411.371 136.868 411.309 137.173 411.169 137.446C411.028 137.718 410.816 137.946 410.554 138.105L408.685 139.187L412.2 145.286L414.077 144.205C414.346 144.052 414.652 143.978 414.96 143.989C415.269 144 415.569 144.097 415.826 144.268C416.119 144.458 416.422 144.634 416.733 144.793C417.01 144.931 417.244 145.143 417.408 145.405C417.572 145.668 417.661 145.971 417.663 146.28V148.435H424.701V146.28C424.704 145.971 424.793 145.668 424.957 145.405C425.121 145.143 425.355 144.931 425.632 144.793C425.943 144.634 426.245 144.458 426.538 144.268C426.796 144.097 427.095 144 427.404 143.989C427.713 143.978 428.019 144.052 428.288 144.205L430.165 145.286L433.68 139.187L431.803 138.105C431.541 137.944 431.329 137.714 431.188 137.441C431.048 137.168 430.986 136.861 431.008 136.554C431.008 136.387 431.008 136.212 431.008 136.037C431.008 135.862 431.008 135.687 431.008 135.52C430.978 135.207 431.037 134.892 431.177 134.611C431.318 134.33 431.535 134.094 431.803 133.93L433.672 132.856L430.157 126.757L428.288 127.83C428.019 127.985 427.712 128.062 427.401 128.052C427.091 128.043 426.789 127.946 426.531 127.775C426.238 127.583 425.936 127.407 425.624 127.25C425.347 127.112 425.113 126.9 424.949 126.637C424.785 126.375 424.696 126.072 424.693 125.763V123.607H417.655V125.763C417.653 126.072 417.564 126.375 417.4 126.637C417.236 126.9 417.002 127.112 416.725 127.25C416.414 127.409 416.111 127.584 415.818 127.775C415.56 127.946 415.258 128.043 414.947 128.052C414.637 128.062 414.33 127.985 414.061 127.83L412.192 126.757L408.677 132.856L410.554 133.93ZM421.178 130.232C422.321 130.23 423.438 130.568 424.388 131.201C425.339 131.835 426.08 132.736 426.518 133.791C426.956 134.845 427.072 136.007 426.85 137.127C426.628 138.248 426.079 139.277 425.272 140.085C424.465 140.894 423.436 141.444 422.316 141.668C421.195 141.891 420.034 141.777 418.979 141.34C417.923 140.904 417.021 140.164 416.386 139.214C415.752 138.264 415.413 137.148 415.413 136.006C415.413 134.476 416.02 133.008 417.101 131.926C418.182 130.843 419.649 130.234 421.178 130.232Z" fill="#DBDBDB"/>
<path d="M445.752 194.075C445.752 199.499 447.36 204.8 450.373 209.309C453.386 213.819 457.668 217.333 462.679 219.409C467.689 221.484 473.203 222.027 478.522 220.969C483.841 219.911 488.727 217.3 492.562 213.465C496.396 209.63 499.008 204.744 500.066 199.425C501.124 194.106 500.581 188.592 498.506 183.582C496.43 178.572 492.916 174.289 488.406 171.276C483.897 168.263 478.596 166.655 473.172 166.655C469.571 166.655 466.006 167.364 462.679 168.742C459.352 170.12 456.329 172.14 453.783 174.686C451.237 177.232 449.217 180.255 447.839 183.582C446.461 186.909 445.752 190.474 445.752 194.075ZM460.369 194.075C460.367 191.541 461.117 189.063 462.524 186.955C463.932 184.847 465.932 183.203 468.274 182.233C470.615 181.262 473.192 181.007 475.678 181.502C478.164 181.996 480.447 183.216 482.24 185.008C484.032 186.8 485.252 189.084 485.746 191.57C486.24 194.056 485.986 196.633 485.015 198.974C484.045 201.315 482.401 203.316 480.293 204.723C478.185 206.13 475.707 206.881 473.172 206.879C469.777 206.879 466.52 205.53 464.119 203.129C461.718 200.728 460.369 197.471 460.369 194.075Z" fill="#EBEBEB"/>
<path d="M467.9 167.792H478.445L477.864 160.325H468.488L467.9 167.792Z" fill="#EBEBEB"/>
<path d="M487.972 171.347L495.432 178.807L500.299 173.112L493.666 166.48L487.972 171.347Z" fill="#EBEBEB"/>
<path d="M499.655 188.047V198.593L507.122 198.012V188.636L499.655 188.047Z" fill="#EBEBEB"/>
<path d="M496.1 208.12L488.648 215.579L494.334 220.446L500.967 213.814L496.1 208.12Z" fill="#EBEBEB"/>
<path d="M479.399 219.802H468.854L469.435 227.27H478.811L479.399 219.802Z" fill="#EBEBEB"/>
<path d="M459.327 216.247L451.867 208.796L447 214.482L453.633 221.115L459.327 216.247Z" fill="#EBEBEB"/>
<path d="M447.645 199.547V189.001L440.177 189.582V198.958L447.645 199.547Z" fill="#EBEBEB"/>
<path d="M451.199 179.475L458.651 172.015L452.965 167.148L446.332 173.781L451.199 179.475Z" fill="#EBEBEB"/>
<path d="M5.57471 61.9509C5.57471 67.3742 7.1829 72.6757 10.1959 77.185C13.2089 81.6943 17.4914 85.2088 22.5019 87.2842C27.5124 89.3596 33.0257 89.9026 38.3448 88.8446C43.6639 87.7866 48.5498 85.175 52.3846 81.3402C56.2195 77.5053 58.831 72.6195 59.889 67.3004C60.9471 61.9813 60.4041 56.4679 58.3287 51.4575C56.2533 46.447 52.7387 42.1645 48.2294 39.1515C43.7201 36.1385 38.4186 34.5303 32.9953 34.5303C25.7229 34.5303 18.7484 37.4192 13.606 42.5616C8.46366 47.7039 5.57471 54.6785 5.57471 61.9509ZM20.1916 61.9509C20.19 59.4163 20.9403 56.9382 22.3474 54.8301C23.7546 52.722 25.7554 51.0787 28.0968 50.108C30.4381 49.1374 33.0148 48.883 35.5007 49.3771C37.9867 49.8711 40.2703 51.0915 42.0625 52.8837C43.8547 54.6759 45.0751 56.9595 45.5691 59.4454C46.0632 61.9314 45.8088 64.5081 44.8382 66.8494C43.8675 69.1908 42.2242 71.1916 40.1161 72.5987C38.008 74.0059 35.5299 74.7562 32.9953 74.7546C29.5996 74.7546 26.3429 73.4056 23.9417 71.0045C21.5406 68.6033 20.1916 65.3466 20.1916 61.9509Z" fill="#EBEBEB"/>
<path d="M27.7228 35.6676H38.2679L37.6874 28.208H28.3113L27.7228 35.6676Z" fill="#EBEBEB"/>
<path d="M47.7953 39.2225L55.2548 46.682L60.1218 40.9879L53.4894 34.3555L47.7953 39.2225Z" fill="#EBEBEB"/>
<path d="M59.4775 55.9229V66.468L66.945 65.8875V56.5113L59.4775 55.9229Z" fill="#EBEBEB"/>
<path d="M55.9225 75.9951L48.4709 83.4547L54.1571 88.3217L60.7895 81.6892L55.9225 75.9951Z" fill="#EBEBEB"/>
<path d="M39.2223 87.6777H28.6771L29.2577 95.1452H38.6338L39.2223 87.6777Z" fill="#EBEBEB"/>
<path d="M19.1499 84.123L11.6904 76.6714L6.82336 82.3575L13.4558 88.99L19.1499 84.123Z" fill="#EBEBEB"/>
<path d="M7.46751 67.4226V56.8774L0 57.458V66.8341L7.46751 67.4226Z" fill="#EBEBEB"/>
<path d="M11.0224 47.35L18.474 39.8904L12.7879 35.0234L6.1554 41.6559L11.0224 47.35Z" fill="#EBEBEB"/>
<path d="M294.382 94.008C289.61 94.0876 277.482 94.2864 272.838 94.3341L265.577 94.3739H265.219V94.008V85.1091V84.7114H265.617L280.019 84.7671C283.606 84.7671 290.835 84.8705 294.421 84.9261H294.612V85.1091L294.429 94.008H294.382ZM294.382 94.008L294.199 85.1091L294.382 85.292C290.787 85.3476 283.574 85.4192 279.98 85.451L265.577 85.5067L265.975 85.1091V94.008L265.609 93.6422H272.767C277.331 93.6979 289.706 93.8967 294.429 93.9762L294.382 94.008Z" fill="#EBEBEB"/>
<path d="M278.318 105.245C273.546 105.324 261.41 105.523 256.774 105.571L249.513 105.611H249.147V105.245V96.3459V95.9482H249.545L263.947 96.0039C267.526 96.0039 274.763 96.1073 278.349 96.163H278.532V96.3459L278.318 105.245ZM278.318 105.245L278.127 96.3459L278.318 96.5288C274.723 96.5844 267.502 96.656 263.915 96.6878L249.513 96.7435L249.911 96.3459L249.871 105.245L249.513 104.879H256.671C261.235 104.935 273.618 105.134 278.341 105.213L278.318 105.245Z" fill="#EBEBEB"/>
<path d="M310.446 96.3301H281.642V105.229H310.446V96.3301Z" fill="#EBEBEB"/>
<path d="M189.145 169.661C184.373 169.74 172.238 169.939 167.601 169.987L160.34 170.027H159.975V169.661V160.762V160.364H160.372L174.774 160.42C178.361 160.42 185.59 160.523 189.177 160.579H189.359V160.762L189.145 169.661ZM189.145 169.661L188.954 160.762L189.145 160.945C185.55 161 178.329 161.072 174.743 161.104L160.34 161.16L160.738 160.762L160.659 169.661L160.301 169.295L167.458 169.335C172.023 169.383 184.405 169.581 189.129 169.661H189.145Z" fill="#EBEBEB"/>
<path d="M488.481 21.4324C483.71 21.5119 471.582 21.7108 466.938 21.7664H459.677H459.319V21.4006V12.5016V12.104H459.717L474.119 12.1597C477.706 12.1597 484.934 12.271 488.521 12.3187H488.712V12.5016L488.529 21.4006L488.481 21.4324ZM488.481 21.4324L488.298 12.5334L488.481 12.7243C484.887 12.772 477.674 12.8515 474.079 12.8754L459.677 12.9311L460.075 12.5334V21.4324L459.709 21.0745H466.866C471.431 21.1223 483.805 21.3211 488.529 21.4006L488.481 21.4324Z" fill="#EBEBEB"/>
<path d="M504.545 23.7544H475.741V32.6534H504.545V23.7544Z" fill="#EBEBEB"/>
<path d="M31.381 21.4402C26.6094 21.5277 14.4737 21.7265 9.83737 21.7742H2.57664H2.21082V21.4084V12.5174V12.1118H2.60845L16.9788 12.1993C20.5575 12.1993 27.7944 12.3106 31.381 12.3583H31.5639V12.5413L31.381 21.4323V21.4402ZM31.381 21.4402L31.1901 12.5492L31.381 12.7321C27.7864 12.7798 20.5654 12.8594 16.9788 12.8912L2.57664 12.9389L2.97427 12.5492V21.4402L2.6164 21.0824H9.77375C14.3385 21.1301 26.7208 21.3368 31.4446 21.4084L31.381 21.4402Z" fill="#EBEBEB"/>
<path d="M18.6407 288.258C23.4122 288.179 35.6911 287.98 40.3036 287.924H47.4609L47.0951 288.29V279.391L47.4927 279.789L33.0906 279.733C29.5039 279.733 22.275 279.622 18.6884 279.574L18.8713 279.391L18.6884 288.29L18.6407 288.258ZM18.6407 288.258L18.4578 279.359V279.176H18.6486C22.2432 279.137 29.4562 279.049 33.0508 279.025L47.453 278.97H47.8506V279.367V288.266V288.632H47.4927H40.232C35.6434 288.584 23.4281 288.386 18.6884 288.306L18.6407 288.258Z" fill="#EBEBEB"/>
<path d="M2.56869 299.472H31.373V290.573H2.56869V299.472Z" fill="#EBEBEB"/>
<path d="M475.741 288.266C480.513 288.187 492.791 287.988 497.412 287.932H504.569L504.211 288.298V279.399L504.609 279.797L490.207 279.741C486.62 279.741 479.391 279.63 475.805 279.582L475.995 279.399L475.805 288.298L475.741 288.266ZM475.741 288.266L475.558 279.407V279.224H475.741C479.336 279.176 486.557 279.089 490.143 279.065L504.545 279.009H504.943V279.407V288.306V288.672H504.577L497.316 288.632C492.728 288.584 480.513 288.385 475.773 288.306L475.741 288.266Z" fill="#EBEBEB"/>
<path d="M487.925 299.742H398.752V341.549H487.925V299.742Z" fill="#EBEBEB"/>
<path opacity="0.1" d="M487.932 299.742H458.404V341.549H487.932V299.742Z" fill="#020100"/>
<path opacity="0.1" d="M487.925 299.742H398.752V308.927L487.925 304.339V299.742Z" fill="#020100"/>
<path d="M491.789 291.813H394.879V302.295H491.789V291.813Z" fill="#EBEBEB"/>
<path opacity="0.1" d="M491.797 291.813H459.709V302.295H491.797V291.813Z" fill="#020100"/>
<path d="M438.912 307.949H418.244V314.359H438.912V307.949Z" fill="#A6A6A6"/>
<path d="M448.193 244.082H390.847V285.65H448.193V244.082Z" fill="#EBEBEB"/>
<path d="M411.11 239.771H390.847V244.082H412.271L411.11 239.771Z" fill="#EBEBEB"/>
<g opacity="0.3">
<path d="M448.193 244.082H390.847V285.65H448.193V244.082Z" fill="black"/>
<path d="M411.11 239.771H390.847V244.082H412.271L411.11 239.771Z" fill="black"/>
</g>
<path d="M409.408 241.458H392.835V243.963H409.408V241.458Z" fill="white"/>
<path d="M448.193 285.65H390.847L390.434 246.658H447.78L448.193 285.65Z" fill="#EBEBEB"/>
<path d="M410.649 242.706H390.386L390.433 246.658H411.858L410.649 242.706Z" fill="#EBEBEB"/>
<g opacity="0.1">
<path d="M448.193 285.649H390.847L390.433 246.658H447.78L448.193 285.649Z" fill="black"/>
<path d="M410.649 242.706H390.386L390.433 246.658H411.858L410.649 242.706Z" fill="black"/>
</g>
<path d="M440.805 247.215H383.459V288.783H440.805V247.215Z" fill="#EBEBEB"/>
<path d="M403.722 242.905H383.459V247.215H404.883L403.722 242.905Z" fill="#EBEBEB"/>
<g opacity="0.2">
<path d="M440.805 247.215H383.459V288.783H440.805V247.215Z" fill="white"/>
<path d="M403.722 242.905H383.459V247.215H404.883L403.722 242.905Z" fill="white"/>
</g>
<path d="M402.02 244.591H385.447V247.096H402.02V244.591Z" fill="white"/>
<path d="M440.805 288.783H383.459L383.037 249.792H440.384L440.805 288.783Z" fill="#EBEBEB"/>
<path d="M403.261 245.839H382.998L383.037 249.792H404.462L403.261 245.839Z" fill="#EBEBEB"/>
<g opacity="0.4">
<path d="M440.806 288.783H383.459L383.038 249.792H440.384L440.806 288.783Z" fill="white"/>
<path d="M403.261 245.839H382.998L383.037 249.792H404.462L403.261 245.839Z" fill="white"/>
</g>
<path d="M470.222 250.014H381.049V291.821H470.222V250.014Z" fill="#DBDBDB"/>
<path d="M470.23 250.014H440.702V291.821H470.23V250.014Z" fill="#C7C7C7"/>
<path opacity="0.1" d="M470.23 250.014H381.049V259.199L470.23 254.603V250.014Z" fill="#020100"/>
<path d="M421.21 258.213H400.541V264.623H421.21V258.213Z" fill="#A6A6A6"/>
<path d="M487.051 247.017L392.079 228.604L390.087 238.876L485.06 257.289L487.051 247.017Z" fill="#DBDBDB"/>
<path d="M489.287 245.809L457.762 239.824L455.807 250.121L487.332 256.107L489.287 245.809Z" fill="#C7C7C7"/>
<path d="M267.86 36.6138L242.626 85.912L235.525 74.9215L151.378 129.325L135.505 104.776L219.643 50.3797L212.542 39.3972L267.86 36.6138Z" fill="#EBEBEB"/>
<path d="M103.766 125.302L119.631 149.851L117.5 151.227L101.618 126.678L103.766 125.302Z" fill="#EBEBEB"/>
<path d="M114.883 118.112L130.757 142.654L123.488 147.362L107.623 122.812L114.883 118.112Z" fill="#EBEBEB"/>
<path d="M130.542 107.989L146.415 132.531L135.194 139.791L119.321 115.234L130.542 107.989Z" fill="#EBEBEB"/>
<path d="M130.192 179.085L115.615 207.539L111.52 201.201L62.9689 232.59L53.8075 218.427L102.366 187.03L98.2705 180.691L130.192 179.085Z" fill="#DBDBDB"/>
<path d="M50.9443 220.279L60.0977 234.443L53.6243 238.634L44.4629 224.462L50.9443 220.279Z" fill="#DBDBDB"/>
<path d="M41.2202 226.388L37.025 229.084L46.1378 243.26L50.3329 240.563L41.2202 226.388Z" fill="#DBDBDB"/>
<path d="M35.4845 230.268L44.6459 244.44L43.4132 245.235L34.2518 231.063L35.4845 230.268Z" fill="#DBDBDB"/>
<path d="M105.46 276.799C99.7735 268.321 91.9402 256.671 86.5085 248.169L89.6419 246.125C95.0258 254.523 102.859 266.731 108.012 275.129L108.052 275.192H107.989L105.46 276.735V276.799ZM105.46 276.799L107.909 275.129V275.232C102.485 267.279 94.5407 255.096 89.2124 246.913L89.7691 247.032L87.272 248.623L87.3913 248.09C92.6877 256.281 100.243 268.369 105.483 276.791L105.46 276.799Z" fill="#EBEBEB"/>
<path d="M279.98 143.775C279.566 144.292 251.048 200.955 250.706 201.408L250.507 201.098L242.252 188.374C243.843 188.175 144.602 251.66 144.992 251.7L144.682 251.899L144.475 251.589L126.057 223.087L125.85 222.769L126.168 222.57C126.248 222.832 224.478 158.639 223.826 159.879L215.603 147.155L215.404 146.845C215.714 146.845 279.63 143.847 279.98 143.815V143.775ZM279.98 143.775C279.98 143.568 214.856 147.752 215.953 146.885L224.216 159.609C224.765 160.014 126.661 222.872 126.582 223.174L126.693 222.657L145.103 251.151L144.586 251.04C144.912 251.104 242.475 187.419 242.634 188.095L250.865 200.859C249.569 201.654 280.29 143.688 279.98 143.759V143.775Z" fill="#EBEBEB"/>
<path d="M102.461 238.356C105.595 243.056 113.515 254.929 116.522 259.494L121.19 266.651L121.389 266.954L121.078 267.16L112.657 272.632L112.331 272.846L112.108 272.512C109.07 267.741 101.3 255.685 98.3976 251.08L93.8725 243.923L93.7692 243.772L93.9203 243.676L102.461 238.356ZM102.461 238.356L94.1191 243.963L94.1747 243.708L98.8509 250.786C101.833 255.263 109.746 267.415 112.776 272.083L112.227 271.964L120.681 266.548L120.577 267.049L115.981 259.955C113.094 255.414 105.356 243.072 102.406 238.356H102.461Z" fill="#EBEBEB"/>
<path d="M120.601 226.602C126.168 234.984 133.938 246.579 139.322 254.913L139.513 255.207L139.218 255.398L126.216 263.852L125.882 264.074L125.667 263.733L116.498 249.418C113.388 244.646 110.35 239.747 107.273 234.912L120.601 226.562V226.602ZM120.601 226.602C117.42 228.765 110.923 233.067 107.71 235.214L107.774 234.904C110.875 239.628 114.017 244.336 117.086 249.084L126.319 263.303L125.77 263.184L138.821 254.802L138.717 255.295C133.437 247.08 125.866 235.008 120.585 226.602H120.601Z" fill="#EBEBEB"/>
<path d="M2.48914 341.549C163.339 341.064 343.783 341.056 504.633 341.549C343.783 342.042 163.339 342.034 2.48914 341.549Z" fill="#263238"/>
<path d="M42.1012 173.207C42.1012 173.207 20.7008 170.217 25.703 144.387C25.703 144.387 49.6085 149.779 42.1012 173.207Z" fill="#80BCFF"/>
<path opacity="0.1" d="M42.1012 173.207C42.1012 173.207 20.7008 170.217 25.703 144.387C25.703 144.387 49.6085 149.779 42.1012 173.207Z" fill="black"/>
<path d="M41.0196 167.816C40.5982 166.512 40.1051 165.231 39.5643 163.967C39.5643 163.8 39.5643 163.641 39.5086 163.482C39.5086 163.124 39.445 162.766 39.4212 162.416C39.3575 161.621 39.3098 160.873 39.2621 160.102C39.1746 158.559 39.0713 157.008 39.0474 155.465C39.0474 155.386 38.9202 155.386 38.9202 155.465C38.9202 157.008 38.9202 158.551 38.9202 160.102C38.9202 160.897 38.9917 161.645 39.0474 162.416C39.0474 162.583 39.0474 162.758 39.0474 162.925C37.8495 160.353 36.4145 157.898 34.7609 155.593C34.0506 154.569 33.2889 153.581 32.4785 152.634C31.6197 151.656 30.721 150.726 29.8621 149.763C29.8065 149.7 29.711 149.763 29.7667 149.859C31.3052 151.56 32.6867 153.396 33.8941 155.346C34.5462 156.332 35.1612 157.34 35.7391 158.368L35.5403 158.289C35.2858 158.185 35.0393 158.074 34.745 157.978L33.0034 157.318C31.8503 156.889 30.7051 156.475 29.5599 156.038C29.4884 156.038 29.4406 156.133 29.5122 156.157C30.6494 156.611 31.7787 157.088 32.9 157.573L34.5542 158.289L35.3494 158.631C35.5316 158.722 35.7237 158.791 35.922 158.837C36.3515 159.633 36.7809 160.428 37.1706 161.223C38.1697 163.221 39.0435 165.28 39.787 167.386C39.8427 167.53 39.8904 167.681 39.9381 167.824C39.3766 167.5 38.7918 167.218 38.1885 166.981L35.9697 165.971C34.4746 165.287 32.9796 164.587 31.5401 163.768C31.4686 163.728 31.4049 163.847 31.4845 163.887C32.9477 164.683 34.3951 165.541 35.8664 166.345C36.598 166.742 37.3376 167.14 38.0931 167.498C38.7182 167.866 39.3971 168.134 40.1051 168.293C40.8199 170.25 41.29 172.288 41.5048 174.361C41.7433 177.279 41.7195 180.23 41.7831 183.156C41.7831 183.204 41.8626 183.204 41.8626 183.156C42.0773 180.5 42.1966 177.82 42.2125 175.148C42.2101 172.656 41.8074 170.18 41.0196 167.816Z" fill="#263238"/>
<path d="M37.7273 152.626C37.5208 154.136 37.4489 155.661 37.5125 157.183H37.5762C37.6636 155.672 37.6795 154.161 37.8545 152.658C37.8625 152.578 37.7352 152.547 37.7273 152.626Z" fill="#263238"/>
<path d="M31.6039 153.923C30.6478 153.556 29.7268 153.103 28.8523 152.571C28.7886 152.523 28.7171 152.642 28.7886 152.682C29.6454 153.26 30.5835 153.708 31.5721 154.01C31.5828 154.011 31.5937 154.009 31.6029 154.003C31.6122 153.998 31.6192 153.989 31.6229 153.979C31.6266 153.969 31.6267 153.958 31.6233 153.947C31.6198 153.937 31.613 153.928 31.6039 153.923Z" fill="#263238"/>
<path d="M42.8171 214.195C42.8171 211.81 42.7535 209.464 42.7296 207.102C42.6819 199.244 42.6183 191.395 42.4751 183.546C42.3638 177.311 42.218 171.076 42.0378 164.842C42.0355 164.826 42.0301 164.811 42.0219 164.797C42.0137 164.783 42.0029 164.771 41.99 164.762C41.99 163.06 41.99 161.358 41.99 159.656C41.99 159.656 41.9423 159.593 41.8867 159.593C41.831 159.593 41.7833 159.593 41.7833 159.664C41.7833 161.366 41.7833 163.071 41.7833 164.778C41.7698 164.785 41.7584 164.795 41.75 164.807C41.7416 164.82 41.7367 164.834 41.7356 164.849C41.4254 175.983 41.1391 187.037 41.0755 198.139C41.0755 200.39 41.0755 202.648 41.0755 204.907C41.0013 212.133 40.9748 219.367 40.996 226.609C40.996 227.763 40.996 228.908 40.996 230.061C40.996 236.685 41.0596 243.302 41.0675 249.942C41.0675 250.3 41.4572 250.475 41.8628 250.491C42.2684 250.507 42.8569 250.324 42.8569 249.919C42.8569 242.618 42.9046 235.318 42.9046 228.017C42.8171 223.42 42.8171 218.816 42.8171 214.195Z" fill="#263238"/>
<path d="M33.8464 207.038C33.8464 207.038 23.5557 199.412 13.7899 204.565C4.02411 209.718 2.48926 229.584 2.48926 229.584C2.48926 229.584 16.804 231.628 25.862 223.031C34.5701 214.744 33.8464 207.038 33.8464 207.038Z" fill="#80BCFF"/>
<path d="M36.6539 207.499C34.7617 206.746 32.7127 206.473 30.6894 206.704C30.2744 206.63 29.8543 206.587 29.4329 206.577L27.9775 206.465L24.9794 206.259C22.9515 206.107 20.9156 205.98 18.8877 205.773C18.8737 205.778 18.8615 205.787 18.8529 205.8C18.8443 205.812 18.8397 205.826 18.8397 205.841C18.8397 205.856 18.8443 205.87 18.8529 205.883C18.8615 205.895 18.8737 205.904 18.8877 205.909C20.8918 206.163 22.864 206.449 24.8999 206.648C25.9337 206.752 26.9676 206.863 28.0094 206.935L28.7569 207.006C28.4547 207.078 28.1446 207.149 27.8503 207.237C26.2332 207.705 24.6688 208.339 23.1821 209.129C22.3869 209.273 21.5916 209.503 20.7963 209.694C19.5239 209.988 18.2515 210.322 16.987 210.648C14.4899 211.308 12.0167 212.04 9.53544 212.764C9.45592 212.764 9.53544 212.907 9.5752 212.891C12.0564 212.279 14.5456 211.722 17.0268 211.133L20.6452 210.267L21.5916 210.044C18.8274 211.759 16.3571 213.907 14.2752 216.406C12.2687 218.867 10.5627 221.558 9.19348 224.422C9.19348 224.502 9.26505 224.573 9.30482 224.494C10.9949 221.548 13.0614 218.834 15.4522 216.422C15.4124 216.557 15.3647 216.692 15.3249 216.828C15.1261 217.44 14.9432 218.044 14.7524 218.649C14.3706 219.858 13.9571 221.074 13.6231 222.291C13.6231 222.371 13.7185 222.394 13.7503 222.291C14.1798 221.114 14.5933 219.905 15.0068 218.752L15.6192 217.01L15.9293 216.112L16.0248 215.833C17.174 214.72 18.3932 213.682 19.675 212.724C21.3704 211.474 23.2036 210.423 25.1385 209.591C25.1385 209.774 25.0748 209.949 25.0351 210.116C24.9317 210.585 24.8283 211.054 24.7329 211.523C24.5341 212.501 24.3432 213.48 24.1523 214.458C23.7627 216.446 23.5241 218.434 23.1503 220.454C23.1503 220.533 23.2617 220.565 23.2776 220.454C23.7388 218.45 24.3353 216.478 24.7806 214.474C25.0033 213.472 25.2259 212.462 25.4407 211.46L25.727 210.044C25.7747 209.782 25.8383 209.519 25.8701 209.249L26.4268 209.018C29.1307 208.024 32.1129 207.292 34.9918 207.849C36.353 208.103 37.6306 208.688 38.7113 209.554C39.7919 210.419 40.6423 211.538 41.1868 212.812C41.2743 213.034 41.6322 212.899 41.5765 212.668C40.9801 210.291 38.9124 208.453 36.6539 207.499Z" fill="#263238"/>
<path d="M20.8997 215.985C20.6028 217.289 20.3139 218.593 20.0329 219.897C19.7046 221.146 19.4628 222.416 19.3092 223.699C19.3092 223.754 19.3808 223.754 19.3967 223.699C19.7716 222.444 20.0639 221.166 20.2715 219.873C20.526 218.585 20.7725 217.297 21.027 216.008C21.0429 215.937 20.9156 215.905 20.8997 215.985Z" fill="#263238"/>
<path d="M10.943 219.301C9.63882 219.961 8.3664 220.716 6.96674 221.265C6.95544 221.266 6.94457 221.27 6.93525 221.276C6.92593 221.283 6.9185 221.292 6.91373 221.302C6.90897 221.312 6.90704 221.324 6.90814 221.335C6.90924 221.346 6.91334 221.357 6.92001 221.366C6.92667 221.375 6.93567 221.382 6.94606 221.387C6.95645 221.391 6.96787 221.393 6.97912 221.392C6.99037 221.39 7.00105 221.386 7.01006 221.379C7.01907 221.372 7.02608 221.363 7.03037 221.353C8.39055 220.756 9.71788 220.087 11.0067 219.349C11.0067 219.349 11.0067 219.285 10.943 219.301Z" fill="#263238"/>
<path d="M36.1608 193.025C36.1608 193.025 23.5877 193.821 17.7346 185.534C11.8814 177.247 13.1936 165.398 13.1936 165.398C13.1936 165.398 26.4109 166.988 31.6516 172.961C36.8924 178.933 36.1608 193.025 36.1608 193.025Z" fill="#80BCFF"/>
<path d="M42.0694 205.448C41.632 204.104 41.0913 202.776 40.5823 201.472C40.0733 200.167 39.5723 198.951 38.9918 197.71C37.8677 195.174 36.6094 192.7 35.2222 190.298C34.3395 188.771 33.3852 187.284 32.407 185.821C32.407 185.598 32.3434 185.375 32.3036 185.153C32.248 184.763 32.1923 184.358 32.1287 183.984C32.0094 183.188 31.8662 182.393 31.731 181.598C31.4448 179.864 31.0869 178.139 30.8085 176.397C30.8085 176.317 30.6654 176.317 30.6813 176.397C30.9358 178.107 31.1028 179.832 31.3493 181.55C31.4607 182.393 31.572 183.244 31.6992 184.087L31.8424 184.994C29.9266 182.188 27.8502 179.496 25.6234 176.93C25.3212 176.58 25.0111 176.238 24.7089 175.896C24.7089 175.801 24.6294 175.705 24.5896 175.61C24.4942 175.371 24.4067 175.132 24.3192 174.894C24.1284 174.393 23.9534 173.892 23.7705 173.391C23.4206 172.405 23.1025 171.411 22.8321 170.401C22.8321 170.321 22.6889 170.353 22.7128 170.401C22.9593 171.427 23.2297 172.46 23.5081 173.478C23.6592 173.971 23.8182 174.457 23.9932 174.942C23.9932 175.021 24.0488 175.101 24.0806 175.188C22.4901 173.431 20.7962 171.745 19.1023 170.075C19.0896 170.063 19.0729 170.057 19.0558 170.058C19.0386 170.058 19.0225 170.066 19.0109 170.079C18.9993 170.091 18.9932 170.108 18.9939 170.125C18.9946 170.142 19.0022 170.158 19.0148 170.17C22.2656 173.57 25.2437 177.221 27.9217 181.089C27.6169 180.99 27.3062 180.91 26.9913 180.85C26.0211 180.66 25.0509 180.524 24.0727 180.405C22.0209 180.143 19.9771 179.88 17.9333 179.562C17.8537 179.562 17.8219 179.673 17.9333 179.689C19.8817 180.071 21.8141 180.485 23.7546 180.954C24.6691 181.161 25.5837 181.343 26.4982 181.526C27.2484 181.686 27.987 181.896 28.7091 182.155C28.9158 182.441 29.1226 182.727 29.3214 183.021C30.2439 184.365 31.1346 185.741 32.0014 187.117L30.7131 186.871C29.7429 186.68 28.7727 186.505 27.7945 186.346C25.8779 186.028 23.9534 185.694 22.0607 185.264C22.0438 185.264 22.0276 185.271 22.0157 185.283C22.0038 185.295 21.9971 185.311 21.9971 185.328C21.9971 185.345 22.0038 185.361 22.0157 185.373C22.0276 185.385 22.0438 185.391 22.0607 185.391C23.9852 185.845 25.8859 186.37 27.7945 186.878C28.717 187.125 29.6475 187.348 30.5779 187.554L31.9776 187.857C32.1625 187.906 32.3515 187.938 32.5422 187.952C34.3819 190.937 36.1023 193.983 37.7035 197.09C38.4033 198.457 39.0793 199.839 39.7314 201.233C40.4074 202.664 40.9799 204.12 41.6002 205.567C41.7116 205.877 42.1649 205.758 42.0694 205.448Z" fill="#263238"/>
<path d="M29.1943 176.532C28.9558 175.331 28.7013 174.146 28.3991 172.937C28.3991 172.858 28.2559 172.897 28.2798 172.937C28.5184 174.114 28.741 175.323 28.9558 176.484C29.1346 177.67 29.3735 178.845 29.6715 180.007C29.5942 178.839 29.4348 177.677 29.1943 176.532Z" fill="#263238"/>
<path d="M21.854 176.182C21.2735 175.888 20.6532 175.657 20.0488 175.387L19.0945 175.013L18.6094 174.822C18.4232 174.767 18.2444 174.689 18.0765 174.591C17.9811 174.52 17.9175 174.687 18.0129 174.703C18.2017 174.751 18.3834 174.823 18.5537 174.918L19.0308 175.132L19.9454 175.538C20.5507 175.821 21.1721 176.067 21.8063 176.277C21.8779 176.333 21.9256 176.214 21.854 176.182Z" fill="#263238"/>
<path d="M49.036 183.18C49.036 183.18 56.6546 168.921 68.2654 166.719C79.8762 164.516 86.9302 176.429 86.9302 176.429C86.9302 176.429 78.4845 187.22 67.8439 189.105C57.2033 190.99 49.036 183.18 49.036 183.18Z" fill="#80BCFF"/>
<path d="M75.9955 173.088C72.9786 172.688 69.9197 172.726 66.9136 173.2L67.4225 172.921L69.9992 171.601C71.7598 170.623 73.5701 169.736 75.4229 168.945C75.4311 168.955 75.4423 168.963 75.455 168.967C75.4677 168.97 75.4812 168.97 75.4936 168.965C75.506 168.961 75.5168 168.953 75.5244 168.942C75.5321 168.931 75.5362 168.919 75.5362 168.905C75.5362 168.892 75.5321 168.879 75.5244 168.869C75.5168 168.858 75.506 168.85 75.4936 168.845C75.4812 168.841 75.4677 168.841 75.455 168.844C75.4423 168.848 75.4311 168.855 75.4229 168.866C73.6097 169.709 71.7329 170.456 69.9117 171.251C69.0051 171.665 68.1065 172.102 67.2237 172.572C66.6511 172.874 66.0229 173.16 65.4582 173.526C62.9156 174.036 60.4451 174.856 58.1021 175.967L59.5494 174.377C60.631 173.192 61.6887 171.951 62.8736 170.878C62.9373 170.822 62.8737 170.735 62.7782 170.79C61.5694 171.888 60.2891 172.906 59.1121 174.051C58.5395 174.607 57.9987 175.18 57.4659 175.776C57.2034 176.071 56.933 176.373 56.6706 176.691C52.6935 178.82 49.2378 181.805 46.5522 185.429C43.8666 189.054 42.0179 193.229 41.1392 197.654C41.1392 197.734 41.2425 197.781 41.2664 197.702C42.8955 192.281 45.8155 187.336 49.7757 183.292C54.0348 178.944 59.3991 175.839 65.2912 174.313C68.7878 173.423 72.4038 173.096 76.0034 173.343C76.0372 173.342 76.0691 173.328 76.0922 173.303C76.1153 173.278 76.1277 173.245 76.1267 173.212C76.1256 173.178 76.1112 173.146 76.0866 173.123C76.062 173.1 76.0292 173.087 75.9955 173.088Z" fill="#263238"/>
<path opacity="0.1" d="M86.8984 176.437C86.8984 176.437 78.4527 187.22 67.8121 189.105C59.7084 190.537 53.0362 186.314 50.3164 184.23L49.7279 183.268C49.7279 183.268 55.2152 178.647 65.5854 175.983C75.9556 173.319 86.8984 176.437 86.8984 176.437Z" fill="black"/>
<path d="M69.2674 168.023C68.3776 168.539 67.5174 169.105 66.6907 169.717C65.8873 170.328 65.1419 171.012 64.464 171.76C64.4513 171.773 64.4442 171.79 64.4442 171.808C64.4442 171.826 64.4513 171.843 64.464 171.856C64.4766 171.869 64.4938 171.876 64.5117 171.876C64.5296 171.876 64.5468 171.869 64.5594 171.856C65.3547 171.188 66.1022 170.52 66.8975 169.892C67.6738 169.255 68.4892 168.668 69.3389 168.134C69.3537 168.125 69.3641 168.11 69.3678 168.092C69.3715 168.075 69.3683 168.057 69.3588 168.043C69.3493 168.028 69.3344 168.017 69.3172 168.014C69.3001 168.01 69.2821 168.013 69.2674 168.023Z" fill="#263238"/>
<path d="M75.6217 170.456C75.1923 170.639 74.7549 170.79 74.3254 170.973L73.0371 171.506C72.9417 171.545 72.9894 171.696 73.0848 171.657L74.3732 171.132C74.8026 170.957 75.2241 170.758 75.6615 170.583C75.7331 170.519 75.7013 170.392 75.6217 170.456Z" fill="#263238"/>
<path d="M47.5171 201.034C47.5171 201.034 49.553 215.142 60.1617 220.073C70.7705 225.003 83.6935 220.073 83.6935 220.073C83.6935 220.073 78.6038 189.543 47.5171 201.034Z" fill="#80BCFF"/>
<path d="M76.385 210.895C75.4068 210.784 74.4366 210.617 73.4663 210.442L72.0428 210.172C71.8043 210.124 71.5498 210.068 71.2953 210.028C71.0169 209.758 70.7307 209.488 70.4364 209.233C68.4279 207.465 66.258 205.888 63.955 204.525C62.6988 203.785 61.4003 203.118 60.0662 202.529H60.265L63.7562 202.68C66.0863 202.792 68.4085 202.839 70.7386 202.99C70.8261 202.99 70.8181 202.863 70.7386 202.863C68.4005 202.704 66.0784 202.45 63.7483 202.243L60.3525 201.941L58.6029 201.79L58.1576 201.742C57.5532 201.519 56.9408 201.304 56.3285 201.114C53.4361 200.122 50.3255 199.951 47.342 200.62C44.6779 201.304 42.0138 203.046 41.3219 205.861C41.3219 205.957 41.4491 206.028 41.4889 205.933C42.483 203.547 45.0914 202.394 47.4454 201.909C49.019 201.607 50.6326 201.574 52.217 201.813C52.3304 202.539 52.5115 203.253 52.7578 203.945C53.052 204.939 53.3383 205.933 53.6405 206.919C54.2449 208.899 54.905 210.895 55.4935 212.852C55.5004 212.865 55.512 212.876 55.526 212.881C55.5401 212.887 55.5557 212.888 55.5701 212.883C55.5845 212.878 55.5968 212.868 55.6046 212.855C55.6124 212.842 55.6153 212.827 55.6127 212.812C55.1197 210.832 54.7061 208.836 54.229 206.855C53.9984 205.877 53.7518 204.907 53.5053 203.937C53.3733 203.255 53.1952 202.583 52.9725 201.925C53.9008 202.092 54.8193 202.31 55.7241 202.577C57.3507 203.063 58.9445 203.652 60.4956 204.342C60.6467 205.344 60.8774 206.338 61.108 207.332C61.3943 208.581 61.7203 209.814 62.11 211.03C62.1145 211.043 62.1227 211.053 62.1333 211.061C62.144 211.068 62.1567 211.072 62.1697 211.072C62.1827 211.072 62.1953 211.068 62.206 211.061C62.2167 211.053 62.2248 211.043 62.2293 211.03L62.1816 210.8C61.943 209.647 61.6885 208.494 61.45 207.34C61.2511 206.41 61.0682 205.48 60.8694 204.549C62.1895 205.146 63.4779 205.79 64.7344 206.513C64.7344 206.8 64.8298 207.094 64.8696 207.356C64.9491 207.841 65.0366 208.319 65.1241 208.804C65.3229 209.893 65.5376 210.975 65.8 212.048C66.2798 214.13 66.888 216.181 67.6212 218.188C67.6133 218.2 67.6091 218.213 67.6091 218.228C67.6091 218.242 67.6133 218.256 67.6212 218.267L67.6768 218.339C67.7246 218.387 67.7961 218.339 67.7882 218.267C67.2951 216.176 66.7384 214.108 66.2772 212.009C66.0466 210.959 65.8159 209.917 65.6092 208.828C65.4978 208.303 65.4024 207.778 65.307 207.237C65.307 207.086 65.2513 206.927 65.2274 206.768C66.6579 207.604 68.0387 208.523 69.3628 209.519C71.6634 211.236 73.7939 213.169 75.7249 215.293C75.7965 215.373 75.9476 215.293 75.876 215.166C75.0884 214.093 74.2442 213.063 73.3471 212.08C72.8142 211.508 72.2655 210.959 71.7009 210.418H71.8758C72.3689 210.506 72.8699 210.577 73.3709 210.649C74.3491 210.776 75.3352 210.871 76.3134 210.983C76.4406 211.015 76.4724 210.911 76.385 210.895Z" fill="#263238"/>
<path d="M68.9335 215.683C68.9335 215.556 68.8938 215.436 68.8779 215.317C68.862 215.198 68.7665 215.007 68.7427 214.856C68.52 213.917 68.3371 212.963 68.1701 212.009C68.1701 211.945 68.0508 211.961 68.0508 212.009C68.1125 213.271 68.3812 214.515 68.846 215.691C68.846 215.691 68.9256 215.691 68.9176 215.691L68.9335 215.683Z" fill="#263238"/>
<path d="M60.0584 215.452C60.0564 215.437 60.0489 215.422 60.0372 215.412C60.0254 215.402 60.0104 215.396 59.9948 215.396C59.6926 214.148 59.4063 212.899 59.1518 211.635C59.0166 210.975 58.8814 210.315 58.7542 209.655C58.6826 209.297 58.619 208.939 58.5553 208.581C58.5276 208.266 58.4498 207.957 58.3247 207.666C58.3202 207.654 58.3121 207.644 58.3014 207.636C58.2907 207.629 58.2781 207.625 58.2651 207.625C58.2521 207.625 58.2394 207.629 58.2288 207.636C58.2181 207.644 58.21 207.654 58.2054 207.666C58.1964 208.308 58.2877 208.946 58.4758 209.559C58.6031 210.251 58.7383 210.935 58.8894 211.619C59.1995 213.011 59.5415 214.402 59.9391 215.77C59.9391 215.842 60.0823 215.826 60.0743 215.77C60.0663 215.715 60.0663 215.555 60.0584 215.452Z" fill="#263238"/>
<path d="M75.4227 206.839C73.4823 206.569 71.5498 206.29 69.6094 206.044C69.5219 206.044 69.4901 206.163 69.6094 206.171C71.5418 206.457 73.4823 206.696 75.4227 206.966C75.4704 206.974 75.5022 206.847 75.4227 206.839Z" fill="#263238"/>
<path d="M42.0853 167.951C42.0853 167.951 35.5959 139.481 66.1896 127.958C66.1896 127.958 74.6671 165.438 42.0853 167.951Z" fill="#80BCFF"/>
<path d="M48.6862 151.808L49.0203 151.601L50.746 150.639L54.2928 148.65C56.6309 147.346 58.9372 145.986 61.2832 144.674C61.3627 144.674 61.2832 144.523 61.2196 144.563C58.8338 145.843 56.448 147.036 54.0622 148.293L50.5551 150.145L49.1236 150.941C50.1416 149.008 51.239 147.108 52.4319 145.278C54.0224 142.845 55.78 140.507 57.6091 138.248C57.6886 138.145 57.5534 138.01 57.458 138.105C54.7745 140.714 52.3997 143.623 50.3802 146.774C50.3802 146.678 50.3802 146.575 50.3802 146.479C50.3802 145.772 50.4279 145.064 50.4438 144.356C50.4438 142.964 50.3961 141.573 50.4438 140.181C50.4438 140.101 50.3165 140.101 50.3165 140.181C50.2529 141.549 50.0939 142.909 50.0143 144.276C50.0143 144.96 49.9428 145.644 49.9269 146.32C49.9269 146.694 49.8791 147.116 49.9269 147.521C49.2906 148.523 48.6863 149.538 48.1137 150.567C47.0914 152.422 46.1806 154.337 45.3859 156.301C45.3859 155.593 45.3064 154.885 45.2666 154.177C45.1791 152.587 44.9883 151.068 44.9167 149.501C44.9167 149.422 44.7895 149.422 44.7895 149.501C44.7895 151.092 44.7895 152.619 44.7895 154.177C44.7895 154.973 44.8372 155.768 44.8929 156.516L44.9406 157.39C43.9683 159.932 43.1972 162.546 42.6343 165.208C42.1057 168.055 41.7234 170.927 41.4891 173.812C41.4891 173.812 41.4891 173.812 41.5289 173.812C41.8371 171.213 42.3692 168.646 43.1194 166.138C43.4932 164.794 43.9147 163.458 44.3282 162.162C45.6006 161.557 46.8174 160.81 48.05 160.126C49.2827 159.442 50.6108 158.734 51.8832 158.027C54.436 156.627 56.9888 155.203 59.6211 153.971C59.6927 153.971 59.6211 153.82 59.5495 153.859C56.8854 155.068 54.1974 156.245 51.5969 157.526C50.2927 158.186 49.0044 158.885 47.7319 159.601C46.6742 160.198 45.5847 160.794 44.5509 161.486C44.8451 160.603 45.1553 159.72 45.4973 158.846C46.4403 156.447 47.5047 154.098 48.6862 151.808Z" fill="#263238"/>
<path d="M46.1093 145.294C46.1093 145.207 45.9741 145.215 45.982 145.294C46.0854 146.885 46.1411 148.547 46.316 150.161C46.316 150.18 46.3236 150.198 46.337 150.212C46.3504 150.225 46.3686 150.233 46.3876 150.233C46.4066 150.233 46.4248 150.225 46.4382 150.212C46.4516 150.198 46.4592 150.18 46.4592 150.161C46.4035 148.531 46.2286 146.916 46.1093 145.294Z" fill="#263238"/>
<path d="M60.7741 150.734C58.8655 151.529 56.933 152.237 55.0244 153.032C54.9687 153.032 55.0244 153.143 55.0244 153.119C56.9648 152.396 58.8655 151.608 60.79 150.853C60.8934 150.829 60.8536 150.702 60.7741 150.734Z" fill="#263238"/>
<path d="M63.6847 137.596C61.815 138.46 59.9986 139.434 58.2451 140.515C58.2324 140.529 58.2247 140.546 58.2229 140.565C58.2212 140.584 58.2255 140.603 58.2354 140.619C58.2452 140.635 58.26 140.647 58.2775 140.654C58.295 140.661 58.3143 140.663 58.3326 140.658C60.106 139.616 61.9112 138.622 63.7562 137.707C63.8278 137.676 63.7563 137.564 63.6847 137.596Z" fill="#263238"/>
<path d="M63.2235 229.528H19.1024V276.035H63.2235V229.528Z" fill="#455A64"/>
<path d="M18.323 245.982H16.0645V341.548H18.323V245.982Z" fill="#263238"/>
<path d="M66.0228 245.982H63.7643V341.548H66.0228V245.982Z" fill="#263238"/>
<path d="M43.3737 245.982H41.1151V341.548H43.3737V245.982Z" fill="#263238"/>
<path d="M64.8935 273.053H17.1937V279.494H64.8935V273.053Z" fill="#263238"/>
<path d="M58.3406 341.215C84.8546 336.793 153.899 322.367 173.502 312.753C282.215 260.361 334.145 78.9458 334.789 77.1724H422.316C421.664 78.906 411.349 108.601 367.689 191.499C340.698 240.758 301.635 273.594 255.557 300.569C176.421 346.861 58.3406 341.215 58.3406 341.215Z" fill="#80BCFF"/>
<g opacity="0.1">
<path d="M58.3406 341.215C84.8546 336.793 153.899 322.367 173.502 312.753C282.215 260.361 334.145 78.9458 334.789 77.1724H422.316C421.664 78.906 411.349 108.601 367.689 191.499C340.698 240.758 301.635 273.594 255.557 300.569C176.421 346.861 58.3406 341.215 58.3406 341.215Z" fill="black"/>
</g>
<path d="M314.454 68.0825L334.789 77.1724C334.232 78.6515 307.138 218.252 224.248 285.26C166.082 332.276 128.856 343.314 2.48926 341.438V316.88C73.8003 316.88 124.673 314.574 171.085 290.358C275.828 235.716 314.295 68.4881 314.454 68.0825Z" fill="#80BCFF"/>
<path d="M314.454 68.0825H408.788L422.316 77.1724H334.789L314.454 68.0825Z" fill="#80BCFF"/>
<path d="M386.306 9.63086L447.645 87.1927L303.082 86.803L386.306 9.63086Z" fill="#80BCFF"/>
<g opacity="0.1">
<path d="M386.306 9.63086L447.645 87.1927L303.082 86.803L386.306 9.63086Z" fill="black"/>
</g>
<path d="M303.082 86.8028L282.055 77.1721L365.28 0L386.306 9.63061L303.082 86.8028Z" fill="#80BCFF"/>
<path d="M458.214 68.0025C457.846 71.5337 456.504 74.893 454.337 77.7055C452.17 80.5179 449.264 82.6726 445.944 83.9291C442.623 85.1855 439.019 85.4941 435.533 84.8205C432.048 84.1469 428.818 82.5175 426.204 80.1143L416.59 81.522L421.361 73.2353C420.263 70.5382 419.794 67.6262 419.99 64.7206C420.186 61.815 421.041 58.9923 422.492 56.4671C423.942 53.9419 425.95 51.7805 428.361 50.1474C430.772 48.5143 433.524 47.4524 436.407 47.0424C439.29 46.6324 442.229 46.8851 445 47.7812C447.771 48.6774 450.301 50.1935 452.398 52.2142C454.495 54.235 456.103 56.7072 457.101 59.443C458.1 62.1788 458.461 65.1061 458.158 68.0025H458.214Z" fill="white"/>
<path d="M458.214 68.0025C457.842 71.533 456.505 74.8928 454.349 77.7127C453.807 78.4109 453.225 79.0774 452.607 79.7088C451.971 80.3213 451.296 80.8924 450.587 81.4186C447.741 83.5659 444.355 84.8818 440.805 85.2199C439.922 85.3021 439.035 85.3207 438.149 85.2756C437.258 85.2502 436.37 85.1572 435.493 84.9973C431.963 84.3472 428.684 82.7282 426.021 80.3211L426.244 80.3927L416.701 81.856L416.009 81.9673L416.359 81.355L421.131 73.0525V73.3785C419.732 69.9505 419.344 66.1936 420.013 62.5522C420.683 58.9109 422.381 55.5374 424.908 52.8311C427.434 50.1247 430.683 48.1986 434.27 47.2808C437.857 46.3629 441.631 46.4917 445.147 47.6518C447.917 48.5898 450.441 50.1359 452.535 52.1768C454.616 54.2145 456.207 56.6971 457.191 59.438C458.174 62.179 458.524 65.1071 458.214 68.0025ZM458.214 68.0025C458.521 65.1157 458.16 62.1969 457.16 59.4714C456.161 56.7459 454.548 54.2866 452.447 52.2831C450.346 50.2797 447.813 48.7857 445.043 47.9166C442.273 47.0474 439.34 46.8262 436.471 47.2701C433.629 47.6924 430.922 48.7617 428.558 50.3955C426.217 52.0397 424.261 54.1723 422.824 56.6462C421.413 59.129 420.583 61.8999 420.399 64.7499C420.217 67.5988 420.676 70.4523 421.743 73.1002L421.814 73.2672L421.727 73.4262L416.9 81.6969L416.558 81.188L426.133 79.844H426.268L426.363 79.9315C428.921 82.3277 432.097 83.9635 435.533 84.6553C436.39 84.8287 437.259 84.9351 438.133 84.9734C439.007 85.033 439.884 85.033 440.758 84.9734C442.506 84.8399 444.227 84.4625 445.871 83.8521C447.525 83.2495 449.081 82.4082 450.492 81.355C451.199 80.835 451.873 80.2719 452.511 79.669C453.134 79.0469 453.716 78.3855 454.253 77.6888C456.442 74.8874 457.813 71.5349 458.214 68.0025Z" fill="#263238"/>
<path d="M436.447 76.9492L428.264 68.6705L431.008 65.9507L435.787 70.7939L445.72 55.2227L448.981 57.3062L436.447 76.9492Z" fill="#80BCFF"/>
<path d="M328.101 341.787C329.898 342.368 381.105 341.708 383.038 340.443C383.777 339.974 384.119 332.49 384.27 323.472V323.186C384.27 321.325 379.499 290.103 379.499 290.103L345.247 290.445L351.187 323.25V323.806C351.187 323.806 331.704 332.832 329.715 334.447C327.727 336.061 326.304 341.214 328.101 341.787Z" fill="#FBC6BF"/>
<path d="M384.27 323.186V323.472C384.119 332.498 383.777 339.966 383.038 340.443C381.105 341.699 329.898 342.367 328.109 341.787C326.32 341.206 327.823 336.053 329.779 334.447C331.735 332.84 351.251 323.814 351.251 323.814V323.241L350.353 318.295H383.714C384.056 320.919 384.278 322.78 384.27 323.186Z" fill="#EBEBEB"/>
<path d="M328.101 341.787C329.023 342.081 342.933 342.049 356.532 341.787C359.267 341.731 361.987 341.667 364.58 341.596C374.274 341.333 382.29 340.928 383.03 340.443C383.769 339.958 384.103 332.721 384.254 323.854C384.254 323.726 384.254 323.607 384.254 323.48C384.254 323.353 384.254 323.281 384.254 323.186H384.215L351.211 323.249V323.814C351.211 323.814 331.727 332.832 329.739 334.446C327.751 336.061 326.304 341.214 328.101 341.787Z" fill="#80BCFF"/>
<path d="M328.658 339.799C337.286 339.473 372.119 339.004 380.676 339.314C380.747 339.314 380.747 339.37 380.676 339.37C372.127 339.879 337.294 340.085 328.658 339.934C328.475 339.934 328.475 339.799 328.658 339.799Z" fill="#263238"/>
<path d="M347.553 323.393C350.941 322.709 355.1 323.178 357.732 325.564C357.836 325.659 357.732 325.802 357.589 325.771C354.33 324.76 350.97 324.107 347.569 323.822C347.541 323.823 347.513 323.819 347.486 323.809C347.46 323.799 347.436 323.784 347.415 323.765C347.394 323.746 347.377 323.723 347.366 323.697C347.354 323.671 347.347 323.644 347.346 323.615C347.345 323.587 347.35 323.559 347.36 323.533C347.369 323.506 347.384 323.482 347.404 323.461C347.423 323.441 347.446 323.424 347.472 323.412C347.497 323.4 347.525 323.394 347.553 323.393Z" fill="#263238"/>
<path d="M345.12 324.896C348.507 324.22 352.675 324.689 355.299 327.075C355.402 327.17 355.299 327.313 355.156 327.273C351.897 326.271 348.54 325.618 345.143 325.325C345.087 325.328 345.031 325.309 344.988 325.271C344.946 325.233 344.92 325.179 344.917 325.122C344.914 325.065 344.933 325.009 344.971 324.967C345.009 324.924 345.063 324.899 345.12 324.896Z" fill="#263238"/>
<path d="M342.686 326.407C346.074 325.731 350.241 326.2 352.865 328.586C352.969 328.673 352.865 328.817 352.722 328.785C349.463 327.783 346.107 327.13 342.71 326.836C342.653 326.84 342.597 326.82 342.555 326.782C342.512 326.744 342.486 326.691 342.483 326.634C342.48 326.577 342.5 326.521 342.538 326.478C342.576 326.436 342.629 326.41 342.686 326.407Z" fill="#263238"/>
<path d="M347.553 323.146H385.352C385.352 323.146 373.701 246.801 373.996 245.306C374.139 244.511 426.936 165.199 426.936 165.199H387.595C387.595 165.199 343.219 221.941 338.225 236.232C334.598 246.65 347.553 323.146 347.553 323.146Z" fill="#263238"/>
<path d="M369.264 242.387C369.813 240.176 371.077 238.22 372.238 236.287C374.87 231.937 420.232 169.072 420.868 168.038C420.916 167.959 421.043 167.998 421.003 168.038C419.206 171.816 374.385 233.082 371.602 238.912C370.544 241.138 369.63 243.198 369.677 245.695C369.811 248.202 370.077 250.7 370.473 253.179C370.801 255.686 371.133 258.189 371.467 260.686C372.145 265.696 372.848 270.698 373.574 275.693C375.043 285.729 376.567 295.762 378.147 305.793C378.346 307.042 378.552 308.29 378.759 309.531C378.759 309.65 378.6 309.698 378.576 309.579C376.779 299.55 375.029 289.522 373.511 279.446C371.992 269.37 370.616 259.278 369.28 249.171C368.85 246.93 368.845 244.629 369.264 242.387Z" fill="#455A64"/>
<path d="M380.89 314.191C375.324 314.191 376.914 314.088 371.435 314.152C368.731 314.152 350.989 314.39 348.476 314.947C348.42 314.947 348.42 315.066 348.476 315.074C351.012 315.504 368.747 314.939 371.451 314.843C376.962 314.661 375.379 314.645 380.89 314.39C380.994 314.398 380.994 314.191 380.89 314.191Z" fill="#37474F"/>
<path d="M503.933 341.294C502.144 341.907 450.937 342.177 448.981 340.952C448.233 340.491 447.756 333 447.446 324.005C447.446 323.91 447.446 323.814 447.446 323.719C447.374 321.866 434.603 290.97 434.603 290.97L468.075 290.7L480.473 323.146V323.711C480.473 323.711 500.124 332.371 502.136 333.946C504.148 335.521 505.715 340.69 503.933 341.294Z" fill="#FBC6BF"/>
<path d="M503.933 341.294C502.144 341.906 450.937 342.177 448.981 340.952C448.233 340.491 447.756 333 447.446 324.005C447.446 323.91 447.446 323.814 447.446 323.719C447.446 323.623 444.973 317.524 444.965 317.253L478.008 316.896L480.481 323.178V323.743C480.481 323.743 500.132 332.403 502.144 333.978C504.156 335.552 505.715 340.69 503.933 341.294Z" fill="#EBEBEB"/>
<path d="M503.933 341.294C502.144 341.906 450.937 342.177 448.981 340.952C448.233 340.491 447.756 332.999 447.446 324.005C447.446 323.909 447.446 323.814 447.446 323.719L480.481 323.178V323.742C480.481 323.742 500.132 332.403 502.144 333.977C504.156 335.552 505.715 340.689 503.933 341.294Z" fill="#80BCFF"/>
<path d="M503.345 339.314C494.708 339.147 459.868 339.314 451.327 339.783C451.255 339.783 451.255 339.831 451.327 339.838C459.876 340.188 494.716 339.759 503.345 339.449C503.528 339.449 503.528 339.314 503.345 339.314Z" fill="#263238"/>
<path d="M484.187 323.249C480.791 322.637 476.64 323.178 474.055 325.635C473.952 325.73 474.055 325.874 474.198 325.842C477.439 324.772 480.785 324.055 484.179 323.703C484.239 323.704 484.297 323.681 484.34 323.639C484.384 323.597 484.409 323.54 484.41 323.48C484.411 323.42 484.388 323.362 484.346 323.318C484.304 323.275 484.247 323.25 484.187 323.249Z" fill="#263238"/>
<path d="M486.612 324.737C483.209 324.116 479.057 324.657 476.473 327.122C476.369 327.21 476.513 327.353 476.616 327.321C479.847 326.243 483.185 325.515 486.573 325.15C486.62 325.143 486.663 325.12 486.695 325.085C486.727 325.05 486.748 325.006 486.752 324.959C486.757 324.911 486.745 324.864 486.72 324.824C486.695 324.784 486.657 324.753 486.612 324.737Z" fill="#263238"/>
<path d="M489.07 326.184C485.666 325.563 481.515 326.112 478.93 328.57C478.835 328.665 478.97 328.8 479.081 328.768C482.319 327.701 485.663 326.986 489.054 326.637C489.114 326.639 489.173 326.617 489.217 326.576C489.261 326.535 489.286 326.478 489.289 326.418C489.291 326.358 489.269 326.3 489.228 326.256C489.187 326.212 489.13 326.186 489.07 326.184Z" fill="#263238"/>
<path d="M391.73 165.231C391.73 165.231 396.446 193.972 396.764 194.894C396.764 194.894 398.521 195.689 401.678 197.185L439.851 323.051L482.127 323.202L431.97 165.231H391.73Z" fill="#263238"/>
<path d="M395.229 194.003C398.897 195.534 402.426 197.381 405.774 199.522C405.797 199.541 405.813 199.566 405.819 199.595C405.825 199.623 405.822 199.653 405.809 199.679C405.796 199.705 405.774 199.726 405.748 199.738C405.721 199.75 405.691 199.752 405.663 199.745C402.108 198.011 398.506 196.349 395.014 194.425C394.967 194.392 394.933 194.343 394.918 194.287C394.904 194.231 394.911 194.172 394.937 194.12C394.963 194.068 395.007 194.028 395.061 194.007C395.115 193.985 395.175 193.984 395.229 194.003Z" fill="#455A64"/>
<path d="M396.589 177.542C397.169 180.977 397.488 184.469 397.877 187.936L398.164 190.433C398.184 191.199 398.388 191.95 398.76 192.62C399.508 193.781 400.844 194.322 402.06 194.855C402.196 194.91 402.14 195.133 401.989 195.085C400.683 194.772 399.477 194.135 398.482 193.232C397.376 192.063 397.408 190.29 397.241 188.787C396.758 185.063 396.492 181.313 396.446 177.558C396.43 177.47 396.573 177.446 396.589 177.542Z" fill="#455A64"/>
<path d="M400.772 178.592C400.891 181.073 401.17 183.554 401.377 186.02C401.48 187.244 401.567 188.461 401.639 189.686C401.711 190.91 401.862 192.199 401.822 193.447C401.822 193.527 401.687 193.551 401.671 193.447C401.464 192.27 401.44 191.061 401.337 189.853C401.233 188.644 401.154 187.348 401.082 186.091C400.939 183.594 400.876 181.073 400.645 178.576C400.685 178.512 400.764 178.52 400.772 178.592Z" fill="#455A64"/>
<path d="M406.172 202.465C409.098 209.623 440.368 311.893 440.71 312.784C440.71 312.856 440.622 312.895 440.591 312.832C436.408 304.649 409.719 212.366 407.047 205.177L406.045 202.505C406.029 202.442 406.14 202.394 406.172 202.465Z" fill="#455A64"/>
<path d="M439.549 315.989C440.774 315.822 442.038 315.822 443.271 315.734C444.503 315.647 445.744 315.631 446.985 315.599C449.466 315.544 451.947 315.512 454.428 315.48C459.348 315.427 464.274 315.4 469.204 315.4C472.011 315.4 474.827 315.551 477.634 315.615C477.645 315.611 477.656 315.61 477.668 315.612C477.679 315.613 477.69 315.618 477.699 315.624C477.708 315.631 477.716 315.64 477.721 315.65C477.726 315.66 477.729 315.671 477.729 315.683C477.729 315.694 477.726 315.705 477.721 315.716C477.716 315.726 477.708 315.734 477.699 315.741C477.69 315.748 477.679 315.752 477.668 315.754C477.656 315.755 477.645 315.754 477.634 315.75C475.161 315.854 472.679 316.005 470.198 316.1C467.717 316.196 465.244 316.204 462.763 316.243C457.76 316.315 452.766 316.394 447.772 316.379C446.38 316.379 444.996 316.379 443.605 316.331C442.213 316.283 440.869 316.331 439.533 316.132C439.445 316.1 439.477 315.989 439.549 315.989Z" fill="#455A64"/>
<path d="M405.806 122.843C397.925 116.211 386.489 100.703 384.469 94.7946C381.861 87.184 378.306 61.3936 381.089 58.65C382.632 57.139 400.7 61.0358 401.583 63.1989C402.466 65.362 401.106 87.6611 401.257 89.3789C401.408 91.0967 408.414 107.789 412.478 115.805C417.218 125.182 410.943 127.17 405.806 122.843Z" fill="#FBC6BF"/>
<path d="M380.381 66.2769C379.744 64.8007 379.594 63.1601 379.952 61.5928C380.644 59.0957 382.6 56.5429 382.242 54.9683C381.678 52.4632 379.65 48.3596 380.652 47.5564C382.696 45.8864 384.962 47.3338 387.324 52.0417C387.936 53.2664 388.747 56.2964 389.614 56.519C391.125 56.9167 392 54.2843 392.374 51.8349C393.113 47.0634 393.225 40.081 396.454 39.4368C397.678 39.1982 398.1 40.9717 398.179 43.1268C398.553 40.0412 399.277 37.0033 400.621 36.6773C400.968 36.596 401.334 36.6514 401.642 36.832C401.949 37.0126 402.176 37.3045 402.275 37.6475C402.364 37.2916 402.556 36.9701 402.828 36.7238C403.1 36.4774 403.439 36.3173 403.802 36.2637C405.042 36.1603 405.806 37.3214 406.267 38.904C406.383 38.7899 406.524 38.7052 406.679 38.6567C406.834 38.6083 406.998 38.5977 407.158 38.6256C410.45 38.9597 410.896 51.0238 409.496 53.9265C406.585 59.6362 402.903 64.9185 398.553 69.6249C394.004 70.619 380.381 66.2769 380.381 66.2769Z" fill="#FBC6BF"/>
<path d="M396.509 56.9403C397.645 55.0227 398.34 52.8768 398.545 50.6577C398.76 48.0493 398.267 45.4408 398.219 42.8403C398.219 42.7687 398.108 42.7767 398.108 42.8403C398.195 44.1127 398.108 45.401 398.179 46.6735C398.251 47.9459 398.275 49.1785 398.179 50.4271C398.097 52.6951 397.499 54.9145 396.43 56.9164L396.509 56.9403Z" fill="#263238"/>
<path d="M400.637 58.0779C401.743 55.7866 402.611 53.3884 403.23 50.9206C403.81 48.2167 403.428 45.4253 403.094 42.7055C402.898 41.0779 402.662 39.4503 402.387 37.8226C402.387 37.759 402.267 37.759 402.275 37.8226C402.641 40.5981 402.927 43.3894 403.126 46.1888C403.331 48.7853 403.017 51.3967 402.204 53.871C401.742 55.2866 401.17 56.6624 400.613 58.0302C400.589 58.0859 400.629 58.1018 400.637 58.0779Z" fill="#263238"/>
<path d="M404.939 58.2205C406.045 56.0813 407.023 54.2442 407.325 51.8028C407.593 48.9988 407.51 46.1724 407.078 43.3889C406.872 41.8859 406.617 40.3987 406.339 38.9036C406.339 38.848 406.22 38.9036 406.228 38.9036C406.78 42.2396 407.115 45.6081 407.23 48.9876C407.309 50.5944 407.14 52.2039 406.729 53.7591C406.239 55.2812 405.625 56.7601 404.891 58.1808C404.891 58.1808 404.931 58.2285 404.939 58.2205Z" fill="#263238"/>
<path d="M402.641 70.7222L379.085 73.7124C379.085 73.7124 382.489 92.2499 384.143 96.6238C385.797 100.998 400.295 120.633 406.275 124.458C412.256 128.283 416.614 125.253 413.433 116.505C410.251 107.757 402.999 91.1365 402.617 89.3392C402.235 87.5419 402.641 70.7222 402.641 70.7222Z" fill="#455A64"/>
<path d="M409.838 107.336L394.322 111.702C392.366 109.213 390.489 106.676 388.891 104.386L406.569 99.4072C407.619 101.92 408.748 104.664 409.838 107.336Z" fill="#37474F"/>
<path d="M401.114 76.8854C397.933 77.4262 384.612 79.1837 381.71 79.3746C381.511 79.3746 381.455 79.2633 381.662 79.2235C388.088 78.0491 394.574 77.2261 401.09 76.7582C401.17 76.7502 401.201 76.8695 401.114 76.8854Z" fill="#263238"/>
<path opacity="0.1" d="M406.251 124.434C401.973 121.714 393.328 110.915 388.151 103.336L410.418 108.76C411.58 111.615 412.645 114.326 413.456 116.513C416.645 125.206 412.248 128.236 406.251 124.434Z" fill="black"/>
<path d="M435.167 176.222C435.167 176.222 379.189 175.18 379.085 175.069C378.982 174.957 386.545 126.558 394.02 113.038C396.827 107.948 406.601 108.322 410.267 111.177C419.437 118.311 435.318 172.969 435.167 176.222Z" fill="#455A64"/>
<path d="M433.29 168.07L380.35 167.275C380.652 165.517 381.002 163.529 381.391 161.374L431.596 162.098C432.24 164.309 432.813 166.313 433.29 168.07Z" fill="#37474F"/>
<path d="M434.284 171.855L379.729 171.06C379.825 170.487 379.928 169.851 380.047 169.175L433.799 169.971C433.974 170.639 434.141 171.251 434.284 171.855Z" fill="#37474F"/>
<path d="M396.12 117.261C398.569 118.056 405.798 114.08 407.547 110.255C407.667 109.992 407.086 107.352 406.53 104.107C406.203 102.143 405.877 99.94 405.734 97.9121L393.241 101.928C394.151 104.412 394.754 106.997 395.038 109.626C395.066 109.904 395.066 110.184 395.038 110.461C395.038 110.501 395.038 110.549 395.038 110.604C394.855 112.203 393.296 116.378 396.12 117.261Z" fill="#FBC6BF"/>
<path d="M405.09 98.0869C404.852 100.862 403.5 109.857 396.342 110.549C395.903 110.588 395.462 110.588 395.022 110.549C395.022 110.493 395.022 110.445 395.022 110.406C395.047 110.128 395.047 109.848 395.022 109.57C394.744 106.943 394.143 104.36 393.233 101.88L405.09 98.0869Z" fill="#263238"/>
<path d="M410.665 87.3748C410.816 92.1066 405.098 104.075 401.209 106.04C395.643 108.895 388.135 107.272 386.147 100.926C384.215 94.7707 391.969 79.3029 396.128 77.6885C402.275 75.3187 410.458 80.4004 410.665 87.3748Z" fill="#FBC6BF"/>
<path opacity="0.3" d="M406.872 98.8824C405.082 102.254 402.959 105.189 401.217 106.04C395.603 108.895 388.135 107.272 386.147 100.926C385.455 98.7154 386.004 95.3037 387.197 91.7568C387.873 94.246 391.3 93.411 391.3 93.411L392.748 93.9756C393.432 96.926 397.949 97.9519 400.7 97.2282C402.697 96.7272 405.186 93.2917 405.186 93.2917L406.872 98.8824Z" fill="#263238"/>
<path d="M407.396 97.7454C405.4 97.634 405.011 95.7334 404.828 94.445C404.478 91.7571 407.563 87.4785 407.214 84.3691C407.124 83.4511 406.727 82.5905 406.085 81.9275C405.444 81.2646 404.597 80.8386 403.683 80.7188C402.036 80.6552 399.436 81.9674 398.362 81.5141C397.289 81.0608 397.837 78.5557 397.066 78.333C395.38 77.7525 392.175 81.4505 391.237 83.208C391.237 83.208 394.283 74.7862 402.641 76.8459C410.792 78.8102 411.389 84.9258 411.245 87.5422C411.023 92.4728 407.396 97.7454 407.396 97.7454Z" fill="#263238"/>
<path d="M396 91.5503C396 91.5503 396 91.6219 396 91.6537C395.579 92.4489 395.205 93.4112 395.817 94.0395C395.817 94.0395 395.817 94.0951 395.817 94.0792C394.99 93.5146 395.468 92.2263 396 91.5503Z" fill="#263238"/>
<path d="M397.13 91.0652C398.466 91.606 397.281 94.2463 396.048 93.7373C394.815 93.2283 396.008 90.6119 397.13 91.0652Z" fill="#263238"/>
<path d="M391.499 89.3394C391.499 89.3394 391.412 89.3394 391.404 89.3871C391.062 90.1823 390.529 91.1048 389.67 91.0412C389.67 91.0412 389.67 91.0412 389.67 91.0889C390.617 91.3752 391.308 90.1903 391.499 89.3394Z" fill="#263238"/>
<path d="M391.141 88.1704C389.869 87.4864 388.589 90.071 389.765 90.7072C390.942 91.3435 392.215 88.743 391.141 88.1704Z" fill="#263238"/>
<path d="M399.468 89.3392C399.076 89.2777 398.689 89.1954 398.307 89.0927C397.886 89.0673 397.486 88.9021 397.169 88.6235C397.088 88.5158 397.044 88.3846 397.044 88.2497C397.044 88.1148 397.088 87.9836 397.169 87.8759C397.364 87.6887 397.605 87.5568 397.868 87.4939C398.131 87.431 398.406 87.4393 398.664 87.5181C399.212 87.5982 399.709 87.8823 400.056 88.3133C400.128 88.4148 400.169 88.5347 400.175 88.6588C400.181 88.783 400.151 88.9062 400.089 89.014C400.027 89.1218 399.936 89.2096 399.826 89.2673C399.716 89.3249 399.591 89.3498 399.468 89.3392Z" fill="#263238"/>
<path d="M390.648 86.4286C391.006 86.5941 391.372 86.7402 391.746 86.866C392.111 87.0769 392.536 87.1608 392.955 87.1045C393.082 87.0611 393.192 86.9767 393.267 86.8646C393.341 86.7524 393.377 86.6187 393.368 86.4842C393.311 86.2211 393.184 85.9783 393.001 85.781C392.817 85.5838 392.584 85.4394 392.326 85.3629C391.83 85.1243 391.262 85.0817 390.736 85.2436C390.615 85.2839 390.51 85.3589 390.432 85.4592C390.354 85.5594 390.307 85.6804 390.298 85.807C390.289 85.9336 390.317 86.0601 390.379 86.1707C390.441 86.2813 390.535 86.371 390.648 86.4286Z" fill="#263238"/>
<path d="M394.322 95.9956C393.973 96.2218 393.581 96.3744 393.171 96.4442C392.761 96.5139 392.341 96.4993 391.936 96.4012C391.579 96.3169 391.236 96.1802 390.919 95.9956C390.855 95.966 390.794 95.9314 390.736 95.8923L390.569 95.7809C390.53 95.7528 390.501 95.7128 390.487 95.6669C390.472 95.621 390.473 95.5718 390.489 95.5264L390.537 95.4469V95.3753C390.807 94.7391 391.332 93.7848 391.332 93.7848C391.054 93.7848 389.646 93.7848 389.813 93.4747C391.152 90.6653 392.774 88.0005 394.656 85.5221C394.67 85.5094 394.688 85.5016 394.707 85.4999C394.726 85.4981 394.744 85.5025 394.761 85.5124C394.777 85.5222 394.789 85.537 394.796 85.5545C394.803 85.572 394.804 85.5913 394.799 85.6095C393.567 88.2021 391.897 90.564 390.624 93.1486C391.127 93.1416 391.627 93.2059 392.111 93.3395C392.191 93.4031 391.141 95.1129 391.046 95.4151C391.538 95.6971 392.081 95.8769 392.644 95.9439C393.207 96.0108 393.778 95.9635 394.322 95.8048C394.378 95.8684 394.418 95.9479 394.322 95.9956Z" fill="#263238"/>
<path d="M391.42 95.8447C391.569 96.4399 391.867 96.9873 392.287 97.4352C392.522 97.678 392.828 97.8396 393.161 97.8965C393.885 98.0158 394.171 97.4273 394.283 96.8627C394.34 96.5615 394.359 96.2541 394.338 95.9481C393.379 96.225 392.357 96.1888 391.42 95.8447Z" fill="#263238"/>
<path d="M392.287 97.4588C392.522 97.7016 392.828 97.8631 393.161 97.92C393.885 98.0393 394.171 97.4508 394.283 96.8862C393.934 96.7423 393.547 96.7205 393.185 96.8245C392.822 96.9285 392.506 97.152 392.287 97.4588Z" fill="#FF9CBD"/>
<path d="M394.832 95.9715C394.021 95.4118 393.465 94.5533 393.286 93.5842C393.107 92.6152 393.32 91.6148 393.877 90.8023C394.269 90.2261 394.814 89.7716 395.452 89.4908C396.09 89.21 396.793 89.1142 397.483 89.2143C398.172 89.3145 398.82 89.6065 399.351 90.0571C399.882 90.5076 400.276 91.0986 400.488 91.7623C400.699 92.4261 400.72 93.136 400.547 93.8109C400.374 94.4858 400.015 95.0985 399.51 95.579C399.006 96.0594 398.376 96.3883 397.694 96.5281C397.011 96.6678 396.303 96.6127 395.651 96.3692C395.363 96.2684 395.088 96.135 394.832 95.9715ZM394.283 91.0807C393.917 91.6027 393.714 92.2216 393.7 92.8589C393.686 93.4962 393.862 94.1233 394.205 94.6608C394.547 95.1983 395.042 95.622 395.626 95.8782C396.209 96.1345 396.856 96.2118 397.484 96.1003C398.111 95.9888 398.692 95.6936 399.151 95.252C399.611 94.8104 399.93 94.2423 400.066 93.6197C400.203 92.997 400.152 92.3479 399.919 91.7543C399.687 91.1608 399.283 90.6496 398.76 90.2854C398.542 90.131 398.304 90.0079 398.052 89.9196C397.389 89.6791 396.665 89.6624 395.992 89.8721C395.318 90.0818 394.732 90.5063 394.323 91.0807H394.283Z" fill="#263238"/>
<path d="M387.849 92.3929C386.489 91.701 386.139 89.6572 387.054 87.8281C387.46 86.9961 388.116 86.3121 388.93 85.8717C389.268 85.659 389.655 85.5373 390.053 85.5186C390.451 85.5 390.848 85.5849 391.203 85.7652C391.559 85.9455 391.862 86.2149 392.082 86.5472C392.303 86.8794 392.434 87.2632 392.461 87.6611C392.586 88.5797 392.419 89.5143 391.984 90.3331C391.109 92.0668 389.4 92.9814 388.064 92.4962L387.849 92.3929ZM389.161 86.3091C388.443 86.7053 387.866 87.3136 387.507 88.0507C386.712 89.6413 386.958 91.3829 388.072 91.9555C389.185 92.528 390.752 91.693 391.555 90.1105C391.943 89.3793 392.093 88.5452 391.984 87.7247C391.952 87.4094 391.845 87.1063 391.672 86.8406C391.5 86.575 391.266 86.3546 390.99 86.1978L390.815 86.1182C390.541 86.0332 390.253 86.0062 389.968 86.0391C389.683 86.0719 389.408 86.1639 389.161 86.3091Z" fill="#263238"/>
<path d="M393.789 91.2399L394.251 91.049C393.964 90.3651 393.09 89.2119 391.865 89.6652L392.032 90.1344C393.129 89.7209 393.766 91.1762 393.789 91.2399Z" fill="#263238"/>
<path d="M408.12 99.5903H408.637C408.637 99.3597 408.589 97.3079 407.683 96.6478C406.776 95.9878 400.613 93.5702 400.35 93.4668L400.167 93.928C401.957 94.6358 406.736 96.5683 407.396 97.0455C408.056 97.5226 408.12 99.0257 408.12 99.5903Z" fill="#263238"/>
<path d="M404.35 95.2797C404.35 95.2797 408.375 92.0589 409.917 93.6096C411.46 95.1604 407.603 100.409 405.209 100.584C404.903 100.626 404.592 100.606 404.294 100.525C403.996 100.443 403.718 100.303 403.476 100.111C403.233 99.9195 403.032 99.6808 402.885 99.4095C402.737 99.1381 402.646 98.8398 402.617 98.5323L404.35 95.2797Z" fill="#FBC6BF"/>
<path d="M408.772 95.089C408.772 95.089 408.772 95.1447 408.772 95.1526C407.078 95.3196 405.87 96.4887 404.883 97.777C405.016 97.6522 405.175 97.5575 405.348 97.4996C405.521 97.4417 405.704 97.4219 405.885 97.4416C406.067 97.4612 406.242 97.5198 406.398 97.6134C406.555 97.707 406.689 97.8333 406.792 97.9838C406.792 97.9838 406.792 98.0712 406.728 98.0474C406.49 97.8928 406.211 97.8139 405.927 97.821C405.643 97.8281 405.368 97.9209 405.138 98.0872C404.747 98.3783 404.39 98.7116 404.072 99.0812C403.961 99.1926 403.738 99.0812 403.834 98.9063C404.351 96.934 406.641 94.6755 408.772 95.089Z" fill="#263238"/>
<path d="M398.132 126.51C387.26 124.442 366.051 115.185 362.742 112.767C355.808 107.71 341.636 82.8338 342.861 78.8336C343.521 76.6308 362.408 75.8276 364.333 77.3465C366.257 78.8654 374.671 97.5143 375.745 99.0333C376.819 100.552 398.179 114.835 402.879 118.915C411.341 126.295 405.209 127.861 398.132 126.51Z" fill="#FBC6BF"/>
<path d="M363.029 84.2259C363.029 84.2259 367.005 77.0685 369.391 72.297C370.711 69.6249 372.572 64.8295 372.636 62.4198C372.747 58.8173 370.886 43.6755 367.204 44.0493C363.872 44.3833 367.116 57.187 367.116 57.187C367.116 57.187 364.985 43.9777 361.041 45.1229C357.096 46.2681 362.703 60.2328 362.703 60.2328C362.703 60.2328 360.206 46.7134 356.341 48.5266C353.414 49.9024 357.772 62.8413 357.772 62.8413C357.772 62.8413 355.545 51.2305 352.468 52.5029C349.072 53.9185 352.349 66.1257 352.349 66.1257C345.088 70.7064 342.177 73.9113 342.805 79.6452C342.861 80.5915 363.029 84.2259 363.029 84.2259Z" fill="#FBC6BF"/>
<path d="M368.476 62.7935C368.277 61.2029 368.095 59.6124 367.761 58.1173C367.427 56.6222 367.037 55.0476 366.568 53.5446C365.983 51.5753 365.183 49.6764 364.182 47.8823C365.772 51.1906 367.021 56.6859 367.363 58.2207C367.705 59.7556 368.111 61.2745 368.445 62.8094C368.429 62.8491 368.476 62.8332 368.476 62.7935Z" fill="#263238"/>
<path d="M362.941 64.0979C362.607 62.1177 362.345 60.1215 361.924 58.1652C361.502 56.2089 360.818 53.4811 360.269 51.5566C360.222 51.4134 359.991 51.4134 360.031 51.5566C360.508 53.497 361.073 56.3281 361.526 58.2606C361.979 60.1931 362.512 62.1415 362.894 64.1058C362.902 64.1456 362.949 64.1297 362.941 64.0979Z" fill="#263238"/>
<path d="M358.392 66.0699C357.957 63.0181 357.205 60.0198 356.15 57.1232C356.102 56.9801 356.031 57.0755 356.07 57.2266C356.866 60.1929 357.526 62.5071 358.297 66.0858C358.297 66.1415 358.4 66.1335 358.392 66.0699Z" fill="#263238"/>
<path d="M344.46 88.3689L368.381 81.1479C368.381 81.1479 374.894 96.9577 375.928 98.3654C376.962 99.773 400.152 114.915 404.78 118.716C409.409 122.517 408.645 129.635 398.704 127.734C390.131 126.096 366.894 116.601 362.552 113.698C358.21 110.795 344.46 88.3689 344.46 88.3689Z" fill="#455A64"/>
<path d="M393.734 110.875L384.835 123.416C382.115 122.406 379.324 121.317 376.66 120.235L386.712 106.08C388.994 107.63 391.42 109.284 393.734 110.875Z" fill="#37474F"/>
<path d="M349.692 93.061C352.969 92.1783 366.242 88.0668 369.049 86.9773C369.248 86.9057 369.248 86.7626 369.049 86.8182C359.164 89.204 352.849 91.8999 349.676 92.9338C349.581 92.9576 349.613 93.0849 349.692 93.061Z" fill="#263238"/>
<path d="M386.044 123.846C389.958 124.722 393.774 125.993 397.432 127.639C393.517 126.763 389.702 125.492 386.044 123.846Z" fill="#263238"/>
<path d="M393.36 126.327C394.227 126.804 395.42 127.392 396.239 127.917C395.672 127.878 395.121 127.716 394.623 127.441C394.126 127.166 393.695 126.786 393.36 126.327Z" fill="#263238"/>
<path d="M404.78 118.716C402.549 117.599 400.517 116.121 398.768 114.342C401 115.458 403.031 116.936 404.78 118.716Z" fill="#263238"/>
</svg>
