<svg width="62" height="55" viewBox="0 0 62 55" fill="none" xmlns="http://www.w3.org/2000/svg">
<path d="M56.1875 0.125C59.3359 0.125 62 2.78906 62 5.9375V35C62 45.7773 53.2812 54.375 42.625 54.375H41.6562C39.9609 54.375 38.75 53.1641 38.75 51.4688V45.6562C38.75 44.082 39.9609 42.75 41.6562 42.75H42.625C46.8633 42.75 50.375 39.3594 50.375 35V27.25H40.6875C37.418 27.25 34.875 24.707 34.875 21.4375V5.9375C34.875 2.78906 37.418 0.125 40.6875 0.125H56.1875ZM21.3125 0.125C24.4609 0.125 27.125 2.78906 27.125 5.9375V35C27.125 45.7773 18.4062 54.375 7.75 54.375H6.78125C5.08594 54.375 3.875 53.1641 3.875 51.4688V45.6562C3.875 44.082 5.08594 42.75 6.78125 42.75H7.75C11.9883 42.75 15.5 39.3594 15.5 35V27.25H5.8125C2.54297 27.25 0 24.707 0 21.4375V5.9375C0 2.78906 2.54297 0.125 5.8125 0.125H21.3125Z" fill="#0078FF"/>
</svg>
