<svg width="18" height="21" viewBox="0 0 18 21" fill="none" xmlns="http://www.w3.org/2000/svg">
<path d="M14 14.5C15.6569 14.5 17 15.8431 17 17.5C17 19.1569 15.6569 20.5 14 20.5C12.3431 20.5 11 19.1569 11 17.5C11 15.8431 12.3431 14.5 14 14.5ZM4 10.5C6.20914 10.5 8 12.2909 8 14.5C8 16.7091 6.20914 18.5 4 18.5C1.79086 18.5 0 16.7091 0 14.5C0 12.2909 1.79086 10.5 4 10.5ZM12.5 0.5C15.5376 0.5 18 2.96243 18 6C18 9.0376 15.5376 11.5 12.5 11.5C9.4624 11.5 7 9.0376 7 6C7 2.96243 9.4624 0.5 12.5 0.5Z" fill="#0078FF"/>
</svg>
