<svg width="19" height="21" viewBox="0 0 19 21" fill="none" xmlns="http://www.w3.org/2000/svg">
<path d="M8 0.5C12.0675 0.5 15.426 3.53562 15.9337 7.46494L18.1842 11.0037C18.3324 11.2367 18.3025 11.5847 17.9593 11.7317L16 12.571V15.5C16 16.6046 15.1046 17.5 14 17.5H12.001L12 20.5H3L3.00025 16.8061C3.00033 15.6252 2.56351 14.5087 1.7555 13.5011C0.65707 12.1313 0 10.3924 0 8.5C0 4.08172 3.58172 0.5 8 0.5ZM8 5.5C7.4477 5.5 7 5.94772 7 6.5V7.499L6 7.5C5.44772 7.5 5 7.94772 5 8.5C5 9.0523 5.44772 9.5 6 9.5L7 9.499V10.5C7 11.0523 7.4477 11.5 8 11.5C8.5523 11.5 9 11.0523 9 10.5V9.5H10C10.5523 9.5 11 9.0523 11 8.5C11 7.94772 10.5523 7.5 10 7.5H9V6.5C9 5.94772 8.5523 5.5 8 5.5Z" fill="#0078FF"/>
</svg>
