<svg width="16" height="21" viewBox="0 0 16 21" fill="none" xmlns="http://www.w3.org/2000/svg">
<path d="M13 0.101074C13.5523 0.101074 14 0.548794 14 1.10107L14.0009 9.62967C12.9393 8.67907 11.5371 8.10107 10 8.10107C6.6863 8.10107 4 10.7874 4 14.1011C4 17.3395 6.76 20.1011 10 20.1011H1C0.44772 20.1011 0 19.6534 0 19.1011V1.10107C0 0.548794 0.44772 0.101074 1 0.101074H13ZM10 10.1011C12.2091 10.1011 14 11.892 14 14.1011C14 14.8429 13.7981 15.5376 13.4462 16.1331L15.6569 18.3437L14.2426 19.758L12.032 17.5473C11.4365 17.8992 10.7418 18.1011 10 18.1011C7.7909 18.1011 6 16.3102 6 14.1011C6 11.892 7.7909 10.1011 10 10.1011ZM10 12.1011C8.8954 12.1011 8 12.9965 8 14.1011C8 15.2057 8.8954 16.1011 10 16.1011C11.1046 16.1011 12 15.2057 12 14.1011C12 12.9965 11.1046 12.1011 10 12.1011Z" fill="#0078FF"/>
</svg>
