<svg width="24" height="24" viewBox="0 0 24 24" fill="none" xmlns="http://www.w3.org/2000/svg">
<path d="M12 0C18.6274 0 24 5.37258 24 12C24 18.6274 18.6274 24 12 24C9.79935 24 7.73704 23.4077 5.96386 22.3736L0.00501623 24L1.62737 18.0378C0.592752 16.2643 0 14.2014 0 12C0 5.37258 5.37258 0 12 0ZM7.66961 6.37C7.51434 6.3809 7.36211 6.41882 7.22351 6.48973C7.11953 6.54293 7.023 6.61981 6.87133 6.76303C6.72811 6.89826 6.64511 7.01636 6.55765 7.13023C6.11401 7.70784 5.87557 8.41686 5.88 9.14518C5.88241 9.73392 6.03534 10.3061 6.27685 10.8403C6.76661 11.9237 7.57428 13.069 8.64115 14.1311C8.89742 14.3862 9.1485 14.6441 9.41923 14.8824C10.7434 16.0483 12.3214 16.889 14.0277 17.3378C14.0277 17.3378 14.6997 17.441 14.7095 17.4416C14.9321 17.4536 15.1543 17.4376 15.3772 17.4262C15.7267 17.4082 16.068 17.3136 16.3769 17.1491C16.5755 17.0434 16.6695 16.9908 16.8361 16.8857C16.8361 16.8857 16.8873 16.8511 16.9859 16.7777C17.1479 16.657 17.248 16.572 17.3827 16.4321C17.4821 16.3289 17.5675 16.207 17.6335 16.0696C17.7274 15.8737 17.8218 15.4999 17.8594 15.1895C17.8881 14.9524 17.8794 14.8228 17.8763 14.7425C17.8711 14.6134 17.7645 14.4805 17.6476 14.4241L16.9498 14.1104C16.9498 14.1104 15.9064 13.6564 15.2682 13.3652C15.2017 13.3349 15.129 13.3208 15.0559 13.3164C14.8959 13.3066 14.7165 13.3483 14.6023 13.4686C14.5963 13.4662 14.5169 13.5348 13.6487 14.5866C13.6008 14.6438 13.4886 14.7683 13.2946 14.7566C13.2653 14.7546 13.2361 14.7504 13.2077 14.743C13.1291 14.7222 13.0525 14.6948 12.9777 14.6632C12.8292 14.6002 12.7771 14.5763 12.6757 14.5326C11.983 14.23 11.3472 13.8251 10.7853 13.3296C10.6345 13.1969 10.4944 13.054 10.3499 12.9139C9.84566 12.4252 9.43285 11.9053 9.12575 11.3926C9.10898 11.3646 9.08315 11.3242 9.05532 11.2789C9.00508 11.1972 8.94966 11.1 8.93228 11.0333C8.88768 10.8568 9.00601 10.7149 9.00601 10.7149C9.00601 10.7149 9.29809 10.3956 9.4338 10.222C9.56436 10.0548 9.67706 9.89136 9.74882 9.77484C9.89018 9.5476 9.93495 9.31274 9.86066 9.13156C9.52399 8.31078 9.17664 7.49443 8.81866 6.68273C8.748 6.52254 8.53784 6.40615 8.34673 6.38408C8.282 6.37661 8.21732 6.3691 8.15233 6.36482C7.99146 6.35698 7.83026 6.3587 7.66961 6.37Z" fill="#000C1A"/>
</svg>
