<svg width="24" height="16" viewBox="0 0 24 16" fill="none" xmlns="http://www.w3.org/2000/svg">
<path d="M12.2932 0C12.9342 0.00294013 14.5378 0.0158608 16.2417 0.0727333L16.8458 0.0946841C18.5612 0.162367 20.2753 0.277993 21.1254 0.475522C22.2593 0.740983 23.1506 1.51557 23.4518 2.49743C23.9315 4.05659 23.9915 7.09972 23.9989 7.83615L24 7.98876V7.99946C24 7.99946 24 8.00316 24 8.01026L23.9989 8.16287C23.9915 8.8993 23.9315 11.9424 23.4518 13.5016C23.1464 14.4871 22.2551 15.2617 21.1254 15.5235C20.2753 15.721 18.5612 15.8366 16.8458 15.9043L16.2417 15.9262C14.5378 15.9831 12.9342 15.996 12.2932 15.999L12.0119 15.9998H11.9995C11.9995 15.9998 11.9953 15.9998 11.987 15.9998L11.7059 15.999C10.3494 15.9928 4.67747 15.9417 2.87354 15.5235C1.7396 15.258 0.848342 14.4835 0.547069 13.5016C0.0674429 11.9424 0.00748834 8.8993 0 8.16287V7.83615C0.00748834 7.09972 0.0674429 4.05659 0.547069 2.49743C0.852518 1.51193 1.74377 0.737353 2.87354 0.475522C4.67747 0.0572327 10.3494 0.00622028 11.7059 0H12.2932ZM9.59936 4.49934V11.4996L16.7997 7.99946L9.59936 4.49934Z" fill="#000C1A"/>
</svg>
